<?xml version="1.0" standalone="no"?>
<!DOCTYPE svg PUBLIC "-//W3C//DTD SVG 1.1//EN" "http://www.w3.org/Graphics/SVG/1.1/DTD/svg11.dtd" >
<svg xmlns="http://www.w3.org/2000/svg">
<metadata>
<json>
<![CDATA[
{
	"fontFamily": "denti-icon",
	"majorVersion": 1,
	"minorVersion": 16,
	"version": "Version 1.16",
	"fontId": "denti-icon",
	"psName": "denti-icon",
	"subFamily": "Regular",
	"fullName": "denti-icon",
	"description": "Font generated by IcoMoon."
}
]]>
</json>
</metadata>
<defs>
<font id="denti-icon" horiz-adv-x="1024">
<font-face units-per-em="1024" ascent="960" descent="-64" />
<missing-glyph horiz-adv-x="1024" />
<glyph unicode="&#x20;" horiz-adv-x="512" d="" />
<glyph unicode="&#xe900;" glyph-name="home" data-tags="home, address" d="M511.999 923.477l-26.827-25.733-485.225-486.589 53.655-53.806 47.823 47.957v-432.784h335.925v374.3h149.3v-374.3h335.925v432.784l47.823-47.957 53.655 53.806-485.225 486.589-26.827 25.733zM511.999 817.035l335.925-336.87v-432.784h-186.625v374.3h-298.6v-374.3h-186.625v432.784l335.925 336.87z" />
<glyph unicode="&#xe901;" glyph-name="approve" data-tags="approve" d="M542.547 960l-13.913-12.522-301.913-299.13h-204.522v-712.348h749.913c62.783 0 117.565 44.348 130.783 105.739l96 445.217c17.565 82.261-46.783 161.391-130.783 161.391h-256l8.348 33.391c9.043 6.957 14.783 9.913 27.826 27.826 20.87 28.522 41.739 72.696 41.739 132.174 0 63.478-57.391 118.261-129.391 118.261h-18.087zM574.547 866.783c18.783-3.652 26.435-11.304 26.435-25.043 0-40.174-12.174-65.044-23.652-80.696s-19.478-19.478-19.478-19.478l-15.304-8.348-5.565-18.087-26.435-100.174-13.913-55.652h371.478c29.391 0 49.217-25.565 43.13-54.261l-94.609-445.217c-4.522-20.87-23.304-34.783-44.522-34.783h-482.783v560.696l285.217 281.043zM111.243 559.304h89.043v-534.261h-89.043v534.261z" />
<glyph unicode="&#xe902;" glyph-name="bell" data-tags="bell, notification" d="M512 960.001c-43.538 0-78.769-35.231-78.769-78.769 0-3.385 0.769-6.615 1.231-9.846-136.154-34.769-237.538-158.462-237.538-305.231v-354.462c0-22.308-17.077-39.385-39.385-39.385h-39.385v-78.769h283.077c-4.462-12.462-7.385-25.538-7.385-39.385 0-64.769 53.385-118.154 118.154-118.154s118.154 53.385 118.154 118.154c0 13.846-2.923 26.923-7.385 39.385h283.077v78.769h-39.385c-22.308 0-39.385 17.077-39.385 39.385v343.385c0 148-98.923 280-237.538 316.308 0.462 3.231 1.231 6.462 1.231 9.846 0 43.538-35.231 78.769-78.769 78.769zM494.769 802.463c5.692 0.462 11.385 0 17.231 0 2.462 0 4.923 0 7.385 0 128.615-3.846 228.923-116.615 228.923-247.385v-343.385c0-13.846 2.923-26.923 7.385-39.385h-487.385c4.462 12.462 7.385 25.538 7.385 39.385v354.462c0 125.077 96.308 227.385 219.077 236.308zM512 93.539c22.154 0 39.385-17.231 39.385-39.385s-17.231-39.385-39.385-39.385c-22.154 0-39.385 17.231-39.385 39.385s17.231 39.385 39.385 39.385z" />
<glyph unicode="&#xe903;" glyph-name="close" data-tags="close" d="M84.416 960l-84.416-84.416 427.584-427.584-427.584-427.584 84.416-84.416 427.584 427.584 427.584-427.584 84.416 84.416-427.584 427.584 427.584 427.584-84.416 84.416-427.584-427.584z" />
<glyph unicode="&#xe904;" glyph-name="create-credit" data-tags="create-credit, new-item" d="M64 960v-918.069h406c50.615-64.552 127.481-105.931 214.308-105.931 151.846 0 275.692 126.897 275.692 282.483 0 131.034-88.308 240.828-206.769 272.552v236.138l-9.692 11.034-206.769 211.862-10.769 9.931h-462zM132.923 889.379h344.615v-211.862h206.769v-176.552c-151.846 0-275.692-126.897-275.692-282.483 0-37.655 7.269-73.103 20.462-105.931h-296.154v776.828zM546.461 838.621l88.308-90.483h-88.308v90.483zM684.307 430.345c114.558 0 206.769-94.483 206.769-211.862s-92.212-211.862-206.769-211.862c-114.558 0-206.769 94.483-206.769 211.862s92.212 211.862 206.769 211.862zM649.846 359.724v-105.931h-103.385v-70.621h103.385v-105.931h68.923v105.931h103.385v70.621h-103.385v105.931h-68.923z" />
<glyph unicode="&#xe905;" glyph-name="credit-amount" data-tags="credit-amount, coins" d="M433.231 881.231c-238.769 0-433.231-194.462-433.231-433.231s194.462-433.231 433.231-433.231c26.923 0 53.231 2.615 78.769 7.385 25.538-4.769 51.692-7.385 78.769-7.385 238.769 0 433.231 194.462 433.231 433.231s-194.462 433.231-433.231 433.231c-27.077 0-53.231-2.615-78.769-7.385-25.538 4.769-51.846 7.385-78.769 7.385zM433.231 802.462c196.154 0 354.462-158.308 354.462-354.462s-158.308-354.462-354.462-354.462c-196.154 0-354.462 158.308-354.462 354.462s158.308 354.462 354.462 354.462zM708.923 781.539c137.846-48.615 236.308-178.769 236.308-333.538s-98.462-284.923-236.308-333.538c96.308 79.538 157.538 199.231 157.538 333.538s-61.231 254-157.538 333.538zM393.846 644.924c0-44-34.769-78.769-78.769-78.769v-78.769c28.923 0 55.385 8.462 78.769 22.154v-179.692h-78.769v-78.769h236.308v78.769h-78.769v315.077h-78.769z" />
<glyph unicode="&#xe906;" glyph-name="verified" data-tags="verified" d="M512 960l-132.518-106.014-139.746 6.024-31.322 2.409-7.228-30.118-34.936-133.722-115.652-75.896-25.299-16.866 10.842-28.913 49.393-128.904-49.393-128.904-10.842-28.913 25.299-16.866 115.652-75.896 34.936-133.722 7.228-30.118 31.322 2.409 139.746 6.024 132.518-106.014 132.518 106.014 139.746-6.024 31.322-2.409 7.228 30.118 34.936 133.722 115.652 75.896 25.299 16.866-10.842 28.913-49.393 128.904 49.393 128.904 10.842 28.913-25.299 16.866-115.652 75.896-34.936 133.722-7.228 30.118-31.322-2.409-139.746-6.024-132.518 106.014zM512 861.214l95.172-77.101 12.047-9.638 14.456 1.205 122.88 6.024 30.118-115.652 3.614-14.456 12.047-8.433 102.4-67.464-43.369-114.447-4.819-13.252 4.819-13.252 43.369-114.447-102.4-67.464-12.047-8.433-3.614-14.456-30.118-115.652-122.88 6.024-14.456 1.205-12.047-9.638-95.172-77.101-95.172 77.101-12.047 9.638-14.456-1.205-122.88-6.024-30.118 115.652-3.614 14.456-12.047 8.433-102.4 67.464 43.369 114.447 4.819 13.252-4.819 13.252-43.369 114.447 102.4 67.464 12.047 8.433 3.614 14.456 30.118 115.652 122.88-6.024 14.456-1.205 12.047 9.638 95.172 77.101zM715.595 591.36l-242.146-242.146-126.494 126.494-55.416-55.416 154.202-154.202 27.708-26.504 27.708 26.504 269.854 269.854-55.416 55.416z" />
<glyph unicode="&#xe907;" glyph-name="calendar" data-tags="calendar" d="M200.348 960v-44.522h-178.087v-979.478h979.478v979.478h-178.087v44.522h-89.043v-44.522h-445.217v44.522h-89.043zM111.305 826.435h89.043v-44.522h89.043v44.522h445.217v-44.522h89.043v44.522h89.043v-89.043h-801.391v89.043zM111.305 648.348h801.391v-623.304h-801.391v623.304zM506.435 514.783l-12.522-18.087c0 0-24.348-26.435-48.696-26.435v-89.043c29.217 0 47.826 12.348 66.783 23.652v-246.261h89.043v356.174h-94.609z" />
<glyph unicode="&#xe908;" glyph-name="decline" data-tags="decline" d="M481.453-64l13.913 12.522 301.913 299.13h204.522v712.348h-749.913c-62.783 0-117.565-44.348-130.783-105.739l-96-445.217c-17.565-82.261 46.783-161.391 130.783-161.391h256l-8.348-33.391c-9.043-6.957-14.783-9.913-27.826-27.826-20.87-28.522-41.739-72.696-41.739-132.174 0-63.478 57.391-118.261 129.391-118.261h18.087zM449.453 29.217c-18.783 3.652-26.435 11.304-26.435 25.043 0 40.174 12.174 65.044 23.652 80.696s19.478 19.478 19.478 19.478l15.304 8.348 5.565 18.087 26.435 100.174 13.913 55.652h-371.478c-29.391 0-49.217 25.565-43.13 54.261l94.609 445.217c4.522 20.87 23.304 34.783 44.522 34.783h482.783v-560.696l-285.217-281.043zM912.757 336.696h-89.043v534.261h89.043v-534.261z" />
<glyph unicode="&#xe909;" glyph-name="dropdown" data-tags="dropdown" d="M0.002 704l69.642-70.932 412.695-412.695 29.662-28.373 29.662 28.373 412.695 412.695 69.642 70.932h-1024zM204.802 635.734h614.4l-307.2-307.2-307.2 307.2z" />
<glyph unicode="&#xe90a;" glyph-name="edit" data-tags="edit" d="M850.262 960c-44.093 0-88.185-17.111-122.406-51.332l-665.995-665.995-2.632-13.162-46.067-231.65-13.162-61.861 61.861 13.162 244.812 48.699 665.995 665.995c68.442 68.442 68.442 176.37 0 244.812-34.221 34.221-78.314 51.332-122.406 51.332zM850.262 879.712c21.224 0 42.612-9.707 63.177-30.272 40.967-40.967 40.967-85.388 0-126.355l-30.272-28.956-125.039 125.039 28.956 30.272c20.566 20.566 41.954 30.272 63.177 30.272zM698.9 759.938l125.039-125.039-509.368-509.368c-27.64 53.964-71.075 97.398-125.039 125.039l509.368 509.368zM135.568 182.129c50.509-20.401 90.159-60.051 110.56-110.56l-138.201-27.64 27.64 138.201z" />
<glyph unicode="&#xe90b;" glyph-name="email-open" data-tags="email-open" d="M512 960l-20.923-13.538-491.077-320v-690.462h1024v690.462l-18.462 12.308-493.538 321.231zM512 866.462l401.231-260.923-401.231-259.692-401.231 259.692 401.231 260.923zM78.769 532.923l433.231-280.615 433.231 280.615v-518.154h-866.462v518.154z" />
<glyph unicode="&#xe90c;" glyph-name="help" data-tags="help" d="M512 960c-282.333 0-512-229.667-512-512s229.667-512 512-512c282.333 0 512 229.667 512 512s-229.667 512-512 512zM512 874.667c236.167 0 426.667-190.5 426.667-426.667s-190.5-426.667-426.667-426.667c-236.167 0-426.667 190.5-426.667 426.667s190.5 426.667 426.667 426.667zM512 704c-93.833 0-170.667-76.833-170.667-170.667h85.333c0 47.667 37.667 85.333 85.333 85.333s85.333-37.667 85.333-85.333c0-32.667-21-61.667-52-72l-17.333-5.333c-34.833-11.5-58.667-44.833-58.667-81.333v-54.667h85.333v54.667l17.333 5.333c65.667 21.833 110.667 84.167 110.667 153.333 0 93.833-76.833 170.667-170.667 170.667zM469.333 277.333v-85.333h85.333v85.333h-85.333z" />
<glyph unicode="&#xe90d;" glyph-name="logout" data-tags="logout" d="M512.666-64c281.966 0 511.334 229.667 511.334 512s-229.368 512-511.334 512c-172.609 0-325.576-85.833-418.122-217.333l69.243-49.333c77.066 109.667 204.401 181.333 348.879 181.333 235.86 0 426.112-190.5 426.112-426.667s-190.252-426.667-426.112-426.667c-144.479 0-271.646 71.667-348.879 181.333l-69.243-49.333c92.546-131.5 245.514-217.333 418.122-217.333zM199.74 246.667l61.254 61.333-97.207 97.333h519.324v85.333h-519.324l97.207 97.333-61.254 61.333-170.445-170.667-29.295-30.667 29.295-30.667 170.445-170.667z" />
<glyph unicode="&#xe90e;" glyph-name="notes" data-tags="notes" d="M0 923.428v-812.21h377.538l134.462-138.647 134.462 138.647h377.538v812.21h-1024zM78.769 842.207h866.462v-649.768h-331.385l-101.846-105.016-101.846 105.016h-331.385v649.768zM236.308 720.375v-81.221h551.385v81.221h-551.385zM236.308 557.933v-81.221h551.385v81.221h-551.385zM236.308 395.491v-81.221h393.846v81.221h-393.846z" />
<glyph unicode="&#xe90f;" glyph-name="password" data-tags="password, lock" d="M512 960c-151.846 0-275.692-123.846-275.692-275.692v-118.154h-118.154v-630.154h787.692v630.154h-118.154v118.154c0 151.846-123.846 275.692-275.692 275.692zM512 881.231c109.231 0 196.923-87.692 196.923-196.923v-118.154h-393.846v118.154c0 109.231 87.692 196.923 196.923 196.923zM196.924 487.385h630.154v-472.615h-630.154v472.615z" />
<glyph unicode="&#xe910;" glyph-name="phone" data-tags="phone" d="M223.403 959.429c-20.571 0-40.836-7.369-57.723-20.878l-2.456-1.228-1.228-1.228-122.814-126.499 1.228-1.228c-37.919-35.002-49.586-87.352-33.16-132.64 0.154-0.307-0.154-0.921 0-1.228 33.313-95.335 118.516-279.403 284.929-445.816 167.028-167.028 353.552-248.853 445.816-284.929h1.228c47.744-15.966 99.48-4.606 136.324 27.019l124.043 124.043c32.546 32.546 32.546 89.040 0 121.586l-159.659 159.659-1.228 2.456c-32.546 32.546-90.269 32.546-122.814 0l-78.601-78.601c-28.401 13.663-96.102 48.665-160.887 110.533-64.324 61.407-97.177 132.026-109.305 159.659l78.601 78.601c33.006 33.006 33.62 87.966-1.228 120.358l1.228 1.228-3.684 3.684-158.431 163.343-2.456 1.228c-16.887 13.51-37.151 20.878-57.723 20.878zM223.403 880.828c2.917 0 5.834-1.382 8.597-3.684l160.887-164.571c-0.307 0.307 2.303-3.838-2.456-8.597l-98.252-98.252-18.422-17.194 8.597-24.563c0 0 45.134-120.819 140.008-211.241l8.597-7.369c91.343-83.36 198.959-128.955 198.959-128.955l24.563-11.053 116.674 116.674c6.755 6.755 5.527 6.755 12.281 0l160.887-160.887c6.755-6.755 6.755-4.299 0-11.053l-120.358-120.358c-18.115-15.505-37.305-18.729-60.179-11.053-89.040 35.002-262.055 110.994-416.341 265.279-155.514 155.514-236.725 331.906-266.507 417.569-5.987 15.966-1.689 39.608 12.281 51.582l2.456 2.456 119.13 121.586c2.763 2.303 5.68 3.684 8.597 3.684z" />
<glyph unicode="&#xe911;" glyph-name="preferred" data-tags="preferred" d="M1024 562.956l-363.283 38.365-148.717 333.567-148.717-333.567-363.283-38.365 271.346-244.56-75.754-357.284 316.408 182.478 316.408-182.478-75.754 357.284z" />
<glyph unicode="&#xe912;" glyph-name="print" data-tags="print" d="M213.333 960v-298.667h-85.333c-70.167 0-128-57.833-128-128v-426.667h213.333v-170.667h597.333v170.667h213.333v426.667c0 70.167-57.833 128-128 128h-85.333v298.667h-597.333zM298.667 874.667h426.667v-213.333h-426.667v213.333zM128 576h768c24.167 0 42.667-18.5 42.667-42.667v-341.333h-128v170.667h-597.333v-170.667h-128v341.333c0 24.167 18.5 42.667 42.667 42.667zM170.667 533.333c-23.5 0-42.667-19.167-42.667-42.667s19.167-42.667 42.667-42.667c23.5 0 42.667 19.167 42.667 42.667s-19.167 42.667-42.667 42.667zM298.667 277.333h426.667v-256h-426.667v256z" />
<glyph unicode="&#xe913;" glyph-name="referrals" data-tags="referrals, leads" d="M512 521.818l219.091 219.091-65.818 65.818-106.727-106.727v260h-93.091v-260l-106.727 106.727-65.818-65.818 219.091-219.091zM99.636 960l-99.636-648v-376h1024v376l-99.636 648h-168v-93.091h88l78.727-512h-318v-46.545c0-52-41.091-93.091-93.091-93.091s-93.091 41.091-93.091 93.091v46.545h-318.182l78.909 512h91.818v93.091h-171.818zM93.091 258.061h242.182c21.273-79.455 90.909-139.636 176.727-139.636s155.455 60.182 176.727 139.636h242.182v-232.727h-837.818v232.727z" />
<glyph unicode="&#xe914;" glyph-name="email-closed" data-tags="email-closed" d="M0 802.461v-708.923h1024v708.923h-1024zM169.846 723.692h684.308l-342.154-227.692-342.154 227.692zM78.769 689.231l265.846-177.231-265.846-185.846v363.077zM945.231 689.231v-363.077l-265.846 185.846 265.846 177.231zM413.538 465.231l76.308-50.462 22.154-13.538 22.154 13.538 76.308 50.462 334.769-233.846v-59.077h-866.462v59.077l334.769 233.846z" />
<glyph unicode="&#xe915;" glyph-name="save" data-tags="save" d="M0 960v-1024h1024v810.182l-13.091 14.545-186.182 186.182-14.545 13.091h-810.182zM93.091 866.909h139.636v-279.273h558.545v258.909l139.636-139.636v-677.818h-93.091v418.909h-651.636v-418.909h-93.091v837.818zM325.818 866.909h186.182v-93.091h93.091v93.091h93.091v-186.182h-372.364v186.182zM279.273 354.909h465.455v-325.818h-465.455v325.818z" />
<glyph unicode="&#xe916;" glyph-name="search" data-tags="search" d="M625.847 960c-219.451 0-398.153-178.702-398.153-398.153 0-95.339 33.439-182.746 89.584-251.334l-317.278-317.278 57.235-57.235 317.278 317.278c68.588-56.146 155.995-89.584 251.334-89.584 219.451 0 398.153 178.702 398.153 398.153s-178.702 398.153-398.153 398.153zM625.847 880.369c176.369 0 318.522-142.153 318.522-318.522s-142.153-318.522-318.522-318.522c-176.369 0-318.522 142.153-318.522 318.522s142.153 318.522 318.522 318.522z" />
<glyph unicode="&#xe917;" glyph-name="sms" data-tags="sms" d="M0 920.616v-737.242h196.923v-207.989l250.154 207.989h576.923v737.242h-1024zM78.769 838.7h866.462v-573.41h-525.846l-143.692-119.514v119.514h-196.923v573.41zM275.692 633.911c-43.538 0-78.769-36.638-78.769-81.916s35.231-81.916 78.769-81.916c43.538 0 78.769 36.638 78.769 81.916s-35.231 81.916-78.769 81.916zM512 633.911c-43.538 0-78.769-36.638-78.769-81.916s35.231-81.916 78.769-81.916c43.538 0 78.769 36.638 78.769 81.916s-35.231 81.916-78.769 81.916zM748.308 633.911c-43.538 0-78.769-36.638-78.769-81.916s35.231-81.916 78.769-81.916c43.538 0 78.769 36.638 78.769 81.916s-35.231 81.916-78.769 81.916z" />
<glyph unicode="&#xe918;" glyph-name="tooth" data-tags="tooth" d="M395.989 960c-105 0-194.667-33.5-257.333-93.333s-96-145-96-241.333c0-72.667 27.833-128.667 56-178.667s56.5-94.833 72-150.667c18.667-68.833 31.667-151.167 53.333-220 10.833-34.333 23.833-65.667 44-92s52.167-48 89.333-48c35.667 0 71.167 18.5 89.333 46.667s22.667 61.5 22.667 97.333c0 44 0 112.667 9.333 166.667 4.667 27 12.667 49.5 20 61.333s7.667 12 13.333 12c5.667 0 6 0 13.333-12s15.333-34.333 20-61.333c9.5-54 9.333-122.667 9.333-166.667 0-35.833 4.5-69.167 22.667-97.333s53.667-46.667 89.333-46.667c37.333 0 69.333 21.5 89.333 48s33.167 58.833 44 93.333c21.667 69 34.833 151 53.333 218.667 15.5 55.833 43.833 100.667 72 150.667s56 106 56 178.667c2.167 193.667-145.333 334.667-338.667 334.667-56.167 0-122.5-20.833-133.333-24-34.667 13.667-72.5 24-113.333 24zM395.989 874.667c98.833 0 212-104 212-104l60 61.333c0 0-28.167 22.167-48 38.667 9 1.333 16.833 4 22.667 4 154.5 0 255-95.5 253.333-248v-1.333c0-51.667-17.667-90.667-44-137.333s-61.833-98.833-81.333-169.333c-20.333-74.167-33.333-156.333-52-216-9.333-29.833-20.833-53.833-30.667-66.667s-13-14.667-21.333-14.667c-13 0-13 1.333-17.333 8s-9.333 24.333-9.333 50.667c0 43.5 0.833 115.667-10.667 181.333-5.833 32.833-13.833 64.5-30.667 92s-49 52-86.667 52c-37.667 0-69.833-24.5-86.667-52s-25-59.167-30.667-92c-11.5-65.667-10.667-137.833-10.667-181.333 0-26.333-5-44-9.333-50.667s-4.333-8-17.333-8c-8.5 0-11.667 2-21.333 14.667s-21.333 35.667-30.667 65.333c-18.667 59.333-31.667 142.333-52 217.333-19.5 70.5-55 122.667-81.333 169.333s-44 85.5-44 137.333c0 76.833 25.833 137.333 70.667 180s109.833 69.333 197.333 69.333z" />
<glyph unicode="&#xe919;" glyph-name="rotate-phone" data-tags="rotate-phone" d="M77.369-7.111h414.151c44.753 0 77.369 32.616 77.369 77.369v755.485c0 44.753-32.616 77.369-77.369 77.369h-414.151c-44.753 0-77.369-32.616-77.369-77.369v-755.485c0-44.753 32.616-77.369 77.369-77.369zM76.61 30.815c-21.997 0-38.684 16.687-38.684 38.684v757.002c0 21.997 16.687 38.684 38.684 38.684h415.668c21.997 0 38.684-16.687 38.684-38.684v-757.002c0-21.997-16.687-38.684-38.684-38.684zM284.444 68.741c20.48 0 37.926 17.446 37.926 37.926s-17.446 37.926-37.926 37.926c-20.48 0-37.926-17.446-37.926-37.926s17.446-37.926 37.926-37.926zM75.852 182.518h417.185v37.926h-417.185zM815.028 694.519l59.544-84.196 59.544 84.196zM608.332 865.185h46.27c133.499 0 209.351-69.404 201.007-177.114l37.926-0.379c5.689 131.224-84.575 215.419-238.933 215.419h-46.27zM946.631 561.778h-338.299v-37.926h339.058c21.997 0 38.684-16.687 38.684-38.684v-415.668c0-21.997-16.687-38.684-38.684-38.684h-339.058v-37.926h338.299c44.753 0 77.369 32.616 77.369 77.369v414.151c0 44.753-32.616 77.369-77.369 77.369z" />
<glyph unicode="&#xe91a;" glyph-name="calculator" data-tags="calculator" d="M137 898v-900h750v900h-750zM211.979 823.023h600.042v-750.046h-600.042v750.046zM287.028 673v-74.977h450.013v74.977h-450.013zM287.028 448v-74.977h262.462v74.977h-262.462zM624.538 448v-74.977h112.503v74.977h-112.503zM287.028 297.977v-74.977h262.462v74.977h-262.462zM624.538 297.977v-74.977h112.503v74.977h-112.503z" />
<glyph unicode="&#xe91b;" glyph-name="cpr" data-tags="cpr, asterix" d="M449.745 336.003l-272.025-192.714-97.219 169.051 312.099 133.549-312.099 138.62 97.219 163.129 272.025-191.876-35.816 323.724h193.574l-27.286-323.724 266.901 191.876 97.219-163.129-308.701-138.62 308.701-133.549-97.219-169.051-266.901 192.714 28.99-319.489h-195.274l35.816 319.489z" />
<glyph unicode="&#xe91c;" glyph-name="trash" data-tags="trash, delete" d="M36.131 741.453h39.656l92.53-772.846c1.762-18.507 17.625-31.725 36.13-31.725h615.105c18.506 0 33.487 13.218 36.13 31.725l92.53 772.846h39.656c20.269 0 36.132 15.861 36.132 36.13s-15.863 36.13-36.132 36.13h-276.708v110.156c0 20.268-15.863 36.13-36.132 36.13h-326.058c-20.269 0-36.13-15.863-36.13-36.13v-110.156h-276.709c-20.269 0-36.132-15.861-36.132-36.13s16.744-36.13 36.132-36.13v0zM385.101 887.737h253.797v-74.024h-253.797v74.024zM875.069 741.453l-87.242-733.19h-551.655l-87.242 733.19h726.139zM392.15 118.417c20.268 0 36.13 15.863 36.13 36.13v432.689c0 20.268-15.863 36.13-36.13 36.13-20.269 0-36.132-15.863-36.132-36.13v-432.689c0-20.268 15.863-36.13 36.132-36.13zM631.848 118.417c20.269 0 36.132 15.863 36.132 36.13v432.689c0 20.268-15.863 36.13-36.132 36.13s-36.13-15.863-36.13-36.13v-432.689c0-20.268 16.744-36.13 36.13-36.13z" />
<glyph unicode="&#xe91d;" glyph-name="cancel" data-tags="cancel, revoke" d="M470.751 450.883l-381.944-381.944c-10.614-10.614-10.614-27.804 0-38.419 5.297-5.316 12.252-7.953 19.2-7.953 6.955 0 13.898 2.65 19.2 7.953l384.827 384.827 384.827-384.827c5.316-5.316 12.252-7.953 19.2-7.953s13.898 2.65 19.2 7.953c10.613 10.614 10.613 27.804 0 38.419l-381.935 381.944 382.198 382.215c10.614 10.613 10.614 27.804 0 38.418-10.613 10.595-27.804 10.595-38.4 0l-385.061-385.094-385.097 385.081c-10.614 10.595-27.787 10.595-38.4 0-10.614-10.614-10.614-27.804 0-38.419l382.215-382.202z" />
<glyph unicode="&#xe91e;" glyph-name="check" data-tags="check, accept" d="M364.141 100.070h-0.1c-10.906 0-21.376 4.434-29.080 12.14l-323.002 325.335c-16.040 16.14-15.907 42.184 0.166 58.157 16.241 16.106 42.185 15.94 58.158-0.168l293.923-296.091 589.581 589.55c16.108 16.074 42.117 16.074 58.157 0 16.074-16.040 16.074-42.084 0-58.157l-618.725-618.729c-7.704-7.702-18.173-12.037-29.078-12.037z" />
<glyph unicode="&#xe91f;" glyph-name="credit-card" data-tags="credit-card_v2" d="M917.4 854.6h-810.8c-58.8 0-106.6-52.6-106.6-117v-514.2c0-64.4 47.8-116.8 106.6-116.8h810.6c58.8 0 106.6 52.4 106.6 116.8v514.2c0.2 64.4-47.6 117-106.4 117zM981.4 223.6c0-38.6-28.8-70.2-64-70.2h-810.8c-35.2 0-64 31.6-64 70.2v514c0 38.6 28.8 70.2 64 70.2h810.6c35.2 0 64-31.6 64-70.2l0.2-514zM581.4 297.2h-442.6c-12.6 0-23.2-9.2-23.4-21-0.2-12 10-21.8 22.8-21.8h442.4c12.6 0 23.4 9.2 23.4 21 0.2 12.2-10 21.8-22.6 21.8zM976.6 683.2h-927.6c-26.4 0-48.6-32-49-73-0.4-41.6 21-75.8 47.8-75.8h927c26.4 0 49 32 49 73 0.4 42.4-21 75.8-47.2 75.8z" />
<glyph unicode="&#xe920;" glyph-name="open-new" data-tags="open-new" d="M810.667 149.333h-597.333v597.333h298.667v85.333h-298.667c-47.147 0-85.333-38.187-85.333-85.333v-597.333c0-47.147 38.187-85.333 85.333-85.333h597.333c47.147 0 85.333 38.187 85.333 85.333v298.667h-85.333v-298.667zM597.333 832v-85.333h152.96l-419.413-419.413 60.373-60.373 419.413 419.413v-152.96h85.333v298.667h-298.667z" />
<glyph unicode="&#xe921;" glyph-name="settings" data-tags="settings (1)" d="M981.334 149.334h-113.622c-18.474 61.482-74.966 106.666-142.378 106.666s-123.862-45.184-142.378-106.666h-540.29c-23.552 0-42.666-19.116-42.666-42.668s19.114-42.666 42.666-42.666h540.288c18.474-61.482 74.966-106.666 142.378-106.666s123.862 45.184 142.378 106.666h113.622c23.594 0 42.666 19.114 42.666 42.666s-19.070 42.668-42.664 42.668zM725.334 42.666c-35.286 0-64 28.714-64 64s28.714 64 64 64 64-28.714 64-64-28.716-64-64-64zM981.334 832h-113.622c-18.518 61.482-74.966 106.666-142.378 106.666s-123.862-45.184-142.38-106.666h-540.288c-23.552 0-42.666-19.114-42.666-42.666s19.114-42.666 42.666-42.666h540.288c18.518-61.484 74.966-106.668 142.38-106.668s123.862 45.184 142.378 106.666h113.622c23.594 0 42.666 19.114 42.666 42.666s-19.072 42.668-42.666 42.668zM725.334 725.334c-35.286 0-64 28.714-64 64s28.714 64 64 64 64-28.714 64-64c0-35.286-28.716-64-64-64zM981.334 490.666h-540.288c-18.518 61.482-74.966 106.666-142.378 106.666s-123.862-45.184-142.378-106.666h-113.624c-23.552 0-42.666-19.114-42.666-42.666s19.114-42.666 42.666-42.666h113.622c18.518-61.482 74.966-106.666 142.378-106.666s123.862 45.184 142.378 106.666h540.288c23.594 0 42.666 19.114 42.666 42.666 0.002 23.552-19.070 42.666-42.664 42.666zM298.666 384c-35.286 0-64 28.714-64 64s28.714 64 64 64c35.286 0 64-28.714 64-64s-28.714-64-64-64z" />
<glyph unicode="&#xe922;" glyph-name="export" data-tags="export" d="M870.406 652.81h-230.403v-51.201h204.803v-614.408h-665.609v614.408h204.803v51.201h-230.403c-14.132 0-25.6-11.468-25.6-25.6v-665.609c0-14.132 11.468-25.6 25.6-25.6h716.81c14.132 0 25.6 11.468 25.6 25.6v665.609c0 14.13-11.47 25.6-25.6 25.6zM683.489 802.434l-153.602 150.274c-10.086 9.882-26.316 9.694-36.198-0.41l-153.192-149.848c-10.104-9.898-10.292-26.094-0.41-36.216 9.882-10.070 26.112-10.258 36.198-0.376l110.116 107.709v-550.204c0-14.148 11.468-25.6 25.6-25.6s25.6 11.434 25.6 25.6v550.206l110.1-107.709c10.086-9.898 26.316-9.71 36.198 0.376 9.88 10.12 9.71 26.318-0.41 36.198z" />
<glyph unicode="&#xe923;" glyph-name="dunning" data-tags="dunning" d="M554.667 234.667h-85.333v85.333h85.333v-85.333zM554.667 405.333h-85.333v256h85.333v-256zM512 789.333c187.733 0 341.333-153.6 341.333-341.333s-153.6-341.333-341.333-341.333-341.333 153.6-341.333 341.333 153.6 341.333 341.333 341.333zM512 874.667c-234.667 0-426.667-192-426.667-426.667s192-426.667 426.667-426.667 426.667 192 426.667 426.667c0 234.667-192 426.667-426.667 426.667v0z" />
<glyph unicode="&#xe924;" glyph-name="users" data-tags="users" d="M512 660.794c-80.408 0-145.822-65.414-145.822-145.822s65.416-145.822 145.822-145.822 145.822 65.416 145.822 145.822c0 80.406-65.414 145.822-145.822 145.822zM512 433.958c-44.676 0-81.012 36.348-81.012 81.012 0 44.676 36.336 81.012 81.012 81.012s81.012-36.336 81.012-81.012-36.336-81.012-81.012-81.012zM512 435.038c-119.716 0-217.114-97.398-217.114-217.114v-48.608c0-17.898 14.506-32.406 32.406-32.406 17.898 0 32.406 14.506 32.406 32.406v48.608c0 83.984 68.32 152.304 152.304 152.304s152.304-68.332 152.304-152.304v-48.608c0-17.898 14.506-32.406 32.406-32.406 17.898 0 32.406 14.506 32.406 32.406v48.608c-0.004 119.716-97.402 217.114-217.118 217.114zM806.886 759.088c-80.408 0-145.822-65.416-145.822-145.822s65.416-145.822 145.822-145.822c80.418 0 145.822 65.416 145.822 145.822s-65.414 145.822-145.822 145.822zM806.886 532.254c-44.676 0-81.012 36.336-81.012 81.012s36.336 81.012 81.012 81.012 81.012-36.336 81.012-81.012-36.336-81.012-81.012-81.012zM806.886 533.334c-99.3 0-185.95-67.306-210.686-163.688-4.45-17.326 5.994-34.986 23.32-39.438 17.336-4.494 34.986 5.984 39.438 23.32 17.39 67.716 78.226 114.994 147.93 114.994 83.984 0 152.304-68.332 152.304-152.304v-48.608c0-17.898 14.506-32.406 32.406-32.406 17.898 0 32.406 14.506 32.404 32.406v48.61c-0.002 119.714-97.4 217.114-217.116 217.114zM217.114 759.088c-80.408 0-145.822-65.416-145.822-145.822s65.416-145.822 145.822-145.822c80.408 0 145.822 65.416 145.822 145.822s-65.414 145.822-145.822 145.822zM217.114 532.254c-44.676 0-81.012 36.336-81.012 81.012s36.336 81.012 81.012 81.012 81.012-36.336 81.012-81.012-36.336-81.012-81.012-81.012zM426.732 370.724c-24.584 95.746-110.782 162.608-209.618 162.608-119.716 0.002-217.114-97.398-217.114-217.112v-48.608c0-17.898 14.506-32.406 32.406-32.406 17.898 0 32.406 14.506 32.406 32.406v48.608c0 83.972 68.32 152.304 152.304 152.304 69.238 0 129.62-46.836 146.838-113.914 4.45-17.326 22.046-27.738 39.448-23.332 17.334 4.45 27.78 22.12 23.33 39.446z" />
<glyph unicode="&#xe925;" glyph-name="loan-count" data-tags="loan-count" d="M225.28 939.52v-122.88h-204.8v-860.16h778.24v122.88h204.8v704.799l-155.361 155.361h-622.879zM860.16 869.601l73.441-73.441h-73.441v73.441zM757.76-2.56h-696.32v778.24h552.96v-143.36h143.36v-634.88zM655.36 746.721l73.441-73.441h-73.441v73.441zM798.72 120.32v540.959l-155.361 155.361h-377.119v81.92h552.96v-143.36h143.36v-634.88h-163.84z" />
<glyph unicode="&#xe926;" glyph-name="sundhedplus" data-tags="sundhedplus" horiz-adv-x="1188" d="M1068.898 775.483c-70.302 27.963-150.646 11.422-204.209-42.142l-26.782-26.782-35.84-35.643-35.84-35.84-98.068-98.265-71.877-71.483-35.643 35.84-35.84 35.643-98.462 98.265-35.643 35.84-35.84 35.643-26.782 26.782c-18.314 18.314-19.889 47.458-3.545 67.545 7.483 9.452 18.511 15.557 30.523 16.738 17.92 2.166 36.037-4.135 48.64-17.132l192.591-192.591 134.105 134.105 35.643 35.84 26.782 26.782c49.034 48.837 113.822 78.572 182.745 83.692-10.831 13.194-23.237 24.812-37.022 34.658-75.815 54.351-180.578 43.126-246.548-23.040l-24.025-24.025-35.84-35.643-35.84-35.84-35.84 35.84-35.84 35.643-24.418 24.418c-66.166 65.969-170.929 77.194-246.745 22.646-13.785-9.846-25.994-21.662-36.628-34.855-12.209-14.966-22.055-31.508-29.145-49.428-27.963-70.302-11.422-150.646 42.142-204.209l366.475-366.672 134.105 134.105 35.643 35.84 134.105 134.105 35.643 35.84 26.782 26.782c18.314 18.314 47.458 19.692 67.545 3.545 6.105-4.726 10.831-11.028 13.785-18.117 8.074-20.874 2.954-44.505-12.997-60.062l-23.631-23.631-71.483-71.68-98.265-98.265-35.84-35.643-35.84-35.84-98.068-98.265-71.877-71.483-339.495 339.495-71.089 72.074-26.782 26.782c-49.034 48.837-78.966 113.625-84.283 182.745-4.923-4.135-9.649-8.271-14.375-12.603-35.643-35.643-55.729-83.889-55.532-134.302 0-50.412 20.086-98.658 55.926-134.302l518.695-518.302c4.726-4.726 11.225-7.483 17.92-7.483s13.194 2.757 17.92 7.483l515.938 516.135c65.969 65.969 77.194 170.732 22.843 246.548-9.846 13.588-21.465 25.994-34.462 36.628-15.36 12.406-32.098 22.252-50.215 29.538z" />
<glyph unicode="&#xe927;" glyph-name="denti" data-tags="denti" horiz-adv-x="626" d="M626.178 231.122v728.878c-69.095 0-125.103-56.008-125.103-125.103v-217.599c-39.483 40.814-102.256 61.22-188.319 61.22-137.746 0-228.024-32.163-270.612-96.6-28.059-41.701-42.144-125.99-42.144-252.867v-43.475c0-126.433 14.085-210.501 42.144-252.201 43.032-64.88 133.31-97.265 270.612-97.265 137.746 0 228.246 32.385 271.277 97.265 26.728 39.926 40.481 105.805 41.479 197.857h0.665zM501.076 271.27c0-91.609-7.098-147.727-21.072-168.578-18.189-27.616-73.864-41.479-167.247-41.479-92.94 0-148.726 13.863-167.247 41.479-13.642 20.85-20.407 81.849-20.407 182.885v43.475c0 101.59 6.765 162.7 20.407 183.661 18.632 27.172 74.307 40.814 167.247 40.814 93.383 0 149.169-13.863 167.247-41.479 14.085-20.407 21.072-76.415 21.072-167.912v-72.866z" />
<glyph unicode="&#xe928;" glyph-name="chevron-right" data-tags="Vector (Stroke)" d="M240.852 938.576c28.564 28.564 74.875 28.564 103.44 0l438.857-438.857c28.564-28.564 28.564-74.876 0-103.44l-438.857-438.856c-28.564-28.562-74.876-28.562-103.44 0s-28.564 74.876 0 103.439l387.138 387.138-387.138 387.137c-28.564 28.564-28.564 74.876 0 103.44z" />
<glyph unicode="&#xe929;" glyph-name="circle-check" data-tags="circle-check" d="M512 960c-282.784 0-512-229.216-512-512s229.216-512 512-512c282.752 0 512 229.248 512 512 0 282.784-229.248 512-512 512zM512 0c-247.424 0-448 200.576-448 448s200.576 448 448 448 448-200.576 448-448c0-247.424-200.576-448-448-448zM745.6 627.424l-329.216-326.272-136.992 134.272c-12.608 12.512-33.088 12.512-45.696 0-12.64-12.512-12.64-32.768 0-45.248l159.968-156.768c13.12-11.552 32.736-12.832 45.696 0l351.968 348.768c12.608 12.48 12.608 32.768 0 45.248-12.64 12.48-33.088 12.48-45.728 0z" />
<glyph unicode="&#xe92a;" glyph-name="add-user" data-tags="add-user" d="M370.596 417.952h90.734c39.816 0 78.904-9.45 116.164-28.092l31.628 63.242c-47.182 23.59-96.908 35.552-147.79 35.552h-90.734c-180.632 0-327.586-146.954-327.586-327.586v-82.486c0-19.526 15.826-35.35 35.35-35.35h430.104v70.702h-394.754v47.134c0 141.652 115.232 256.884 256.884 256.884zM415.374 960c-119.546 0-216.82-97.262-216.82-216.82s97.262-216.82 216.82-216.82 216.82 97.262 216.82 216.82-97.262 216.82-216.82 216.82zM415.374 597.064c-80.564 0-146.118 65.552-146.118 146.118 0 80.564 65.552 146.118 146.118 146.118 80.576 0 146.118-65.552 146.118-146.118s-65.554-146.118-146.118-146.118zM707.62 482.762c-150.748 0-273.38-122.632-273.38-273.38s122.632-273.382 273.38-273.382c150.736 0 273.37 122.632 273.37 273.38s-122.632 273.382-273.37 273.382zM707.62 6.702c-111.756 0-202.678 90.922-202.678 202.678s90.922 202.678 202.678 202.678c111.744 0 202.668-90.922 202.668-202.678s-90.924-202.678-202.668-202.678zM707.62 342.536c-19.526 0-35.35-15.826-35.35-35.35v-195.608c0-19.526 15.826-35.35 35.35-35.35s35.35 15.826 35.35 35.35v195.608c0.002 19.524-15.824 35.35-35.35 35.35zM805.424 244.732h-195.62c-19.526 0-35.35-15.826-35.35-35.35s15.826-35.35 35.35-35.35h195.62c19.526 0 35.352 15.826 35.352 35.35s-15.826 35.35-35.352 35.35z" />
<glyph unicode="&#xe92b;" glyph-name="circle-plus" data-tags="plus-circle" d="M512 960c-282.697 0-512-229.303-512-512s229.303-512 512-512 512 229.303 512 512c0 282.697-229.303 512-512 512zM512 9.143c-242.103 0-438.857 196.754-438.857 438.857s196.754 438.857 438.857 438.857 438.857-196.754 438.857-438.857-196.754-438.857-438.857-438.857zM731.429 484.571v-73.143h-182.857v-182.857h-73.143v182.857h-182.857v73.143h182.857v182.857h73.143v-182.857h182.857z" />
</font>
</defs>
</svg>
