<svg id="Lag_1" data-name="Lag 1" xmlns="http://www.w3.org/2000/svg" xmlns:xlink="http://www.w3.org/1999/xlink" viewBox="0 0 277.97 323.04"><defs><style>.cls-1{fill:url(#Ikke-navngivet_forløb_13);}.cls-2{fill:#c6c6c6;}.cls-3{fill:url(#Ikke-navngivet_forløb_25);}</style><linearGradient id="Ikke-navngivet_forløb_13" x1="139" y1="6.09" x2="138.96" y2="215.88" gradientUnits="userSpaceOnUse"><stop offset="0" stop-color="#f9f9f9"/><stop offset="0.83" stop-color="#eeeeef"/></linearGradient><radialGradient id="Ikke-navngivet_forløb_25" cx="278.58" cy="528.86" r="144.96" gradientTransform="matrix(1.11, 0, 0, 0.03, -170.5, 181.52)" gradientUnits="userSpaceOnUse"><stop offset="0" stop-color="#e5e5e5"/><stop offset="0.27" stop-color="#e9e9e9"/><stop offset="0.38" stop-color="#efeeee" stop-opacity="0.99"/><stop offset="0.45" stop-color="#efeeee" stop-opacity="0.97"/><stop offset="0.51" stop-color="#efefef" stop-opacity="0.93"/><stop offset="0.57" stop-color="#f0efef" stop-opacity="0.85"/><stop offset="0.63" stop-color="#f1f0f0" stop-opacity="0.74"/><stop offset="0.69" stop-color="#f2f1f1" stop-opacity="0.59"/><stop offset="0.75" stop-color="#f3f3f3" stop-opacity="0.42"/><stop offset="0.81" stop-color="#f4f4f4" stop-opacity="0.21"/><stop offset="0.86" stop-color="#f6f6f6" stop-opacity="0"/></radialGradient></defs><rect class="cls-1" width="277.97" height="175.98" rx="10.73"/><path class="cls-2" d="M196.58,411H170.29A6.4,6.4,0,0,1,164,404.5V387.56a6.4,6.4,0,0,1,6.33-6.46h26.29a6.4,6.4,0,0,1,6.33,6.46V404.5A6.4,6.4,0,0,1,196.58,411ZM170.29,381.9a5.61,5.61,0,0,0-5.55,5.66V404.5a5.62,5.62,0,0,0,5.55,5.67h26.29a5.62,5.62,0,0,0,5.55-5.67V387.56a5.61,5.61,0,0,0-5.55-5.66Z" transform="translate(-140.27 -330.96)"/><path class="cls-2" d="M176.47,411a.38.38,0,0,1-.22-.07.4.4,0,0,1-.09-.56l.59-.85a3,3,0,0,0,.11-3.26l-.23-.38a3.77,3.77,0,0,1-.55-2V388.18a3.77,3.77,0,0,1,.55-2l.23-.39a3,3,0,0,0-.11-3.25l-.59-.86a.39.39,0,0,1,.09-.55.38.38,0,0,1,.54.09l.6.86a3.8,3.8,0,0,1,.14,4.13l-.24.38a3,3,0,0,0-.42,1.55v15.69a3,3,0,0,0,.42,1.54l.24.38a3.81,3.81,0,0,1-.14,4.14l-.6.86A.39.39,0,0,1,176.47,411Z" transform="translate(-140.27 -330.96)"/><path class="cls-2" d="M190.24,387.54a.4.4,0,0,1-.38-.27,3,3,0,0,0-.28-.64l-.23-.38a3.8,3.8,0,0,1,.13-4.13l.6-.86a.38.38,0,0,1,.54-.09.39.39,0,0,1,.09.55l-.59.86a3,3,0,0,0-.11,3.25l.23.39a3.87,3.87,0,0,1,.37.8.41.41,0,0,1-.25.5A.25.25,0,0,1,190.24,387.54Z" transform="translate(-140.27 -330.96)"/><path class="cls-2" d="M176.47,392H164.35a.4.4,0,0,1,0-.8h12.12a.4.4,0,0,1,0,.8Z" transform="translate(-140.27 -330.96)"/><path class="cls-2" d="M176.47,400.86H164.35a.4.4,0,0,1,0-.8h12.12a.4.4,0,0,1,0,.8Z" transform="translate(-140.27 -330.96)"/><path class="cls-2" d="M190.4,411a.39.39,0,0,1-.32-.16l-.6-.86a3.81,3.81,0,0,1-.13-4.14l.23-.38a3,3,0,0,0,.43-1.54V392.82a1.62,1.62,0,0,1,1.59-1.64h10.92a.4.4,0,0,1,0,.8H191.6a.83.83,0,0,0-.81.84v11.05a3.77,3.77,0,0,1-.55,2l-.23.38a3,3,0,0,0,.11,3.26l.59.85a.4.4,0,0,1-.09.56A.38.38,0,0,1,190.4,411Z" transform="translate(-140.27 -330.96)"/><path class="cls-2" d="M202.52,400.86H190.4a.4.4,0,0,1,0-.8h12.12a.4.4,0,0,1,0,.8Z" transform="translate(-140.27 -330.96)"/><ellipse class="cls-3" cx="138.98" cy="197.91" rx="138.98" ry="125.13"/></svg>