<?xml version="1.0" encoding="utf-8"?>
<!-- Generator: Adobe Illustrator 24.1.2, SVG Export Plug-In . SVG Version: 6.00 Build 0)  -->
<svg version="1.1" id="Layer_1" xmlns="http://www.w3.org/2000/svg" xmlns:xlink="http://www.w3.org/1999/xlink" x="0px" y="0px"
	 viewBox="0 0 60.32 52" style="enable-background:new 0 0 60.32 52;" xml:space="preserve">
<style type="text/css">
	.st0{fill:#1D1D1B;}
	.st1{filter:url(#Adobe_OpacityMaskFilter);}
	.st2{fill-rule:evenodd;clip-rule:evenodd;fill:#FFFFFF;}
	.st3{mask:url(#mask-2_1_);}
</style>
<g id="Logo" transform="translate(0.000000, 0.000000)">
	<g id="Asset-38">
		<g id="Group">
			<g id="Path">
				<path id="path-1_1_" class="st0" d="M54.28,9.37c-3.57-1.42-7.65-0.58-10.37,2.14l-1.36,1.36l-1.82,1.81l-1.82,1.82l-4.98,4.99
					l-1.82,1.81l-1.83,1.82l-1.81-1.82l-1.82-1.81l-5-4.99l-1.81-1.82l-1.82-1.81l-1.36-1.36c-0.93-0.93-1.01-2.41-0.18-3.43
					c0.38-0.48,0.94-0.79,1.55-0.85c0.91-0.11,1.83,0.21,2.47,0.87l1.15,1.15l1.82,1.82l1.82,1.82l4.99,4.99l4.99-4.99l1.82-1.82
					l1.81-1.82l1.36-1.36c2.49-2.48,5.78-3.99,9.28-4.25c-0.55-0.67-1.18-1.26-1.88-1.76c-3.85-2.76-9.17-2.19-12.52,1.17
					l-1.22,1.22l-1.82,1.81l-1.82,1.82l-1.82-1.82l-1.82-1.81l-1.24-1.24c-3.36-3.35-8.68-3.92-12.53-1.15
					c-0.7,0.5-1.32,1.1-1.86,1.77c-0.62,0.76-1.12,1.6-1.48,2.51c-1.42,3.57-0.58,7.65,2.14,10.37l1.36,1.36l1.81,1.81l1.82,1.82
					l4.99,5l1.82,1.82l1.82,1.82l4.99,4.99l4.99-4.99l1.82-1.82l1.81-1.82l4.99-4.99l1.82-1.82l1.81-1.82l1.36-1.36
					c0.93-0.93,2.41-1,3.43-0.18c0.31,0.24,0.55,0.56,0.7,0.92c0.41,1.06,0.15,2.26-0.66,3.05l-1.2,1.2l-3.63,3.64l-4.99,4.99
					l-1.82,1.81l-1.82,1.82l-4.98,4.99l-3.65,3.63l-3.63-3.63l-4.99-4.99l-1.81-1.82l-1.82-1.81l-4.99-4.99L9.41,21.5l-1.36-1.36
					c-2.49-2.48-4.01-5.77-4.28-9.28c-0.25,0.21-0.49,0.42-0.73,0.64c-1.81,1.81-2.83,4.26-2.82,6.82c0,2.56,1.02,5.01,2.84,6.82
					l9.99,9.98l1.82,1.82l1.82,1.82l12.71,12.7c0.24,0.24,0.57,0.38,0.91,0.38s0.67-0.14,0.91-0.38l12.71-12.71l1.82-1.82l1.81-1.82
					l9.86-9.86c3.35-3.35,3.92-8.67,1.16-12.52c-0.5-0.69-1.09-1.32-1.75-1.86C56.05,10.24,55.2,9.74,54.28,9.37z"/>
			</g>
			<defs>
				<filter id="Adobe_OpacityMaskFilter" filterUnits="userSpaceOnUse" x="-2.23" y="-2.18" width="64.67" height="57.85">
					<feColorMatrix  type="matrix" values="1 0 0 0 0  0 1 0 0 0  0 0 1 0 0  0 0 0 1 0"/>
				</filter>
			</defs>
			<mask maskUnits="userSpaceOnUse" x="-2.23" y="-2.18" width="64.67" height="57.85" id="mask-2_1_">
				<g class="st1">
					<path id="path-1_2_" class="st2" d="M54.28,9.37c-3.57-1.42-7.65-0.58-10.37,2.14l-1.36,1.36l-1.82,1.81l-1.82,1.82l-4.98,4.99
						l-1.82,1.81l-1.83,1.82l-1.81-1.82l-1.82-1.81l-5-4.99l-1.81-1.82l-1.82-1.81l-1.36-1.36c-0.93-0.93-1.01-2.41-0.18-3.43
						c0.38-0.48,0.94-0.79,1.55-0.85c0.91-0.11,1.83,0.21,2.47,0.87l1.15,1.15l1.82,1.82l1.82,1.82l4.99,4.99l4.99-4.99l1.82-1.82
						l1.81-1.82l1.36-1.36c2.49-2.48,5.78-3.99,9.28-4.25c-0.55-0.67-1.18-1.26-1.88-1.76c-3.85-2.76-9.17-2.19-12.52,1.17
						l-1.22,1.22l-1.82,1.81l-1.82,1.82l-1.82-1.82l-1.82-1.81l-1.24-1.24c-3.36-3.35-8.68-3.92-12.53-1.15
						c-0.7,0.5-1.32,1.1-1.86,1.77c-0.62,0.76-1.12,1.6-1.48,2.51c-1.42,3.57-0.58,7.65,2.14,10.37l1.36,1.36l1.81,1.81l1.82,1.82
						l4.99,5l1.82,1.82l1.82,1.82l4.99,4.99l4.99-4.99l1.82-1.82l1.81-1.82l4.99-4.99l1.82-1.82l1.81-1.82l1.36-1.36
						c0.93-0.93,2.41-1,3.43-0.18c0.31,0.24,0.55,0.56,0.7,0.92c0.41,1.06,0.15,2.26-0.66,3.05l-1.2,1.2l-3.63,3.64l-4.99,4.99
						l-1.82,1.81l-1.82,1.82l-4.98,4.99l-3.65,3.63l-3.63-3.63l-4.99-4.99l-1.81-1.82l-1.82-1.81l-4.99-4.99L9.41,21.5l-1.36-1.36
						c-2.49-2.48-4.01-5.77-4.28-9.28c-0.25,0.21-0.49,0.42-0.73,0.64c-1.81,1.81-2.83,4.26-2.82,6.82c0,2.56,1.02,5.01,2.84,6.82
						l9.99,9.98l1.82,1.82l1.82,1.82l12.71,12.7c0.24,0.24,0.57,0.38,0.91,0.38s0.67-0.14,0.91-0.38l12.71-12.71l1.82-1.82
						l1.81-1.82l9.86-9.86c3.35-3.35,3.92-8.67,1.16-12.52c-0.5-0.69-1.09-1.32-1.75-1.86C56.05,10.24,55.2,9.74,54.28,9.37z"/>
				</g>
			</mask>
			<g id="Path_1_" class="st3">
				<g transform="translate(-2.246914, -17.654321)">
					<path class="st0" d="M17.6,16.33l14.33,21.83c14.4-11.25,21.65-16.82,21.77-16.7l10.83,11.76L33.49,55.61L7.93,29
						C5.43,26.49,8.65,22.27,17.6,16.33z"/>
					<path class="st0" d="M18.35,17.71l28.9-2.23l4.86,5.85c0.26,0.26-18.97,15.12-19.23,14.85l-14.53-7.6
						c-3.01-3.01-3.01-7.89,0-10.89L18.35,17.71z"/>
					<path class="st0" d="M64.58,38.62l-2.04-4.95c-3.01-3-7.87-3-10.88,0l-5.78,9.57L32.3,57.05c-0.34-1.09-9.21-11.11-26.6-30.06
						c-3.01-3-5.8,11.73-5.68,11.86l33.04,34.48C55.4,51.51,65.9,39.94,64.58,38.62z"/>
				</g>
			</g>
		</g>
	</g>
</g>
</svg>
