<?xml version="1.0" standalone="no"?>
<!DOCTYPE svg PUBLIC "-//W3C//DTD SVG 1.1//EN" "http://www.w3.org/Graphics/SVG/1.1/DTD/svg11.dtd" >
<svg xmlns="http://www.w3.org/2000/svg" xmlns:xlink="http://www.w3.org/1999/xlink" version="1.1">
<metadata></metadata>
<defs>
<font id="maven_problack" horiz-adv-x="1523" >
<font-face units-per-em="2048" ascent="1638" descent="-410" />
<missing-glyph horiz-adv-x="552" />
<glyph unicode="&#xfb01;" horiz-adv-x="1449" d="M51 766v276h146v11q2 236 106.5 335t317.5 99q35 0 79.5 -7t71.5 -16v-329q-29 33 -52.5 48t-64.5 15q-43 0 -64.5 -25.5t-21.5 -66.5v-64h203v-276h-207v-766h-372v766h-142zM946 1165v269h381v-269h-381zM950 0v1022h373l4 -1022h-377z" />
<glyph unicode="&#xfb02;" horiz-adv-x="1437" d="M51 766v276h146v11q2 236 106.5 335t317.5 99q35 0 79.5 -7t71.5 -16v-329q-29 33 -52.5 48t-64.5 15q-43 0 -64.5 -25.5t-21.5 -66.5v-64h203v-276h-207v-766h-372v766h-142zM946 0v1434h369v-1434h-369z" />
<glyph horiz-adv-x="0" />
<glyph unicode="&#xd;" horiz-adv-x="552" />
<glyph horiz-adv-x="0" />
<glyph horiz-adv-x="0" />
<glyph unicode=" "  horiz-adv-x="552" />
<glyph unicode="&#x09;" horiz-adv-x="552" />
<glyph unicode="&#xa0;" horiz-adv-x="552" />
<glyph unicode="!" horiz-adv-x="882" d="M279 1366h354l-45 -975h-264zM297 0v262h317v-262h-317z" />
<glyph unicode="&#x22;" horiz-adv-x="899" d="M166 1384h254l-35 -411h-182zM477 1384h254l-35 -411h-182z" />
<glyph unicode="#" horiz-adv-x="1288" d="M152 248v186h176l43 242h-164v184h194l37 209h197l-37 -209h217l37 209h197l-39 -209h125v-184h-154l-43 -242h143v-186h-174l-37 -209h-196l37 209h-219l-35 -209h-197l39 209h-147zM524 434h221l39 242h-217z" />
<glyph unicode="$" horiz-adv-x="1200" d="M72 930q0 170 104.5 294t300.5 162v160h271v-149q86 -6 158.5 -26.5t148.5 -57.5v-389q-78 70 -194 121t-206 51q-72 0 -117.5 -28t-45.5 -87q0 -55 49 -82t164 -59q10 -2 40 -11q195 -55 289 -140t94 -255q0 -176 -103 -297t-277 -155v-187h-271v178q-223 12 -362 80 v381q100 -78 221 -118t221 -40q72 0 111 24t39 83q0 43 -51.5 68.5t-172.5 64.5q-49 12 -121 37q-133 45 -211.5 131t-78.5 246z" />
<glyph unicode="%" horiz-adv-x="1736" d="M31 1016q0 190 85 283.5t273 93.5q190 0 274.5 -93.5t84.5 -283.5q0 -193 -84 -285t-275 -92q-190 0 -274 92t-84 285zM289 1016q0 -172 100 -172q47 0 73.5 37t26.5 135t-27.5 136t-72.5 38q-100 0 -100 -174zM324 -45l833 1448h254l-833 -1448h-254zM989 348 q0 190 85 283.5t273 93.5q190 0 274.5 -93t84.5 -284q0 -193 -84 -285t-275 -92q-190 0 -274 92.5t-84 284.5zM1247 348q0 -172 100 -172q47 0 73.5 37t26.5 135t-27.5 136t-72.5 38q-100 0 -100 -174z" />
<glyph unicode="&#x26;" horiz-adv-x="1441" d="M72 336q0 106 65.5 201.5t206.5 167.5l-29 34q-123 156 -122 277q0 98 64.5 186t178 141.5t252.5 53.5q135 0 236.5 -45t157 -124t55.5 -179q0 -86 -38 -150.5t-102.5 -115t-173.5 -115.5l142 -174q23 39 37 85t14 54h266q-12 -68 -55 -160t-99 -178l242 -295h-448 l-50 59q-123 -90 -360 -90q-127 0 -227.5 47t-156.5 131t-56 189zM485 375q0 -55 22.5 -89t94.5 -34q43 0 90 27l-162 196q-45 -51 -45 -100zM582 1006q0 -47 65 -125l21 -25q63 39 90.5 73t27.5 75q0 45 -26.5 70.5t-73.5 25.5q-45 0 -74.5 -26.5t-29.5 -67.5z" />
<glyph unicode="'" horiz-adv-x="583" d="M166 1384h254l-35 -411h-182z" />
<glyph unicode="(" horiz-adv-x="733" d="M72 627q0 262 97 489t237 367h296q-84 -166 -147 -385t-63 -471t63 -470t147 -388h-296q-140 141 -237 367t-97 491z" />
<glyph unicode=")" horiz-adv-x="733" d="M31 -231q84 165 147.5 384.5t63.5 471.5t-63.5 470t-147.5 388h297q139 -141 236.5 -367.5t97.5 -490.5q0 -262 -97.5 -489.5t-236.5 -366.5h-297z" />
<glyph unicode="*" horiz-adv-x="845" d="M172 1133l158 57l-158 57l78 139l110 -79l-12 131h160l-10 -131l108 79l78 -139l-156 -57l156 -57l-78 -140l-108 80l10 -131h-160l12 131l-110 -80z" />
<glyph unicode="+" horiz-adv-x="1128" d="M190 498v229h259v258h229v-258h256v-229h-256v-256h-229v256h-259z" />
<glyph unicode="," horiz-adv-x="751" d="M152 -229l151 401h285l-197 -401h-239z" />
<glyph unicode="-" horiz-adv-x="950" d="M162 514v240h624v-240h-624z" />
<glyph unicode="." horiz-adv-x="540" d="M102 0v324h336v-324h-336z" />
<glyph unicode="/" horiz-adv-x="948" d="M-29 -201l752 1749h256l-754 -1749h-254z" />
<glyph unicode="0" horiz-adv-x="1382" d="M72 684q0 360 149.5 536.5t468.5 176.5q324 0 472.5 -176.5t148.5 -536.5q0 -362 -148.5 -537.5t-472.5 -175.5q-321 0 -469.5 175.5t-148.5 537.5zM492 684q0 -227 54 -307t144 -80q92 0 147.5 81t55.5 306q0 223 -55.5 304t-147.5 81q-90 0 -144 -81t-54 -304z" />
<glyph unicode="1" horiz-adv-x="978" d="M82 840v346l326 180h346v-1366h-410v975z" />
<glyph unicode="2" horiz-adv-x="1269" d="M137 0v279q123 63 253 172.5t217 229.5t87 214q0 106 -60.5 151.5t-137.5 45.5q-84 0 -162 -40t-187 -128v336q102 63 219 100t267 37q225 0 349 -108.5t124 -327.5q0 -135 -67.5 -243t-160 -181.5t-239.5 -167.5h496v-369h-998z" />
<glyph unicode="3" horiz-adv-x="1228" d="M139 98v338q139 -84 222 -120.5t180 -36.5q92 0 146 32.5t54 91.5q0 70 -45 109t-161 39h-224v295h228q72 0 107.5 32.5t35.5 79.5q0 68 -52 95.5t-130 27.5q-70 0 -144.5 -18.5t-191.5 -71.5v297q84 45 181 70.5t194 25.5q199 0 348 -87t149 -287q0 -63 -30.5 -122 t-81 -97.5t-101.5 -49.5q121 -35 195 -131t74 -227q0 -219 -159 -309t-378 -90q-191 -1 -416 114z" />
<glyph unicode="4" horiz-adv-x="1265" d="M80 348v270l598 748h371v-719h163v-299h-163v-348h-414v348h-555zM414 647h221v281z" />
<glyph unicode="5" horiz-adv-x="1253" d="M150 92v375q59 -68 160.5 -119t197.5 -51q106 0 180 37t74 115q0 76 -53.5 118.5t-141.5 42.5q-61 0 -128.5 -18.5t-106.5 -40.5l-172 192l94 625h807v-348h-561l-15 -86q98 16 203 16q137 0 249 -52t178.5 -156.5t66.5 -256.5q0 -274 -172 -394t-447 -120 q-125 0 -240.5 36t-172.5 85z" />
<glyph unicode="6" horiz-adv-x="1316" d="M72 633q0 449 212 606.5t486 157.5q113 0 200 -17.5t140 -44.5v-338q-78 39 -148.5 58.5t-162.5 19.5q-166 0 -234.5 -78.5t-79.5 -218.5q106 125 283 125q248 -2 362.5 -115.5t114.5 -353.5q0 -217 -157.5 -340t-448.5 -123q-567 0 -567 662zM502 467q20 -96 62 -132 t110 -36q71 0 113 35t42 108q0 86 -38.5 130t-104.5 44q-78 0 -121 -33.5t-63 -115.5z" />
<glyph unicode="7" horiz-adv-x="1226" d="M135 995v371h1004v-217l-439 -1149h-448l430 995h-547z" />
<glyph unicode="8" horiz-adv-x="1335" d="M72 377q0 115 61.5 193.5t169.5 123.5q-199 96 -199 293q0 211 139.5 310.5t424.5 99.5t424 -99.5t139 -310.5q0 -197 -199 -293q109 -45 170.5 -123.5t61.5 -193.5q0 -199 -150.5 -302.5t-445.5 -103.5t-445.5 103.5t-150.5 302.5zM508 455q0 -74 42 -124t118 -50 q75 0 117 50t42 124q0 51 -43 97t-116 46q-74 0 -117 -46t-43 -97zM528 938q0 -61 47.5 -97t92.5 -36t92 36t47 97q0 57 -38 103t-101 46t-101.5 -46t-38.5 -103z" />
<glyph unicode="9" horiz-adv-x="1323" d="M72 934q0 215 150.5 339t412.5 124q319 0 464.5 -167t145.5 -495q0 -449 -212 -606.5t-486 -157.5q-113 0 -200 17.5t-140 44.5v338q78 -39 148.5 -58.5t162.5 -19.5q166 0 234.5 79t78.5 218q-106 -125 -282 -125q-248 2 -362.5 115.5t-114.5 353.5zM487 926 q0 -86 39 -130t107 -44q78 0 120 32.5t62 114.5q-20 98 -64 134t-116 36q-66 0 -107 -35t-41 -108z" />
<glyph unicode=":" horiz-adv-x="868" d="M281 72v282h294v-282h-294zM281 670v282h294v-282h-294z" />
<glyph unicode=";" horiz-adv-x="653" d="M72 -229l151 442h326l-238 -442h-239zM215 629v323h336v-323h-336z" />
<glyph unicode="&#x3c;" horiz-adv-x="1368" d="M246 455v186l862 383v-279l-504 -196l504 -199v-278z" />
<glyph unicode="=" horiz-adv-x="1306" d="M250 285v239h805v-239h-805zM250 698v240h805v-240h-805z" />
<glyph unicode="&#x3e;" horiz-adv-x="1351" d="M238 72v278l503 199l-503 196v279l862 -383v-186z" />
<glyph unicode="?" horiz-adv-x="1075" d="M164 1024v262q59 41 155.5 68.5t196.5 27.5q221 0 322.5 -114.5t101.5 -282.5q0 -100 -39 -161.5t-117 -133.5q-74 -70 -110.5 -127t-36.5 -149v-21h-281v27q0 102 28 176t66.5 120t98.5 99q57 53 82.5 89t25.5 83q0 86 -51 112.5t-135 26.5q-78 0 -162 -26.5t-145 -75.5 zM338 0v262h317v-262h-317z" />
<glyph unicode="@" horiz-adv-x="1869" d="M166 373q0 242 130 439.5t332.5 309t409.5 111.5q150 0 307.5 -70.5t267 -221t109.5 -378.5q0 -131 -38.5 -249.5t-120.5 -193.5t-201 -75q-68 0 -114 41t-64 90q-31 -57 -103.5 -94t-175.5 -37q-156 0 -246 70.5t-90 193.5q0 121 98.5 211t364.5 90q35 0 105 -4 q0 20 -2 29q-6 51 -42 77.5t-120 26.5q-162 0 -285 -45l29 178q168 53 274 54q168 0 254 -78t86 -230q0 -37 -6 -83t-8 -64q-16 -102 -17 -164q0 -49 15.5 -86t66.5 -37q43 0 91.5 42t83 128t34.5 209q0 162 -84 284t-213 186.5t-262 64.5q-186 0 -355 -99.5t-272.5 -268.5 t-103.5 -363q0 -201 99.5 -323t224.5 -171t211 -49q258 0 469 104l-23 -149q-184 -86 -444 -86q-148 0 -302.5 70.5t-262 223t-107.5 386.5zM766 313q0 -41 39 -56t100 -15q111 0 154 46t53 158q-27 2 -80 3q-131 0 -198.5 -35t-67.5 -101z" />
<glyph unicode="A" horiz-adv-x="1458" d="M20 0l504 1366h455l459 -1366h-420l-76 240h-469l-74 -240h-379zM563 526h287l-145 453z" />
<glyph unicode="B" horiz-adv-x="1411" d="M133 0v1366h633q508 0 508 -383q0 -84 -45 -146.5t-119 -105.5q111 -37 170 -116.5t59 -190.5q0 -139 -70.5 -235.5t-186 -142.5t-255.5 -46h-694zM543 852h235q31 0 54.5 28.5t23.5 67.5q0 55 -28.5 83t-69.5 28h-215v-207zM545 307h243h6q50 0 84 33q36 35 37 98 q0 61 -36.5 94t-96.5 33h-237v-258z" />
<glyph unicode="C" horiz-adv-x="1296" d="M61 682q0 358 170 538.5t521 180.5q209 0 442 -101v-350q-205 143 -385 144q-158 0 -241 -92.5t-83 -321.5q0 -225 85 -314.5t259 -89.5q70 0 164 34t201 106v-350q-78 -43 -205 -70t-237 -27q-340 0 -515.5 174t-175.5 539z" />
<glyph unicode="D" horiz-adv-x="1495" d="M133 0v1366h600q356 0 523 -171t167 -513q0 -340 -168 -511t-522 -171h-600zM543 307h139q156 0 239 92.5t83 282.5q0 377 -322 377h-139v-752z" />
<glyph unicode="E" horiz-adv-x="1224" d="M133 0v1366h969v-307h-557v-221h477v-308h-479v-223h559v-307h-969z" />
<glyph unicode="F" horiz-adv-x="1193" d="M133 0v1366h969v-307h-559v-262h479v-310h-479v-487h-410z" />
<glyph unicode="G" horiz-adv-x="1462" d="M72 682q0 367 183 543t497 176q256 0 514 -103v-364q-152 82 -253.5 120t-207.5 38q-154 0 -233.5 -89.5t-79.5 -318.5q0 -221 79.5 -315.5t210.5 -94.5q98 0 138 27v178h-183v307h592v-653q-135 -80 -281.5 -122t-293.5 -42q-320 0 -501 169t-181 544z" />
<glyph unicode="H" horiz-adv-x="1490" d="M133 0v1366h410v-526h405v526h410v-1366h-410v512h-405v-512h-410z" />
<glyph unicode="I" horiz-adv-x="677" d="M133 0v1366h412v-1366h-412z" />
<glyph unicode="J" horiz-adv-x="1001" d="M61 47v367q104 -74 148.5 -100.5t89.5 -26.5q70 0 114 36.5t44 110.5v932h411v-948q0 -233 -133 -341t-329 -108q-163 0 -345 78z" />
<glyph unicode="K" horiz-adv-x="1449" d="M133 0v1366h412v-483l319 483h516l-483 -551l522 -815h-506l-301 494l-67 -78v-416h-412z" />
<glyph unicode="L" horiz-adv-x="1163" d="M133 0v1366h412v-1057h547v-309h-959z" />
<glyph unicode="M" horiz-adv-x="1785" d="M133 0v1366h414l348 -461l356 461h402v-1366h-410v840l-360 -467l-361 469v-842h-389z" />
<glyph unicode="N" horiz-adv-x="1484" d="M133 0v1366h332l514 -672v672h373v-1366h-287l-559 698v-698h-373z" />
<glyph unicode="O" d="M72 682q0 348 181 531.5t509 183.5q317 0 503.5 -178.5t186.5 -534.5q0 -348 -181 -531.5t-509 -183.5q-318 0 -504 178.5t-186 534.5zM496 680q0 -209 68.5 -296t197.5 -87t197.5 89t68.5 300q0 209 -68.5 296t-197.5 87t-197.5 -89t-68.5 -300z" />
<glyph unicode="P" horiz-adv-x="1404" d="M133 0v1366h670q252 0 391 -112.5t139 -342.5q0 -236 -141 -365.5t-389 -129.5h-260v-416h-410zM543 723h209q57 0 96 41t39 117q0 88 -39 133t-96 45h-209v-336z" />
<glyph unicode="Q" d="M72 682q0 369 170 552t520 183q342 0 516 -177t174 -556q0 -451 -252 -623q48 -57 111 -57q41 0 69.5 8t69.5 33v-235q-72 -39 -219 -39q-252 0 -340 184q-61 -6 -129 -6q-342 0 -516 177t-174 556zM496 680q0 -51 4 -129q47 47 114.5 74.5t141.5 27.5q170 0 264 -123 q8 59 8 156q0 238 -67.5 331t-198.5 93q-129 0 -197.5 -95t-68.5 -335zM549 342q33 -70 85 -98.5t128 -28.5q31 0 61 6q-27 74 -66.5 115t-82.5 41q-70 0 -125 -35z" />
<glyph unicode="R" horiz-adv-x="1521" d="M133 0v1366h711q250 0 390 -112.5t140 -335.5q0 -125 -68.5 -240t-195.5 -160l340 -518h-528l-236 436h-143v-436h-410zM543 725h250q59 0 97 41t38 133q0 78 -39 119t-96 41h-250v-334z" />
<glyph unicode="S" horiz-adv-x="1200" d="M72 930q0 133 64.5 239.5t193.5 169t315 62.5q125 0 220.5 -20.5t189.5 -67.5v-389q-78 70 -194 121t-206 51q-72 0 -117.5 -28t-45.5 -87q0 -55 49 -82t164 -59q10 -2 40 -11q195 -55 289 -140t94 -255q0 -137 -63.5 -242.5t-179 -164t-262.5 -58.5q-166 0 -289 18.5 t-219 65.5v381q100 -78 221 -118t221 -40q72 0 111 24t39 83q0 43 -51.5 68.5t-172.5 64.5q-49 12 -121 37q-133 45 -211.5 131t-78.5 246z" />
<glyph unicode="T" horiz-adv-x="1204" d="M51 1059v307h1102v-307h-350v-1059h-410v1059h-342z" />
<glyph unicode="U" horiz-adv-x="1515" d="M133 489v877h430v-852q0 -133 50.5 -195.5t164.5 -62.5q102 0 158.5 65.5t56.5 192.5v852h389v-877q0 -274 -157.5 -407t-423.5 -133q-344 0 -506 128t-162 412z" />
<glyph unicode="V" horiz-adv-x="1527" d="M20 1366h480l284 -917l285 917h438l-540 -1366h-443z" />
<glyph unicode="W" horiz-adv-x="2097" d="M51 1366h451l151 -860l244 860h303l244 -862l151 862h451l-358 -1366h-404l-233 778l-238 -778h-403z" />
<glyph unicode="X" horiz-adv-x="1470" d="M20 1366h512l254 -379l203 379h445l-439 -690l455 -676h-512l-248 371l-207 -371h-436l438 674z" />
<glyph unicode="Y" horiz-adv-x="1499" d="M51 1366h506l266 -473l230 473h395l-465 -795v-571h-410v575z" />
<glyph unicode="Z" horiz-adv-x="1318" d="M102 0v291l617 762h-610v313h1108v-285l-599 -772h599v-309h-1115z" />
<glyph unicode="[" horiz-adv-x="823" d="M133 -238v1663h619v-327h-209v-1006h209v-330h-619z" />
<glyph unicode="\" horiz-adv-x="880" d="M-76 1548h256l752 -1749h-254z" />
<glyph unicode="]" horiz-adv-x="849" d="M133 90h209v1006h-209v329h619v-1663h-619v328z" />
<glyph unicode="^" horiz-adv-x="1210" d="M246 958l282 455h148l289 -455h-230l-131 244l-131 -244h-227z" />
<glyph unicode="_" horiz-adv-x="1118" d="M0 -49h1118v-209h-1118v209z" />
<glyph unicode="`" horiz-adv-x="571" d="M47 1378h363l86 -260h-197z" />
<glyph unicode="a" horiz-adv-x="1185" d="M61 342q0 135 90.5 220t276.5 85q68 0 140.5 -19.5t127.5 -49.5v40q0 158 -215 158q-90 0 -183 -34.5t-146 -79.5v323q53 35 170.5 63.5t261.5 28.5q174 -1 328 -75q152 -74 151 -296v-6l-2 -485q-4 -246 -518 -246q-231 0 -356.5 85t-125.5 288zM430 324q0 -39 34 -71 t79 -32q92 0 122.5 11.5t30.5 43.5v127q-45 14 -104 15q-88 0 -125 -21.5t-37 -72.5z" />
<glyph unicode="b" horiz-adv-x="1259" d="M123 268v1137h364v-395q53 37 120 52t122 15q227 0 348 -140t121 -415q0 -287 -145.5 -420t-423.5 -133q-506 0 -506 299zM487 367q0 -49 35 -71t107 -22q98 0 149 56.5t51 165.5q0 164 -57 227t-149 63q-33 0 -71 -8t-65 -22v-389z" />
<glyph unicode="c" horiz-adv-x="1036" d="M61 500q0 268 152 421.5t416 153.5q88 0 182 -18.5t160 -50.5v-314q-96 43 -155.5 63.5t-123.5 20.5q-115 0 -187.5 -56t-72.5 -169q0 -139 65.5 -208t215.5 -69q117 0 262 93v-310q-76 -45 -155 -66.5t-187 -21.5q-162 0 -292 65.5t-205 186.5t-75 279z" />
<glyph unicode="d" horiz-adv-x="1282" d="M61 528q0 262 129 408.5t379 146.5q61 0 114.5 -7t107.5 -42v432h368v-1157q0 -106 -68.5 -183t-185.5 -117t-256 -40q-297 0 -442.5 128t-145.5 431zM434 514q0 -123 55.5 -180.5t176.5 -57.5q125 0 125 74v408q-59 30 -110 30h-3q-84 0 -136.5 -21.5t-80 -81.5 t-27.5 -171z" />
<glyph unicode="e" horiz-adv-x="1163" d="M61 500q0 276 141.5 429.5t405.5 153.5q256 -1 376 -165q118 -162 118 -489v-11h-649q49 -143 260 -144q84 0 231 56l51 16v-309q-176 -68 -383 -68q-162 0 -286.5 65.5t-194.5 186.5t-70 279zM438 637h297q-12 94 -46 133t-99 39q-53 0 -95 -42t-57 -130z" />
<glyph unicode="f" horiz-adv-x="823" d="M51 766v276h146v11q2 236 106.5 335t317.5 99q35 0 79.5 -7t71.5 -16v-329q-29 33 -52.5 48t-64.5 15q-43 0 -64.5 -25.5t-21.5 -66.5v-64h203v-276h-207v-766h-372v766h-142z" />
<glyph unicode="g" horiz-adv-x="1234" d="M61 487q0 223 70 352.5t206 183.5t349 54t330 -77.5t117 -213.5v-786q0 -244 -153 -360.5t-413 -116.5q-154 0 -262 19.5t-160 54.5v325q55 -31 178 -63.5t234 -32.5t161 49t50 145v41q-43 -45 -104.5 -68.5t-151.5 -23.5q-451 35 -451 518zM430 512q0 -125 57.5 -199.5 t137.5 -74.5h5q81 0 138 34v426q0 90 -135 90q-102 0 -152.5 -71.5t-50.5 -204.5z" />
<glyph unicode="h" horiz-adv-x="1284" d="M123 0v1434h375v-426q137 67 282 67h4q177 0 277 -82t100 -282v-711h-373v621q0 80 -43 115.5t-127 35.5q-39 0 -76.5 -11t-43.5 -22l-6 -739h-369z" />
<glyph unicode="i" horiz-adv-x="626" d="M123 1165v269h381v-269h-381zM127 0v1022h373l4 -1022h-377z" />
<glyph unicode="j" horiz-adv-x="653" d="M10 -100q25 -4 39 -4q47 0 76 29.5t29 84.5v1032h372l4 -1028q0 -227 -140 -318t-380 -91v295zM150 1186v268h380v-268h-380z" />
<glyph unicode="k" horiz-adv-x="1271" d="M123 0v1434h375l-4 -766l272 374h451l-404 -454l408 -588h-467l-260 401l-2 -401h-369z" />
<glyph unicode="l" horiz-adv-x="614" d="M123 0v1434h369v-1434h-369z" />
<glyph unicode="m" horiz-adv-x="1904" d="M123 0v952q72 39 260 81t322 42q209 0 309 -67q179 67 330 67h4q217 0 325.5 -80t108.5 -284v-711h-373v621q0 80 -43 115.5t-127 35.5q-37 0 -65.5 -10t-34.5 -23v-28v-711h-373v621q0 80 -43 115.5t-127 35.5q-37 0 -65.5 -10t-34.5 -23v-739h-373z" />
<glyph unicode="n" horiz-adv-x="1282" d="M123 0v952q72 39 260 81t322 42q221 0 337.5 -81t116.5 -283v-711h-373v621q0 80 -43 115.5t-127 35.5q-39 0 -76.5 -11t-43.5 -22v-739h-373z" />
<glyph unicode="o" horiz-adv-x="1226" d="M61 528q0 297 135.5 426t413.5 129q276 0 415.5 -130t139.5 -425q0 -279 -142 -419t-413 -140q-549 0 -549 559zM430 528q0 -141 45 -204.5t135 -63.5q86 0 136.5 65.5t50.5 202.5q0 156 -47.5 212.5t-139.5 56.5q-63 0 -101 -21.5t-58.5 -80t-20.5 -167.5z" />
<glyph unicode="p" horiz-adv-x="1257" d="M123 -338v1147q0 131 144.5 202.5t381.5 71.5q269 0 408 -129t139 -436q0 -162 -54.5 -285.5t-155.5 -193.5t-236 -70q-74 0 -137.5 7.5t-125.5 46.5v-361h-364zM487 291q27 -14 65 -22.5t69 -8.5q71 0 115 22.5t67.5 82t23.5 167.5q0 129 -45 186.5t-149 57.5 q-86 0 -116 -15.5t-30 -43.5v-426z" />
<glyph unicode="q" horiz-adv-x="1259" d="M61 504q0 299 144.5 435t425.5 136q506 0 506 -309v-1145h-365v412q-57 -45 -116.5 -54.5t-125.5 -9.5q-225 0 -347 137.5t-122 397.5zM430 530q0 -270 207 -270q33 0 70.5 8t64.5 23v391q0 43 -38 65.5t-103 22.5q-201 0 -201 -240z" />
<glyph unicode="r" horiz-adv-x="921" d="M123 0v922q33 31 108.5 67.5t171 62t179.5 25.5q229 0 309 -65v-264q-41 12 -136.5 20t-174.5 8q-66 0 -84 -4v-772h-373z" />
<glyph unicode="s" horiz-adv-x="1009" d="M92 692q0 133 68 218t172 121q98 34 200 34h11q135 -6 214 -28.5t142 -65.5l2 -277q-14 8 -72.5 41t-116 51.5t-112.5 18.5q-70 0 -94.5 -18.5t-24.5 -51.5q0 -41 33 -58.5t109 -37.5q100 -23 160.5 -47.5t107.5 -90t47 -186.5q-6 -184 -142.5 -265t-357.5 -81 q-96 0 -167.5 18.5t-168.5 53.5v315q59 -49 157.5 -90t201.5 -41q55 0 72.5 14.5t17.5 41.5q0 33 -57.5 54t-157.5 38q-102 16 -173 96t-71 223z" />
<glyph unicode="t" horiz-adv-x="888" d="M51 766v276h139v283h394v-283h213v-276h-213v-430q0 -76 84 -76q29 0 65.5 14.5t63.5 36.5v-313q-88 -49 -205 -49q-402 0 -402 352v465h-139z" />
<glyph unicode="u" horiz-adv-x="1251" d="M123 403v639h373v-616q0 -76 33.5 -113t109.5 -37t109.5 37t33.5 113v616h346v-639q0 -223 -129 -328.5t-362 -105.5q-238 0 -376 106.5t-138 327.5z" />
<glyph unicode="v" horiz-adv-x="1318" d="M41 1042h403l238 -624l199 624h397l-432 -1042h-373z" />
<glyph unicode="w" horiz-adv-x="1720" d="M41 1042h403l146 -565l139 565h262l142 -581l147 581h399l-348 -1042h-330l-143 465l-137 -465h-330z" />
<glyph unicode="x" horiz-adv-x="1269" d="M31 0l391 504l-381 538h434l195 -274l180 274h389l-399 -514l374 -528h-436l-186 264l-172 -264h-389z" />
<glyph unicode="y" horiz-adv-x="1261" d="M41 1042h426l176 -612l174 612h404l-394 -1022q-86 -223 -192.5 -323t-237.5 -100q-133 0 -223 43v297q70 -25 135 -25q51 0 88 22.5t58 83.5z" />
<glyph unicode="z" horiz-adv-x="1040" d="M92 0v289l465 481h-455v272h846v-284l-395 -465h395v-293h-856z" />
<glyph unicode="{" horiz-adv-x="819" d="M92 485v238q0 -2 29 9t51.5 37t22.5 67v270q0 154 109.5 240t381.5 86h62v-328h-46q-66 0 -82 -34t-16 -101v-146q0 -94 -56 -147t-138 -72q82 -18 138 -71.5t56 -147.5v-145q0 -66 16.5 -101t81.5 -35h46v-327h-62q-272 0 -381.5 86t-109.5 239v271q0 41 -22.5 66.5 t-51.5 36.5t-29 9z" />
<glyph unicode="|" horiz-adv-x="1005" d="M379 -203v1569h270v-1569h-270z" />
<glyph unicode="}" horiz-adv-x="804" d="M92 104h45q66 0 82.5 35t16.5 101v145q0 94 56 147.5t138 71.5q-82 18 -138 71.5t-56 147.5v146q0 68 -16.5 101.5t-82.5 33.5h-45v328h62q272 0 381.5 -86t109.5 -240v-270q0 -41 22.5 -67t51.5 -37t29 -9v-238q0 2 -29 -9t-51.5 -36.5t-22.5 -66.5v-271 q0 -154 -109.5 -239.5t-381.5 -85.5h-62v327z" />
<glyph unicode="~" horiz-adv-x="1071" d="M201 457v186q66 76 149 76q39 0 79 -13.5t106 -41.5q63 -29 105 -43.5t83 -14.5q82 0 147 76v-186q-66 -76 -147 -76q-39 0 -79 13t-105 42q-63 29 -105.5 43t-83.5 14q-84 0 -149 -75z" />
<glyph unicode="&#xa1;" horiz-adv-x="882" d="M270 -344l45 975h265l45 -975h-355zM289 760v262h317v-262h-317z" />
<glyph unicode="&#xa2;" horiz-adv-x="1036" d="M61 694q0 227 111 373.5t309 187.5v195h271v-188q137 -20 219 -62v-313q-96 43 -155.5 63.5t-123.5 20.5q-115 0 -187.5 -56.5t-72.5 -169.5q0 -139 65.5 -207.5t215.5 -68.5q117 0 262 92v-309q-104 -63 -223 -80v-172h-271v180q-190 43 -305 179.5t-115 334.5z" />
<glyph unicode="&#xa3;" horiz-adv-x="1153" d="M100 -31v307q33 23 61.5 32t55.5 13.5t41 8.5v223h-158v268h158v168q0 102 44 191.5t141.5 145.5t248.5 56q162 0 346 -106v-328q-72 59 -134 89t-126 30q-73 0 -124.5 -35t-51.5 -104v-107h279v-268h-279v-231q102 -45 176 -46q61 0 123 24t137 75v-297 q-106 -98 -243 -98q-51 0 -104.5 10t-125.5 28q-143 39 -229 39q-133 0 -236 -88z" />
<glyph unicode="&#xa4;" horiz-adv-x="1007" d="M72 410l100 102q-47 84 -47 182q0 94 45 178l-98 103l149 149l103 -100q84 45 176 45q98 0 182 -47l104 102l150 -149l-105 -107q43 -86 43 -174q0 -90 -43 -176l105 -108l-150 -150l-108 105q-84 -45 -178 -46q-88 0 -174 43l-105 -102zM365 694q0 -63 37.5 -103 t95.5 -40q57 0 95 40t38 103t-38 104.5t-95 41.5t-95 -41t-38 -105z" />
<glyph unicode="&#xa5;" horiz-adv-x="1492" d="M37 1366h428l291 -520l291 520h428l-408 -594h137v-201h-272v-155h272v-201h-272v-215h-352v215h-273v201h273v155h-273v201h137z" />
<glyph unicode="&#xa6;" horiz-adv-x="1005" d="M379 -203v647h270v-647h-270zM379 719v647h270v-647h-270z" />
<glyph unicode="&#xa7;" horiz-adv-x="1247" d="M127 707q0 98 91 145t192 49q-27 2 -62 28.5t-60.5 67.5t-25.5 86q0 164 129 232.5t318 68.5q180 0 362 -104v-248q-90 51 -161.5 71.5t-149.5 20.5q-59 0 -114.5 -17t-55.5 -63q0 -27 39 -44t145 -54q162 -53 257 -117.5t95 -181.5q0 -86 -76.5 -123t-158.5 -41 q49 -27 74.5 -87t25.5 -122q0 -137 -119.5 -213.5t-328.5 -76.5q-213 0 -410 131v276q86 -78 172 -115.5t191 -37.5q66 0 120 17t54 58q0 25 -37 41.5t-127 44.5q-47 12 -123 39q-117 45 -186.5 106.5t-69.5 162.5zM453 715q0 -18 84 -53q55 -23 137 -50q12 -6 24.5 -9 t22.5 -7q37 0 57.5 10t20.5 27q0 23 -41 43t-109 41q-90 25 -112 35q-39 2 -61.5 -8.5t-22.5 -28.5z" />
<glyph unicode="&#xa8;" horiz-adv-x="919" d="M102 1139v223h308v-223h-308zM510 1139v223h307v-223h-307z" />
<glyph unicode="&#xa9;" horiz-adv-x="1593" d="M98 682q0 190 94.5 351t255 255t349.5 94q190 0 351 -94t255 -255t94 -351q0 -188 -94 -349t-255 -255t-351 -94q-189 0 -349.5 94t-255 255t-94.5 349zM227 682q0 -154 77 -285t208 -207.5t285 -76.5q155 0 286 76.5t208 207.5t77 285q0 156 -77 287t-208 207.5 t-286 76.5q-154 0 -285 -76.5t-208 -207.5t-77 -287zM430 684q0 229 108.5 318.5t266.5 89.5q117 0 258 -56v-178q-123 57 -246 57q-82 0 -131 -51t-49 -180q0 -131 49 -181t131 -50q123 0 246 57v-178q-139 -57 -258 -58q-158 0 -266.5 90.5t-108.5 319.5z" />
<glyph unicode="&#xaa;" horiz-adv-x="833" d="M133 971q0 172 201 172q92 0 127 -27q0 113 -78 113q-100 0 -195 -35v147q45 18 103.5 29.5t105.5 11.5q139 0 212 -63.5t73 -183.5v-166q0 -78 -26.5 -119t-87 -58.5t-169.5 -17.5q-266 0 -266 197zM350 977q0 -61 58 -62q57 0 57 43v64q-29 12 -53 12 q-25 0 -43.5 -17.5t-18.5 -39.5z" />
<glyph unicode="&#xab;" horiz-adv-x="1347" d="M70 522l346 389h338l-373 -389l373 -391h-338zM565 522l346 389h338l-372 -389l372 -391h-338z" />
<glyph unicode="&#xac;" horiz-adv-x="1300" d="M199 465v219h903v-389h-211v170h-692z" />
<glyph unicode="&#xad;" horiz-adv-x="1228" d="M162 514v240h624v-240h-624z" />
<glyph unicode="&#xae;" horiz-adv-x="1593" d="M100 682q0 190 94.5 351t255 255t349.5 94q190 0 351 -94t255 -255t94 -351q0 -188 -94 -349t-255 -255t-351 -94q-189 0 -349.5 94t-255 255t-94.5 349zM229 682q0 -154 77 -285t208 -207.5t285 -76.5q155 0 286.5 76.5t208 207.5t76.5 285q0 156 -76.5 287t-208 207.5 t-286.5 76.5q-154 0 -285 -76.5t-208 -207.5t-77 -287zM498 285v796h315q145 0 233.5 -67.5t88.5 -190.5q0 -94 -44 -155.5t-118 -83.5l192 -299h-229l-148 266h-83v-266h-207zM705 707h120q41 0 72 28.5t31 73.5q0 47 -31 76.5t-72 29.5h-120v-208z" />
<glyph unicode="&#xaf;" horiz-adv-x="806" d="M102 1110v229h603v-229h-603z" />
<glyph unicode="&#xb0;" horiz-adv-x="792" d="M168 1143q0 111 57.5 169t165.5 58q109 0 166 -58.5t57 -168.5q0 -109 -57 -167t-166 -58q-108 0 -165.5 58t-57.5 167zM293 1145q0 -57 23.5 -83t74.5 -26t73.5 25.5t22.5 83.5q0 57 -22.5 81.5t-73.5 24.5t-74.5 -24.5t-23.5 -81.5z" />
<glyph unicode="&#xb1;" horiz-adv-x="1198" d="M236 12v215h743v-215h-743zM236 608v230h258v258h229v-258h256v-230h-256v-256h-229v256h-258z" />
<glyph unicode="&#xb2;" horiz-adv-x="694" d="M88 948v150q6 4 70 47q104 72 159.5 126t55.5 119q0 53 -30 80t-71 27q-57 0 -93 -16.5t-87 -53.5v193q121 74 230 73q164 0 235.5 -67.5t71.5 -167.5q0 -84 -59.5 -156.5t-163.5 -122.5h227v-231h-545z" />
<glyph unicode="&#xb3;" horiz-adv-x="686" d="M82 999v182q12 -6 50 -30.5t66.5 -33.5t57.5 -9q49 0 79 21.5t30 54.5q0 35 -25 58t-86 23h-80v136h82q39 0 57.5 17t18.5 44t-30 41t-66 14q-61 0 -140 -39v160q100 53 201 53q111 0 203 -48t92 -154q0 -51 -36 -93t-79 -51q66 -18 106 -70.5t40 -121.5 q0 -119 -97.5 -167t-220.5 -48q-96 0 -223 61z" />
<glyph unicode="&#xb4;" horiz-adv-x="559" d="M129 1118l86 260h363l-252 -260h-197z" />
<glyph unicode="&#xb5;" horiz-adv-x="1325" d="M203 -430v1452h352v-657q0 -49 33 -81t139 -32q57 0 102 12v758h353v-913q-74 -37 -204 -80t-304 -43q-57 0 -119 10v-426h-352z" />
<glyph unicode="&#xb6;" horiz-adv-x="1083" d="M80 870q0 240 143.5 368t413.5 128h354v-1366h-274v371h-80q-270 0 -413.5 129t-143.5 370z" />
<glyph unicode="&#xb7;" horiz-adv-x="741" d="M215 420v282h295v-282h-295z" />
<glyph unicode="&#xb8;" horiz-adv-x="585" d="M86 -285l190 275h232l-96 -275h-326z" />
<glyph unicode="&#xb9;" horiz-adv-x="512" d="M35 1358v227l153 96h211v-735h-245v477z" />
<glyph unicode="&#xba;" horiz-adv-x="868" d="M152 1090q0 143 71.5 218.5t204.5 75.5q131 0 202.5 -75.5t71.5 -218.5q0 -141 -71.5 -217t-202.5 -76q-133 0 -204.5 75.5t-71.5 217.5zM348 1090q0 -150 80 -150q78 0 78 150q0 152 -78 151q-80 0 -80 -151z" />
<glyph unicode="&#xbb;" horiz-adv-x="1374" d="M106 131l373 391l-373 389h338l347 -389l-347 -391h-338zM602 131l373 391l-373 389h338l346 -389l-346 -391h-338z" />
<glyph unicode="&#xbc;" horiz-adv-x="1501" d="M35 1051v227l153 96h211v-735h-245v477zM123 -45l833 1448h254l-833 -1448h-254zM766 166v166l322 403h223v-387h88v-182h-88v-166h-225v166h-320zM967 348h119v156z" />
<glyph unicode="&#xbd;" horiz-adv-x="1554" d="M35 1051v227l153 96h211v-735h-245v477zM123 -45l833 1448h254l-833 -1448h-254zM907 0v150q6 4 70 47q104 72 159.5 126t55.5 119q0 53 -30 80t-71 27q-57 0 -93 -16.5t-87 -53.5v193q121 74 230 73q164 0 235.5 -67.5t71.5 -167.5q0 -84 -59.5 -156.5t-163.5 -122.5 h227v-231h-545z" />
<glyph unicode="&#xbe;" horiz-adv-x="1636" d="M82 719v182q12 -6 50 -30.5t66.5 -34t57.5 -9.5q49 0 79 21.5t30 54.5q0 35 -25 58.5t-86 23.5h-80v135h82q39 0 57.5 17.5t18.5 44.5t-30 41t-66 14q-61 0 -140 -39v160q100 53 201 53q111 0 203 -48t92 -155q0 -51 -36 -93t-79 -50q66 -18 106 -70.5t40 -122.5 q0 -119 -97.5 -167t-220.5 -48q-96 1 -223 62zM226 -45l833 1448h254l-833 -1448h-254zM901 166v166l322 403h223v-387h88v-182h-88v-166h-225v166h-320zM1102 348h119v156z" />
<glyph unicode="&#xbf;" horiz-adv-x="1075" d="M164 37q0 100 39 161.5t116 133.5q74 70 111 127t37 149v21h281v-27q0 -102 -28 -176t-67 -120t-98 -99q-57 -53 -83 -89t-26 -83q0 -86 51.5 -112.5t135.5 -26.5q78 0 162 26.5t145 75.5v-262q-59 -41 -155.5 -68.5t-196.5 -27.5q-221 0 -322.5 114.5t-101.5 282.5z M449 760v262h317v-262h-317z" />
<glyph unicode="&#xc0;" horiz-adv-x="1458" d="M20 0l504 1366h455l459 -1366h-420l-76 240h-469l-74 -240h-379zM430 1687h322l86 -225h-197zM563 526h287l-145 453z" />
<glyph unicode="&#xc1;" horiz-adv-x="1458" d="M20 0l504 1366h455l459 -1366h-420l-76 240h-469l-74 -240h-379zM563 526h287l-145 453zM631 1462l57 230h391l-272 -230h-176z" />
<glyph unicode="&#xc2;" horiz-adv-x="1458" d="M20 0l504 1366h455l459 -1366h-420l-76 240h-469l-74 -240h-379zM393 1446l184 250h303l185 -250h-250l-86 110l-86 -110h-250zM563 526h287l-145 453z" />
<glyph unicode="&#xc3;" horiz-adv-x="1458" d="M20 0l504 1366h455l459 -1366h-420l-76 240h-469l-74 -240h-379zM332 1466q0 82 33 155t93.5 116t139.5 43q51 0 94.5 -19.5t96.5 -56.5q41 -29 71.5 -43t61.5 -14q78 0 78 129h166q0 -96 -36 -167t-94.5 -108t-123.5 -37q-80 0 -129 22.5t-107 63.5q-31 25 -50 36 t-44 11q-47 0 -67.5 -39.5t-20.5 -91.5h-162zM563 526h287l-145 453z" />
<glyph unicode="&#xc4;" horiz-adv-x="1458" d="M20 0l504 1366h455l459 -1366h-420l-76 240h-469l-74 -240h-379zM362 1422v223h308v-223h-308zM563 526h287l-145 453zM770 1422v223h307v-223h-307z" />
<glyph unicode="&#xc5;" horiz-adv-x="1458" d="M20 0l504 1366h455l459 -1366h-420l-76 240h-469l-74 -240h-379zM465 1581q0 92 69.5 144.5t190.5 52.5q123 0 191.5 -52.5t68.5 -144.5q0 -94 -68.5 -145.5t-191.5 -51.5t-191.5 51.5t-68.5 145.5zM563 526h287l-145 453zM633 1581q0 -37 20.5 -50.5t71.5 -13.5 t71.5 13.5t20.5 50.5q0 35 -21.5 49t-70.5 14t-70.5 -14t-21.5 -49z" />
<glyph unicode="&#xc6;" horiz-adv-x="2168" d="M20 0l961 1366h1065v-307h-543v-211h463v-309h-463v-230h543v-309h-952v246h-461l-156 -246h-457zM809 524h285v449z" />
<glyph unicode="&#xc7;" horiz-adv-x="1296" d="M61 682q0 358 170 538.5t521 180.5q209 0 442 -101v-350q-205 143 -385 144q-158 0 -241 -92.5t-83 -321.5q0 -225 85 -314.5t259 -89.5q70 0 164 34t201 106v-350q-61 -33 -154.5 -56.5t-189.5 -34.5l-82 -235h-326l166 237q-547 70 -547 705z" />
<glyph unicode="&#xc8;" horiz-adv-x="1224" d="M133 0v1366h969v-307h-557v-221h477v-308h-479v-223h559v-307h-969zM319 1687h322l86 -225h-197z" />
<glyph unicode="&#xc9;" horiz-adv-x="1224" d="M133 0v1366h969v-307h-557v-221h477v-308h-479v-223h559v-307h-969zM521 1462l57 230h391l-272 -230h-176z" />
<glyph unicode="&#xca;" horiz-adv-x="1224" d="M133 0v1366h969v-307h-557v-221h477v-308h-479v-223h559v-307h-969zM283 1446l184 250h303l185 -250h-250l-86 110l-86 -110h-250z" />
<glyph unicode="&#xcb;" horiz-adv-x="1224" d="M133 0v1366h969v-307h-557v-221h477v-308h-479v-223h559v-307h-969zM252 1422v223h308v-223h-308zM660 1422v223h307v-223h-307z" />
<glyph unicode="&#xcc;" horiz-adv-x="677" d="M55 1687h322l86 -225h-197zM133 0v1366h412v-1366h-412z" />
<glyph unicode="&#xcd;" horiz-adv-x="677" d="M133 0v1366h412v-1366h-412zM256 1462l57 230h391l-272 -230h-176z" />
<glyph unicode="&#xce;" horiz-adv-x="677" d="M19 1446l184 250h303l185 -250h-250l-86 110l-86 -110h-250zM133 0v1366h412v-1366h-412z" />
<glyph unicode="&#xcf;" horiz-adv-x="677" d="M-13 1422v223h308v-223h-308zM133 0v1366h412v-1366h-412zM395 1422v223h307v-223h-307z" />
<glyph unicode="&#xd0;" horiz-adv-x="1495" d="M10 573v222h123v571h600q357 0 523.5 -171t166.5 -513q0 -340 -168 -511t-522 -171h-600v573h-123zM543 307h139q156 0 239 92.5t83 282.5q0 377 -322 377h-139v-264h131v-222h-131v-266z" />
<glyph unicode="&#xd1;" horiz-adv-x="1484" d="M133 0v1366h332l514 -672v672h373v-1366h-287l-559 698v-698h-373zM346 1466q0 82 33 155t93.5 116t139.5 43q51 0 94.5 -19.5t96.5 -56.5q41 -29 71.5 -43t61.5 -14q78 0 78 129h166q0 -96 -36 -167t-94.5 -108t-123.5 -37q-80 0 -129 22.5t-107 63.5q-31 25 -50 36 t-44 11q-47 0 -67.5 -39.5t-20.5 -91.5h-162z" />
<glyph unicode="&#xd2;" d="M72 682q0 348 181 531.5t509 183.5q317 0 503.5 -178.5t186.5 -534.5q0 -348 -181 -531.5t-509 -183.5q-318 0 -504 178.5t-186 534.5zM463 1749h322l86 -225h-197zM496 680q0 -209 68.5 -296t197.5 -87t197.5 89t68.5 300q0 209 -68.5 296t-197.5 87t-197.5 -89 t-68.5 -300z" />
<glyph unicode="&#xd3;" d="M72 682q0 348 181 531.5t509 183.5q317 0 503.5 -178.5t186.5 -534.5q0 -348 -181 -531.5t-509 -183.5q-318 0 -504 178.5t-186 534.5zM496 680q0 -209 68.5 -296t197.5 -87t197.5 89t68.5 300q0 209 -68.5 296t-197.5 87t-197.5 -89t-68.5 -300zM664 1524l57 230h391 l-272 -230h-176z" />
<glyph unicode="&#xd4;" d="M72 682q0 348 181 531.5t509 183.5q317 0 503.5 -178.5t186.5 -534.5q0 -348 -181 -531.5t-509 -183.5q-318 0 -504 178.5t-186 534.5zM426 1507l184 250h303l185 -250h-250l-86 110l-86 -110h-250zM496 680q0 -209 68.5 -296t197.5 -87t197.5 89t68.5 300 q0 209 -68.5 296t-197.5 87t-197.5 -89t-68.5 -300z" />
<glyph unicode="&#xd5;" d="M72 682q0 348 181 531.5t509 183.5q317 0 503.5 -178.5t186.5 -534.5q0 -348 -181 -531.5t-509 -183.5q-318 0 -504 178.5t-186 534.5zM364 1528q0 82 33 155t93.5 116t139.5 43q51 0 94.5 -19.5t96.5 -56.5q41 -29 71.5 -43t61.5 -14q78 0 78 129h166q0 -96 -36 -167 t-94.5 -108t-123.5 -37q-80 0 -129 22.5t-107 63.5q-31 25 -50 36t-44 11q-47 0 -67.5 -39.5t-20.5 -91.5h-162zM496 680q0 -209 68.5 -296t197.5 -87t197.5 89t68.5 300q0 209 -68.5 296t-197.5 87t-197.5 -89t-68.5 -300z" />
<glyph unicode="&#xd6;" d="M72 682q0 348 181 531.5t509 183.5q317 0 503.5 -178.5t186.5 -534.5q0 -348 -181 -531.5t-509 -183.5q-318 0 -504 178.5t-186 534.5zM395 1483v223h308v-223h-308zM496 680q0 -209 68.5 -296t197.5 -87t197.5 89t68.5 300q0 209 -68.5 296t-197.5 87t-197.5 -89 t-68.5 -300zM803 1483v223h307v-223h-307z" />
<glyph unicode="&#xd7;" horiz-adv-x="1093" d="M147 154l287 370l-284 371h225l174 -223l176 223h223l-284 -371l284 -370h-223l-176 223l-174 -223h-228z" />
<glyph unicode="&#xd8;" d="M20 0l185 207q-133 182 -133 475q0 348 181 531.5t509 183.5q246 0 412 -105l65 72h256l-180 -201q137 -178 137 -479q0 -348 -181 -531.5t-509 -183.5q-252 0 -418 109l-70 -78h-254zM496 680q0 -71 10 -137l422 473q-59 53 -166 53q-129 0 -197.5 -89t-68.5 -300z M592 354q59 -57 170 -57q129 0 197.5 89t68.5 300q0 75 -10 143z" />
<glyph unicode="&#xd9;" horiz-adv-x="1515" d="M133 489v877h430v-852q0 -133 50.5 -195.5t164.5 -62.5q102 0 158.5 65.5t56.5 192.5v852h389v-877q0 -274 -157.5 -407t-423.5 -133q-344 0 -506 128t-162 412zM459 1708h322l86 -225h-197z" />
<glyph unicode="&#xda;" horiz-adv-x="1515" d="M133 489v877h430v-852q0 -133 50.5 -195.5t164.5 -62.5q102 0 158.5 65.5t56.5 192.5v852h389v-877q0 -274 -157.5 -407t-423.5 -133q-344 0 -506 128t-162 412zM660 1483l57 230h391l-272 -230h-176z" />
<glyph unicode="&#xdb;" horiz-adv-x="1515" d="M133 489v877h430v-852q0 -133 50.5 -195.5t164.5 -62.5q102 0 158.5 65.5t56.5 192.5v852h389v-877q0 -274 -157.5 -407t-423.5 -133q-344 0 -506 128t-162 412zM422 1467l184 250h303l185 -250h-250l-86 110l-86 -110h-250z" />
<glyph unicode="&#xdc;" horiz-adv-x="1515" d="M133 489v877h430v-852q0 -133 50.5 -195.5t164.5 -62.5q102 0 158.5 65.5t56.5 192.5v852h389v-877q0 -274 -157.5 -407t-423.5 -133q-344 0 -506 128t-162 412zM391 1442v223h308v-223h-308zM799 1442v223h307v-223h-307z" />
<glyph unicode="&#xdd;" horiz-adv-x="1499" d="M51 1366h506l266 -473l230 473h395l-465 -795v-571h-410v575zM719 1462l57 230h391l-272 -230h-176z" />
<glyph unicode="&#xde;" horiz-adv-x="1337" d="M176 0v1366h352v-203h177q248 0 385 -126t137 -353q0 -229 -137.5 -355t-384.5 -126h-177v-203h-352zM528 494h144q106 0 155.5 56t49.5 134q0 76 -49.5 134.5t-155.5 58.5h-144v-383z" />
<glyph unicode="&#xdf;" horiz-adv-x="1343" d="M123 0v905q0 156 64.5 279t186.5 192.5t290 69.5q170 0 299 -45t198.5 -122t69.5 -169q0 -127 -87 -204t-179 -105q135 -39 226 -130t91 -274q0 -193 -117.5 -311.5t-339.5 -118.5q-117 0 -243 35v297q96 -59 192 -59q61 0 97 44t36 128q0 96 -60.5 134t-162.5 42v295 q160 0 160 129q0 55 -41 92t-115 37q-86 0 -138 -59.5t-52 -172.5v-909h-375z" />
<glyph unicode="&#xe0;" horiz-adv-x="1185" d="M61 342q0 135 90.5 220t276.5 85q68 0 140.5 -19.5t127.5 -49.5v40q0 158 -215 158q-90 0 -183 -34.5t-146 -79.5v323q53 35 170.5 63.5t261.5 28.5q174 0 327.5 -74.5t151.5 -302.5l-2 -485q-4 -246 -518 -246q-231 0 -356.5 85t-125.5 288zM231 1439h363l86 -260h-197z M430 324q0 -39 34 -71t79 -32q92 0 122.5 11.5t30.5 43.5v127q-45 14 -104 15q-88 0 -125 -21.5t-37 -72.5z" />
<glyph unicode="&#xe1;" horiz-adv-x="1185" d="M61 342q0 135 90.5 220t276.5 85q68 0 140.5 -19.5t127.5 -49.5v40q0 158 -215 158q-90 0 -183 -34.5t-146 -79.5v323q53 35 170.5 63.5t261.5 28.5q174 0 327.5 -74.5t151.5 -302.5l-2 -485q-4 -246 -518 -246q-231 0 -356.5 85t-125.5 288zM430 324q0 -39 34 -71 t79 -32q92 0 122.5 11.5t30.5 43.5v127q-45 14 -104 15q-88 0 -125 -21.5t-37 -72.5zM461 1179l86 260h363l-252 -260h-197z" />
<glyph unicode="&#xe2;" horiz-adv-x="1185" d="M61 342q0 135 90.5 220t276.5 85q68 0 140.5 -19.5t127.5 -49.5v40q0 158 -215 158q-90 0 -183 -34.5t-146 -79.5v323q53 35 170.5 63.5t261.5 28.5q174 0 327.5 -74.5t151.5 -302.5l-2 -485q-4 -246 -518 -246q-231 0 -356.5 85t-125.5 288zM260 1196l184 250h303 l184 -250h-249l-86 111l-86 -111h-250zM430 324q0 -39 34 -71t79 -32q92 0 122.5 11.5t30.5 43.5v127q-45 14 -104 15q-88 0 -125 -21.5t-37 -72.5z" />
<glyph unicode="&#xe3;" horiz-adv-x="1185" d="M61 342q0 135 90.5 220t276.5 85q68 0 140.5 -19.5t127.5 -49.5v40q0 158 -215 158q-90 0 -183 -34.5t-146 -79.5v323q53 35 170.5 63.5t261.5 28.5q174 0 327.5 -74.5t151.5 -302.5l-2 -485q-4 -246 -518 -246q-231 0 -356.5 85t-125.5 288zM178 1177q0 82 33 154.5 t93.5 116t139.5 43.5q51 0 94.5 -19.5t96.5 -56.5q41 -29 71.5 -43.5t61.5 -14.5q78 0 78 129h166q0 -96 -36 -166.5t-94.5 -107.5t-123.5 -37q-80 0 -129 22.5t-107 63.5q-31 25 -50 36t-44 11q-47 0 -67.5 -40t-20.5 -91h-162zM430 324q0 -39 34 -71t79 -32 q92 0 122.5 11.5t30.5 43.5v127q-45 14 -104 15q-88 0 -125 -21.5t-37 -72.5z" />
<glyph unicode="&#xe4;" horiz-adv-x="1185" d="M61 342q0 135 90.5 220t276.5 85q68 0 140.5 -19.5t127.5 -49.5v40q0 158 -215 158q-90 0 -183 -34.5t-146 -79.5v323q53 35 170.5 63.5t261.5 28.5q174 0 327.5 -74.5t151.5 -302.5l-2 -485q-4 -246 -518 -246q-231 0 -356.5 85t-125.5 288zM239 1200v223h308v-223h-308 zM430 324q0 -39 34 -71t79 -32q92 0 122.5 11.5t30.5 43.5v127q-45 14 -104 15q-88 0 -125 -21.5t-37 -72.5zM647 1200v223h307v-223h-307z" />
<glyph unicode="&#xe5;" horiz-adv-x="1185" d="M61 342q0 135 90.5 220t276.5 85q68 0 140.5 -19.5t127.5 -49.5v40q0 158 -215 158q-90 0 -183 -34.5t-146 -79.5v323q53 35 170.5 63.5t261.5 28.5q174 0 327.5 -74.5t151.5 -302.5l-2 -485q-4 -246 -518 -246q-231 0 -356.5 85t-125.5 288zM316 1353q0 92 69.5 144.5 t190.5 52.5q123 0 191.5 -52.5t68.5 -144.5q0 -94 -68.5 -145t-191.5 -51t-191.5 51t-68.5 145zM430 324q0 -39 34 -71t79 -32q92 0 122.5 11.5t30.5 43.5v127q-45 14 -104 15q-88 0 -125 -21.5t-37 -72.5zM484 1353q0 -37 20.5 -50t71.5 -13t71.5 13t20.5 50 q0 35 -21.5 49.5t-70.5 14.5t-70.5 -14.5t-21.5 -49.5z" />
<glyph unicode="&#xe6;" horiz-adv-x="1798" d="M61 324q0 137 91.5 230t275.5 93q68 0 140.5 -19.5t127.5 -49.5v34q0 158 -215 158q-90 0 -183 -35t-146 -80v330q53 35 170.5 63.5t261.5 28.5q215 0 340 -84q129 82 319 82q256 0 376 -163.5t118 -493.5h-676q2 -86 66.5 -125t213.5 -39q68 0 148 28.5t135 63.5v-309 q-74 -45 -166 -66.5t-217 -21.5q-113 0 -209 31.5t-170 87.5q-188 -117 -381 -117q-188 0 -304 86t-116 287zM430 305q0 -41 35 -71.5t94 -30.5q109 0 172 22q-35 74 -35 148v30q-45 14 -104 15q-162 0 -162 -113zM1071 637h299q-12 90 -46 127t-99 37q-54 0 -97 -41 t-57 -123z" />
<glyph unicode="&#xe7;" horiz-adv-x="1036" d="M61 500q0 268 152 421.5t416 153.5q88 0 182 -18.5t160 -50.5v-314q-96 43 -155.5 63.5t-123.5 20.5q-115 0 -187.5 -56t-72.5 -169q0 -139 65.5 -208t215.5 -69q117 0 262 93v-310q-109 -66 -234 -82l-92 -260h-325l184 265q-201 37 -324 176t-123 344z" />
<glyph unicode="&#xe8;" horiz-adv-x="1163" d="M61 500q0 276 141.5 429.5t405.5 153.5q256 0 376 -164.5t118 -500.5h-649q49 -143 260 -144q84 0 231 56l51 16v-309q-176 -68 -383 -68q-162 0 -286.5 65.5t-194.5 186.5t-70 279zM252 1419h363l86 -260h-197zM438 637h297q-12 94 -46 133t-99 39q-53 0 -95 -42 t-57 -130z" />
<glyph unicode="&#xe9;" horiz-adv-x="1163" d="M61 500q0 276 141.5 429.5t405.5 153.5q256 0 376 -164.5t118 -500.5h-649q49 -143 260 -144q84 0 231 56l51 16v-309q-176 -68 -383 -68q-162 0 -286.5 65.5t-194.5 186.5t-70 279zM438 637h297q-12 94 -46 133t-99 39q-53 0 -95 -42t-57 -130zM481 1159l86 260h363 l-252 -260h-197z" />
<glyph unicode="&#xea;" horiz-adv-x="1163" d="M61 500q0 276 141.5 429.5t405.5 153.5q256 0 376 -164.5t118 -500.5h-649q49 -143 260 -144q84 0 231 56l51 16v-309q-176 -68 -383 -68q-162 0 -286.5 65.5t-194.5 186.5t-70 279zM281 1175l184 250h303l184 -250h-249l-86 111l-86 -111h-250zM438 637h297 q-12 94 -46 133t-99 39q-53 0 -95 -42t-57 -130z" />
<glyph unicode="&#xeb;" horiz-adv-x="1163" d="M61 500q0 276 141.5 429.5t405.5 153.5q256 0 376 -164.5t118 -500.5h-649q49 -143 260 -144q84 0 231 56l51 16v-309q-176 -68 -383 -68q-162 0 -286.5 65.5t-194.5 186.5t-70 279zM260 1180v223h308v-223h-308zM438 637h297q-12 94 -46 133t-99 39q-53 0 -95 -42 t-57 -130zM668 1180v223h307v-223h-307z" />
<glyph unicode="&#xec;" horiz-adv-x="735" d="M92 1393h240l127 -240h-176zM197 0v1022h352v-1022h-352z" />
<glyph unicode="&#xed;" horiz-adv-x="735" d="M197 0v1022h352v-1022h-352zM287 1139l127 239h239l-190 -239h-176z" />
<glyph unicode="&#xee;" horiz-adv-x="735" d="M78 1139l246 250h98l246 -250h-209l-86 90l-86 -90h-209zM197 0v1022h352v-1022h-352z" />
<glyph unicode="&#xef;" horiz-adv-x="735" d="M76 1139v223h246v-223h-246zM197 0v1022h352v-1022h-352zM424 1139v223h246v-223h-246z" />
<glyph unicode="&#xf0;" horiz-adv-x="1206" d="M61 516q0 266 107.5 412.5t296.5 146.5q182 0 274 -104q-33 104 -86 184l-237 -47l-51 197l122 22q-37 29 -143 92v15h424q33 -20 66 -48l249 46l62 -179l-164 -32q145 -229 145 -588q0 -354 -126 -519t-390 -165q-276 0 -412.5 137t-136.5 430zM430 516q0 -156 44 -216 t136 -60q66 0 102 43t50 137t14 258q0 51 -2 74q-74 90 -164 90q-88 0 -134 -83t-46 -243z" />
<glyph unicode="&#xf1;" horiz-adv-x="1282" d="M123 0v952q72 39 260 81t322 42q221 0 337.5 -81t116.5 -283v-711h-373v621q0 80 -43 115.5t-127 35.5q-39 0 -76.5 -11t-43.5 -22v-739h-373zM239 1157q0 82 33 154.5t93.5 116t139.5 43.5q51 0 94.5 -19.5t96.5 -56.5q41 -29 71.5 -43.5t61.5 -14.5q78 0 78 129h166 q0 -96 -36 -166.5t-94.5 -107.5t-123.5 -37q-80 0 -129 22.5t-107 63.5q-31 25 -50 36t-44 11q-47 0 -67.5 -40t-20.5 -91h-162z" />
<glyph unicode="&#xf2;" horiz-adv-x="1226" d="M61 528q0 297 135.5 426t413.5 129q276 0 415.5 -130t139.5 -425q0 -279 -142 -419t-413 -140q-549 0 -549 559zM270 1439h363l86 -260h-197zM430 528q0 -141 45 -204.5t135 -63.5q86 0 136.5 65.5t50.5 202.5q0 156 -47.5 212.5t-139.5 56.5q-63 0 -101 -21.5t-58.5 -80 t-20.5 -167.5z" />
<glyph unicode="&#xf3;" horiz-adv-x="1226" d="M61 528q0 297 135.5 426t413.5 129q276 0 415.5 -130t139.5 -425q0 -279 -142 -419t-413 -140q-549 0 -549 559zM430 528q0 -141 45 -204.5t135 -63.5q86 0 136.5 65.5t50.5 202.5q0 156 -47.5 212.5t-139.5 56.5q-63 0 -101 -21.5t-58.5 -80t-20.5 -167.5zM500 1179 l86 260h363l-252 -260h-197z" />
<glyph unicode="&#xf4;" horiz-adv-x="1226" d="M61 528q0 297 135.5 426t413.5 129q276 0 415.5 -130t139.5 -425q0 -279 -142 -419t-413 -140q-549 0 -549 559zM299 1196l184 250h303l184 -250h-249l-86 111l-86 -111h-250zM430 528q0 -141 45 -204.5t135 -63.5q86 0 136.5 65.5t50.5 202.5q0 156 -47.5 212.5 t-139.5 56.5q-63 0 -101 -21.5t-58.5 -80t-20.5 -167.5z" />
<glyph unicode="&#xf5;" horiz-adv-x="1226" d="M61 528q0 297 135.5 426t413.5 129q276 0 415.5 -130t139.5 -425q0 -279 -142 -419t-413 -140q-549 0 -549 559zM217 1177q0 82 33 154.5t93.5 116t139.5 43.5q51 0 94.5 -19.5t96.5 -56.5q41 -29 71.5 -43.5t61.5 -14.5q78 0 78 129h166q0 -96 -36 -166.5t-94.5 -107.5 t-123.5 -37q-80 0 -129 22.5t-107 63.5q-31 25 -50 36t-44 11q-47 0 -67.5 -40t-20.5 -91h-162zM430 528q0 -141 45 -204.5t135 -63.5q86 0 136.5 65.5t50.5 202.5q0 156 -47.5 212.5t-139.5 56.5q-63 0 -101 -21.5t-58.5 -80t-20.5 -167.5z" />
<glyph unicode="&#xf6;" horiz-adv-x="1226" d="M61 528q0 297 135.5 426t413.5 129q276 0 415.5 -130t139.5 -425q0 -279 -142 -419t-413 -140q-549 0 -549 559zM278 1200v223h308v-223h-308zM430 528q0 -141 45 -204.5t135 -63.5q86 0 136.5 65.5t50.5 202.5q0 156 -47.5 212.5t-139.5 56.5q-63 0 -101 -21.5 t-58.5 -80t-20.5 -167.5zM686 1200v223h307v-223h-307z" />
<glyph unicode="&#xf7;" horiz-adv-x="1286" d="M188 418v231h916v-231h-916zM520 47v240h252v-240h-252zM520 782v240h252v-240h-252z" />
<glyph unicode="&#xf8;" horiz-adv-x="1255" d="M23 0l135 158q-96 137 -97 370q0 297 135.5 426t413.5 129q197 0 318 -61h301l-135 -158q72 -127 71 -336q0 -279 -142 -419t-413 -140q-147 0 -252 39l-8 -8h-327zM430 528q0 -35 2 -51l262 305q-35 14 -84 15q-63 0 -101 -21.5t-58.5 -80t-20.5 -167.5zM575 262 q12 -2 35 -2q84 0 134.5 63.5t52.5 196.5z" />
<glyph unicode="&#xf9;" horiz-adv-x="1251" d="M123 403v639h373v-616q0 -76 33.5 -113t109.5 -37t109.5 37t33.5 113v616h346v-639q0 -223 -129 -328.5t-362 -105.5q-238 0 -376 106.5t-138 327.5zM303 1419h363l86 -260h-197z" />
<glyph unicode="&#xfa;" horiz-adv-x="1251" d="M123 403v639h373v-616q0 -76 33.5 -113t109.5 -37t109.5 37t33.5 113v616h346v-639q0 -223 -129 -328.5t-362 -105.5q-238 0 -376 106.5t-138 327.5zM532 1159l86 260h363l-252 -260h-197z" />
<glyph unicode="&#xfb;" horiz-adv-x="1251" d="M123 403v639h373v-616q0 -76 33.5 -113t109.5 -37t109.5 37t33.5 113v616h346v-639q0 -223 -129 -328.5t-362 -105.5q-238 0 -376 106.5t-138 327.5zM332 1175l184 250h303l184 -250h-249l-86 111l-86 -111h-250z" />
<glyph unicode="&#xfc;" horiz-adv-x="1251" d="M123 403v639h373v-616q0 -76 33.5 -113t109.5 -37t109.5 37t33.5 113v616h346v-639q0 -223 -129 -328.5t-362 -105.5q-238 0 -376 106.5t-138 327.5zM311 1180v223h308v-223h-308zM719 1180v223h307v-223h-307z" />
<glyph unicode="&#xfd;" horiz-adv-x="1261" d="M41 1042h426l176 -612l174 612h404l-394 -1022q-86 -223 -192.5 -323t-237.5 -100q-133 0 -223 43v297q70 -25 135 -25q51 0 88 22.5t58 83.5zM516 1118l86 260h363l-252 -260h-197z" />
<glyph unicode="&#xfe;" horiz-adv-x="1241" d="M123 -365v1799h369v-412q90 12 161 12q254 0 390.5 -129t136.5 -428q0 -152 -54.5 -271.5t-156 -188t-236.5 -68.5q-70 0 -127 7t-114 44v-365h-369zM492 270q27 -14 64.5 -22t68.5 -8q92 0 139 54t47 198q0 123 -42 179t-132 56q-31 0 -72 -7t-73 -22v-428z" />
<glyph unicode="&#xff;" horiz-adv-x="1261" d="M41 1042h426l176 -612l174 612h404l-394 -1022q-86 -223 -192.5 -323t-237.5 -100q-133 0 -223 43v297q70 -25 135 -25q51 0 88 22.5t58 83.5zM295 1139v223h308v-223h-308zM703 1139v223h307v-223h-307z" />
<glyph unicode="&#x152;" horiz-adv-x="2125" d="M72 682q0 348 181 531.5t509 183.5q154 0 272 -39v8h969v-307h-557v-221h477v-308h-479v-223h559v-307h-969v8q-127 -39 -272 -39q-317 0 -503.5 178.5t-186.5 534.5zM496 680q0 -209 68.5 -296t197.5 -87t197.5 89t68.5 300q0 209 -68.5 296t-197.5 87t-197.5 -89 t-68.5 -300z" />
<glyph unicode="&#x153;" horiz-adv-x="1902" d="M61 528q0 297 135.5 426t413.5 129q254 0 387 -104q135 104 351 104q256 0 375.5 -164.5t117.5 -500.5h-649q49 -143 260 -144q84 0 231 56l52 16v-309q-176 -68 -383 -68q-213 0 -361 113q-137 -113 -381 -113q-549 0 -549 559zM430 528q0 -141 45 -204.5t135 -63.5 q86 0 136.5 65.5t50.5 202.5q0 156 -47.5 212.5t-139.5 56.5q-63 0 -101 -21.5t-58.5 -80t-20.5 -167.5zM1178 637h297q-12 94 -46 133t-100 39q-53 0 -95 -42t-56 -130z" />
<glyph unicode="&#x178;" horiz-adv-x="1499" d="M51 1366h506l266 -473l230 473h395l-465 -795v-571h-410v575zM450 1422v223h308v-223h-308zM858 1422v223h307v-223h-307z" />
<glyph unicode="&#x2c6;" horiz-adv-x="874" d="M117 1155l184 250h303l184 -250h-249l-86 111l-86 -111h-250z" />
<glyph unicode="&#x2dc;" horiz-adv-x="1058" d="M129 1075q0 82 33 155t93 116t140 43q51 0 94 -19.5t97 -56.5q41 -29 71.5 -43.5t61.5 -14.5q78 0 78 129h166q0 -96 -36 -166.5t-94.5 -107.5t-123.5 -37q-80 0 -129.5 22.5t-106.5 63.5q-31 25 -50.5 36t-43.5 11q-47 0 -67.5 -40t-20.5 -91h-162z" />
<glyph unicode="&#x2000;" horiz-adv-x="921" />
<glyph unicode="&#x2001;" horiz-adv-x="1842" />
<glyph unicode="&#x2002;" horiz-adv-x="921" />
<glyph unicode="&#x2003;" horiz-adv-x="1842" />
<glyph unicode="&#x2004;" horiz-adv-x="614" />
<glyph unicode="&#x2005;" horiz-adv-x="460" />
<glyph unicode="&#x2006;" horiz-adv-x="307" />
<glyph unicode="&#x2007;" horiz-adv-x="307" />
<glyph unicode="&#x2008;" horiz-adv-x="230" />
<glyph unicode="&#x2009;" horiz-adv-x="368" />
<glyph unicode="&#x200a;" horiz-adv-x="102" />
<glyph unicode="&#x2010;" horiz-adv-x="950" d="M162 514v240h624v-240h-624z" />
<glyph unicode="&#x2011;" horiz-adv-x="950" d="M162 514v240h624v-240h-624z" />
<glyph unicode="&#x2012;" horiz-adv-x="950" d="M162 514v240h624v-240h-624z" />
<glyph unicode="&#x2013;" horiz-adv-x="1146" d="M141 475v240h860v-240h-860z" />
<glyph unicode="&#x2014;" horiz-adv-x="1824" d="M162 475v240h1501v-240h-1501z" />
<glyph unicode="&#x2018;" horiz-adv-x="616" d="M96 1384h285l151 -401h-239z" />
<glyph unicode="&#x2019;" horiz-adv-x="616" d="M96 983l152 401h284l-196 -401h-240z" />
<glyph unicode="&#x201a;" horiz-adv-x="698" d="M147 -229l152 401h285l-197 -401h-240z" />
<glyph unicode="&#x201c;" horiz-adv-x="980" d="M98 1384h285l152 -401h-240zM455 1384h284l152 -401h-240z" />
<glyph unicode="&#x201d;" horiz-adv-x="980" d="M98 983l152 401h285l-197 -401h-240zM455 983l151 401h285l-197 -401h-239z" />
<glyph unicode="&#x201e;" horiz-adv-x="1056" d="M147 -229l152 401h285l-197 -401h-240zM504 -229l151 401h285l-197 -401h-239z" />
<glyph unicode="&#x2022;" horiz-adv-x="1085" d="M172 666q0 102 50 187t136 134t187 49q100 0 185 -49t134 -134t49 -187t-49 -187.5t-134 -134.5t-185 -49q-101 0 -187 49t-136 134t-50 188z" />
<glyph unicode="&#x2026;" horiz-adv-x="1849" d="M219 0v283h295v-283h-295zM780 0v283h295v-283h-295zM1343 0v283h295v-283h-295z" />
<glyph unicode="&#x202f;" horiz-adv-x="368" />
<glyph unicode="&#x2039;" horiz-adv-x="819" d="M63 522l347 389h338l-373 -389l373 -391h-338z" />
<glyph unicode="&#x203a;" horiz-adv-x="843" d="M80 131l373 391l-373 389h338l346 -389l-346 -391h-338z" />
<glyph unicode="&#x205f;" horiz-adv-x="460" />
<glyph unicode="&#x20ac;" horiz-adv-x="1466" d="M98 408v190h166q-2 27 -2 86t2 88h-166v191h197q63 231 230 325t378 94q199 0 438 -96v-305q-111 53 -210 75.5t-207 22.5q-174 0 -248 -116h397v-191h-455q-4 -53 -4 -88q0 -33 4 -86h455v-190h-397q74 -119 248 -119q109 0 208 22.5t209 75.5v-305q-240 -96 -438 -96 q-213 0 -379 94t-229 328h-197z" />
<glyph unicode="&#x2122;" horiz-adv-x="1581" d="M100 1206v160h572v-160h-199v-522h-176v522h-197zM772 684v682h174l160 -233l160 233h174v-682h-176v422l-158 -227l-158 227v-422h-176z" />
<glyph unicode="&#x25fc;" horiz-adv-x="1044" d="M0 0v1044h1044v-1044h-1044z" />
</font>
</defs>
</svg>
