<?xml version="1.0" standalone="no"?>
<!DOCTYPE svg PUBLIC "-//W3C//DTD SVG 1.1//EN" "http://www.w3.org/Graphics/SVG/1.1/DTD/svg11.dtd" >
<svg xmlns="http://www.w3.org/2000/svg" xmlns:xlink="http://www.w3.org/1999/xlink" version="1.1">
<metadata></metadata>
<defs>
<font id="maven_probold" horiz-adv-x="1509" >
<font-face units-per-em="2048" ascent="1638" descent="-410" />
<missing-glyph horiz-adv-x="565" />
<glyph unicode="&#xfb01;" horiz-adv-x="1380" d="M61 803v233h154v25q2 233 107.5 324.5t287.5 91.5q33 0 72 -6.5t63 -14.5v-268q-23 23 -45 34t-57 11q-57 0 -90 -31t-33 -104v-62h225v-233h-227v-803h-305v803h-152zM930 1178v235h316v-235h-316zM936 0v1022h305l3 -1022h-308z" />
<glyph unicode="&#xfb02;" horiz-adv-x="1368" d="M61 803v233h154v25q2 233 107.5 324.5t287.5 91.5q33 0 72 -6.5t63 -14.5v-268q-23 23 -45 34t-57 11q-57 0 -90 -31t-33 -104v-62h225v-233h-227v-803h-305v803h-152zM930 0v1427h303v-1427h-303z" />
<glyph horiz-adv-x="0" />
<glyph unicode="&#xd;" horiz-adv-x="565" />
<glyph horiz-adv-x="0" />
<glyph horiz-adv-x="0" />
<glyph unicode=" "  horiz-adv-x="565" />
<glyph unicode="&#x09;" horiz-adv-x="565" />
<glyph unicode="&#xa0;" horiz-adv-x="565" />
<glyph unicode="!" horiz-adv-x="845" d="M289 1366h293l-37 -989h-221zM299 0v233h270v-233h-270z" />
<glyph unicode="&#x22;" horiz-adv-x="864" d="M166 1384h229l-35 -411h-157zM467 1384h227l-35 -411h-157z" />
<glyph unicode="#" horiz-adv-x="1265" d="M150 252v166h180l47 268h-172v166h201l36 217h176l-38 -217h233l39 217h174l-39 -217h131v-166h-157l-48 -268h150v-166h-178l-37 -213h-174l37 213h-236l-35 -213h-176l39 213h-153zM504 418h237l43 268h-233z" />
<glyph unicode="$" horiz-adv-x="1181" d="M98 963q0 156 98.5 273.5t290.5 149.5v158h234v-151q82 -8 151.5 -29t145.5 -57v-318q-86 66 -184.5 109t-198.5 43q-90 0 -144.5 -36t-54.5 -104q0 -53 33 -86.5t81 -52t155 -51.5q127 -37 208.5 -82t131 -121t49.5 -194q0 -166 -98.5 -284t-274.5 -148v-183h-234v176 q-209 12 -366 91v315q92 -74 210 -114t230 -40q193 0 193 146q0 63 -61.5 99t-198.5 81q-63 20 -78 27q-147 49 -232.5 133t-85.5 250z" />
<glyph unicode="%" horiz-adv-x="1683" d="M51 1014q0 188 81 282.5t257 94.5t257 -93.5t81 -283.5t-81 -283.5t-257 -93.5t-257 93t-81 284zM268 1014q0 -115 36 -159t85 -44q119 0 119 203t-119 203q-49 0 -85 -44.5t-36 -158.5zM311 -45l834 1448h219l-833 -1448h-220zM956 354q0 188 81 282.5t257 94.5t257 -93 t81 -284q0 -190 -81 -283.5t-257 -93.5t-257 93.5t-81 283.5zM1173 354q0 -115 36 -158.5t85 -43.5q119 -1 119 202t-119 203q-49 0 -85 -44t-36 -159z" />
<glyph unicode="&#x26;" horiz-adv-x="1402" d="M84 348q0 106 64.5 205.5t209.5 175.5l-20 25q-127 160 -127 278q0 94 57.5 177t157.5 133.5t223 50.5q121 0 213 -43t143.5 -120t51.5 -171q0 -119 -71 -197t-226 -170l190 -231q35 55 47.5 105t14.5 55h225q-12 -68 -52 -159t-91 -173l237 -289h-370l-72 86 q-141 -113 -369 -113q-133 0 -231.5 52.5t-151.5 138.5t-53 184zM416 377q0 -61 35.5 -111.5t134.5 -50.5q75 0 151 55l-225 275q-47 -41 -71.5 -85t-24.5 -83zM526 1024q0 -31 29 -75t61 -83l13 -14q80 45 111.5 86t31.5 88q0 51 -35 83t-88 32q-51 0 -87 -34t-36 -83z" />
<glyph unicode="'" horiz-adv-x="561" d="M166 1384h229l-35 -411h-157z" />
<glyph unicode="(" horiz-adv-x="724" d="M106 627q0 262 90.5 489t213.5 367h254q-82 -158 -150 -378t-68 -478q0 -260 68 -480.5t150 -377.5h-254q-123 139 -213.5 366t-90.5 492z" />
<glyph unicode=")" horiz-adv-x="724" d="M61 -231q84 159 152 378.5t68 477.5q0 260 -68 479t-152 379h256q121 -139 211 -366.5t90 -491.5q0 -262 -90 -489.5t-211 -366.5h-256z" />
<glyph unicode="*" horiz-adv-x="843" d="M172 1126l164 64l-164 63l72 127l123 -90l-15 148h146l-13 -148l123 90l70 -127l-162 -63l162 -64l-70 -127l-123 91l13 -148h-146l15 148l-123 -91z" />
<glyph unicode="+" horiz-adv-x="1128" d="M193 514v197h272v272h197v-272h270v-197h-270v-270h-197v270h-272z" />
<glyph unicode="," horiz-adv-x="718" d="M152 -229l151 401h250l-188 -401h-213z" />
<glyph unicode="-" horiz-adv-x="950" d="M162 522v211h624v-211h-624z" />
<glyph unicode="." horiz-adv-x="538" d="M121 0v289h297v-289h-297z" />
<glyph unicode="/" horiz-adv-x="911" d="M-29 -201l752 1749h219l-754 -1749h-217z" />
<glyph unicode="0" horiz-adv-x="1363" d="M88 682q0 358 144.5 533.5t449.5 175.5t450.5 -175.5t145.5 -533.5t-145.5 -533.5t-450.5 -175.5t-449.5 175.5t-144.5 533.5zM426 682q0 -260 70.5 -350t185.5 -90q117 0 187.5 90t70.5 350q0 258 -70.5 349t-187.5 91q-115 0 -185.5 -91t-70.5 -349z" />
<glyph unicode="1" horiz-adv-x="962" d="M121 897v295l303 174h293v-1366h-332v1047z" />
<glyph unicode="2" horiz-adv-x="1245" d="M143 0v233q127 74 267.5 196t235.5 256t95 241q0 104 -63.5 156.5t-171.5 52.5q-90 0 -171 -39t-179 -113v283q207 127 450 127q225 0 346 -109.5t121 -310.5q0 -135 -75.5 -256t-182 -214t-254.5 -200h539v-303h-957z" />
<glyph unicode="3" horiz-adv-x="1218" d="M147 90v283q115 -68 202 -104t183 -36q119 0 185.5 44.5t66.5 123.5q0 180 -258 181h-202v249h206q96 0 144.5 40t48.5 104q0 80 -62.5 116.5t-162.5 36.5q-74 0 -149 -18t-175 -66v252q80 41 172 64.5t184 23.5q205 0 345.5 -94t140.5 -278q0 -72 -34 -131.5t-82 -95 t-87 -44.5q61 -18 121.5 -65t100.5 -122t40 -169q0 -203 -150.5 -302t-377.5 -99q-195 0 -400 106z" />
<glyph unicode="4" horiz-adv-x="1249" d="M80 367v237l612 762h309v-750h173v-249h-173v-367h-333v367h-588zM362 616h306v379z" />
<glyph unicode="5" horiz-adv-x="1224" d="M166 741l86 627h776v-289h-565l-27 -182q100 25 226 25q204 0 340.5 -113t136.5 -344q0 -264 -159 -377t-405 -113q-125 0 -234.5 32t-172.5 77v309q57 -59 157.5 -103t206.5 -44q127 0 198 53t71 141q0 104 -62.5 151.5t-163.5 47.5q-84 0 -156.5 -20.5t-105.5 -40.5z " />
<glyph unicode="6" horiz-adv-x="1280" d="M90 631q0 449 208 605.5t468 156.5q178 0 297 -52v-276q-68 31 -131.5 46t-140.5 15q-160 0 -256.5 -93t-110.5 -275q113 135 293 137q473 -2 473 -457q0 -135 -63.5 -239.5t-189.5 -164t-310 -59.5q-537 0 -537 656zM432 508q18 -154 72.5 -208t146.5 -54q105 0 155 58 t50 140q0 102 -52 155.5t-145 53.5q-174 0 -227 -145z" />
<glyph unicode="7" horiz-adv-x="1212" d="M137 1063v303h983v-192l-485 -1174h-363l478 1063h-613z" />
<glyph unicode="8" horiz-adv-x="1292" d="M88 385q0 127 69.5 205t161.5 117q-76 39 -134 108.5t-58 183.5q0 193 129 293.5t391 100.5t391 -100.5t129 -293.5q0 -117 -58 -186.5t-134 -103.5q92 -41 161.5 -120t69.5 -204q0 -190 -141 -300t-418 -110q-276 0 -417.5 110t-141.5 300zM438 440q0 -80 48.5 -143.5 t160.5 -63.5q113 0 161 63.5t48 143.5q0 72 -55.5 124t-153.5 52t-153.5 -52t-55.5 -124zM467 967q0 -78 55.5 -121t124.5 -43q70 0 125 43t55 121q0 74 -51 120t-129 46t-129 -46.5t-51 -119.5z" />
<glyph unicode="9" horiz-adv-x="1286" d="M90 932q0 133 62.5 237.5t183.5 164t289 59.5q293 0 429 -165t136 -491q0 -449 -208 -605.5t-468 -156.5q-178 0 -297 52v276q70 -31 132.5 -46t139.5 -15q162 0 257.5 93t109.5 273q-113 -133 -293 -135q-473 2 -473 459zM426 924q0 -100 52 -154.5t145 -54.5 q172 0 225 145q-18 154 -73.5 208t-149.5 54q-102 0 -150.5 -58t-48.5 -140z" />
<glyph unicode=":" horiz-adv-x="847" d="M293 80v248h256v-248h-256zM293 694v248h256v-248h-256z" />
<glyph unicode=";" horiz-adv-x="632" d="M76 -229l145 430h283l-217 -430h-211zM215 653v289h297v-289h-297z" />
<glyph unicode="&#x3c;" horiz-adv-x="1363" d="M246 463v172l856 383v-244l-553 -225l553 -225v-244z" />
<glyph unicode="=" horiz-adv-x="1306" d="M254 313v211h799v-211h-799zM254 698v211h799v-211h-799z" />
<glyph unicode="&#x3e;" horiz-adv-x="1345" d="M248 80v244l553 225l-553 225v244l856 -383v-172z" />
<glyph unicode="?" horiz-adv-x="1050" d="M164 1061v231q47 33 139 61.5t193 28.5q195 0 306 -105.5t111 -285.5q0 -70 -21.5 -122t-51 -86.5t-80.5 -82.5q-74 -66 -112 -125t-38 -155v-41h-241v49q0 102 27.5 174t65.5 116t97 97t86 89t27 87q0 94 -56.5 131t-154.5 37q-80 0 -160 -27.5t-137 -70.5zM354 0v233 h271v-233h-271z" />
<glyph unicode="@" horiz-adv-x="1869" d="M168 373q0 242 130 439.5t333 309t409 111.5q150 0 307.5 -70.5t266 -221t108.5 -376.5q0 -135 -40 -252.5t-119.5 -189.5t-192.5 -72q-70 0 -116 37t-66 86q-35 -55 -106.5 -89t-176.5 -34q-152 0 -239.5 68.5t-87.5 187.5t97 209t359 90q59 0 119 -6v33q-6 59 -42 91 t-132 32q-154 0 -274 -45l24 159q147 49 264 50q164 0 248 -75t84 -222q0 -45 -6 -97.5t-8 -68.5q-16 -111 -17 -166q0 -121 92 -121q47 0 98.5 44t87.5 133t36 216q0 170 -85 296t-218.5 190.5t-268.5 64.5q-190 0 -363 -101.5t-279.5 -272.5t-106.5 -371 q0 -215 103.5 -341t231.5 -173.5t220 -47.5q256 0 456 103l-20 -131q-182 -86 -440 -86q-148 0 -302.5 70.5t-261 224t-106.5 385.5zM752 309q0 -84 153 -84q90 0 136 27t64.5 74t24.5 127q-31 4 -96 4q-283 0 -282 -148z" />
<glyph unicode="A" horiz-adv-x="1415" d="M27 0l516 1366h362l484 -1366h-340l-101 295h-510l-98 -295h-313zM520 539h346l-174 516z" />
<glyph unicode="B" horiz-adv-x="1374" d="M145 0v1366h580q233 0 362.5 -91t129.5 -288q0 -160 -168 -256q112 -37 174.5 -118t62.5 -199q0 -205 -141 -309.5t-365 -104.5h-635zM477 256h279h8q77 0 128 39q54 41 54 131q0 86 -55 123t-141 37h-273v-330zM477 829h266q55 0 95.5 33t40.5 99q0 147 -156 147h-246 v-279z" />
<glyph unicode="C" horiz-adv-x="1290" d="M78 682q0 715 672 715q207 0 434 -101v-288q-197 131 -389 131q-188 0 -281.5 -105.5t-93.5 -351.5t95 -348.5t294 -102.5q82 0 178 31t197 96v-288q-84 -43 -205 -70t-229 -27q-672 0 -672 709z" />
<glyph unicode="D" horiz-adv-x="1456" d="M145 0v1366h549q344 0 510 -171t166 -513q0 -340 -166 -511t-510 -171h-549zM477 256h178q186 0 280.5 104.5t94.5 321.5q0 221 -94 324.5t-281 103.5h-178v-854z" />
<glyph unicode="E" horiz-adv-x="1214" d="M145 0v1366h936v-256h-604v-297h524v-258h-524v-299h604v-256h-936z" />
<glyph unicode="F" horiz-adv-x="1167" d="M145 0v1366h930v-256h-598v-326h516v-260h-516v-524h-332z" />
<glyph unicode="G" horiz-adv-x="1445" d="M88 682q0 362 176 538.5t490 176.5q248 0 487 -101v-301q-139 74 -240.5 109t-205.5 35q-186 0 -277.5 -103.5t-91.5 -351.5q0 -244 92 -349.5t262 -105.5q121 0 189 33v242h-226v258h557v-643q-266 -147 -546 -148q-318 0 -492 172t-174 539z" />
<glyph unicode="H" horiz-adv-x="1454" d="M145 0v1366h332v-553h502v553h330v-1366h-330v543h-502v-543h-332z" />
<glyph unicode="I" horiz-adv-x="622" d="M145 0v1366h332v-1366h-332z" />
<glyph unicode="J" horiz-adv-x="978" d="M72 49v303q82 -57 135 -84.5t106 -27.5q188 0 189 190v936h332v-950q0 -236 -127 -339.5t-314 -103.5q-159 0 -321 76z" />
<glyph unicode="K" horiz-adv-x="1392" d="M145 0v1366h332v-569l418 569h418l-512 -578l555 -788h-416l-367 535l-96 -109v-426h-332z" />
<glyph unicode="L" horiz-adv-x="1136" d="M145 0v1366h332v-1106h594v-260h-926z" />
<glyph unicode="M" horiz-adv-x="1732" d="M145 0v1366h338l383 -532l391 532h330v-1366h-332v924l-401 -535l-391 533v-922h-318z" />
<glyph unicode="N" horiz-adv-x="1482" d="M145 0v1366h283l604 -813v813h305v-1366h-250l-636 831v-831h-306z" />
<glyph unicode="O" d="M88 682q0 348 173 529.5t493 181.5q313 0 490 -177.5t177 -531.5q0 -348 -173 -530.5t-494 -182.5q-314 0 -490 178.5t-176 532.5zM430 680q0 -233 81 -334.5t243 -101.5q161 0 243 102.5t82 337.5q0 236 -80.5 337t-244.5 101q-162 0 -243 -102t-81 -340z" />
<glyph unicode="P" horiz-adv-x="1359" d="M145 0v1366h615q246 0 380 -110.5t134 -333.5q0 -227 -136.5 -350t-377.5 -123h-283v-449h-332zM477 705h242q100 0 148 52t48 142q0 209 -196 209h-242v-403z" />
<glyph unicode="Q" d="M88 682q0 362 165 543.5t501 181.5q332 0 499.5 -177t167.5 -546q0 -455 -256 -623q53 -75 121 -75q37 0 64.5 8t68.5 33v-205q-68 -37 -194 -37q-229 0 -316 182q-82 -10 -155 -10q-330 0 -498 177t-168 548zM430 680q0 -141 23 -244v8q37 55 112.5 95.5t165.5 40.5 q205 0 311 -195q37 111 37 299q0 254 -80.5 360.5t-244.5 106.5t-244 -107.5t-80 -363.5zM512 293q41 -57 100.5 -82t141.5 -25q31 0 84 9q-29 74 -73 113.5t-97 39.5q-88 0 -156 -55z" />
<glyph unicode="R" horiz-adv-x="1452" d="M145 0v1366h666q236 0 365 -108.5t129 -323.5q0 -133 -74 -247t-205 -152l348 -535h-422l-270 471h-205v-471h-332zM477 715h279q190 0 190 203q0 94 -45 143t-131 49h-293v-395z" />
<glyph unicode="S" horiz-adv-x="1181" d="M98 963q0 117 57.5 216t176.5 158.5t293 59.5q121 0 208 -21.5t185 -68.5v-318q-86 66 -184.5 109t-198.5 43q-90 0 -144.5 -36t-54.5 -104q0 -53 33 -86.5t81 -52t155 -51.5q127 -37 208.5 -82t131 -121t49.5 -194q0 -125 -57.5 -225.5t-169 -159t-263.5 -58.5 q-155 0 -270 21.5t-213 73.5v315q92 -74 210 -114t230 -40q193 0 193 146q0 63 -61.5 99t-198.5 81q-63 20 -78 27q-147 49 -232.5 133t-85.5 250z" />
<glyph unicode="T" horiz-adv-x="1202" d="M49 1110v256h1104v-256h-389v-1110h-332v1110h-383z" />
<glyph unicode="U" horiz-adv-x="1486" d="M145 510v856h347v-842q0 -158 63 -233.5t203 -75.5q129 0 198.5 78t69.5 231v842h315v-856q0 -276 -152.5 -414.5t-414.5 -138.5q-317 0 -473 135t-156 418z" />
<glyph unicode="V" horiz-adv-x="1452" d="M27 1366h383l331 -997l332 995l352 2l-534 -1366h-354z" />
<glyph unicode="W" horiz-adv-x="2068" d="M51 1366h363l215 -954l276 954h256l279 -956l215 956h362l-383 -1366h-327l-273 887l-272 -887h-328z" />
<glyph unicode="X" horiz-adv-x="1390" d="M25 1366h411l297 -434l254 434h367l-449 -686l463 -680h-412l-294 432l-263 -432h-358l453 680z" />
<glyph unicode="Y" horiz-adv-x="1417" d="M43 1366h408l309 -518l280 518h330l-477 -780v-586h-332v592z" />
<glyph unicode="Z" horiz-adv-x="1298" d="M111 0v242l671 864h-661v260h1063v-238l-656 -870h656v-258h-1073z" />
<glyph unicode="[" horiz-adv-x="811" d="M166 -238v1663h545v-270h-213v-1120h213v-273h-545z" />
<glyph unicode="\" horiz-adv-x="841" d="M-76 1548h219l752 -1749h-217z" />
<glyph unicode="]" horiz-adv-x="829" d="M145 33h213v1120h-213v272h543v-1663h-543v271z" />
<glyph unicode="^" horiz-adv-x="1191" d="M254 963l262 450h137l267 -450h-199l-135 268l-135 -268h-197z" />
<glyph unicode="_" horiz-adv-x="1118" d="M0 -49h1118v-174h-1118v174z" />
<glyph unicode="`" horiz-adv-x="534" d="M61 1382h299l95 -254h-166z" />
<glyph unicode="a" horiz-adv-x="1171" d="M80 324q0 150 93 233.5t278 83.5q76 0 151.5 -19.5t130.5 -50.5v66q0 178 -229 178q-88 0 -181.5 -31.5t-148.5 -76.5v270q55 37 169 63.5t245 26.5q170 0 309 -79t139 -283l-2 -490q-2 -129 -129 -187.5t-370 -58.5q-455 0 -455 355zM383 317q0 -59 48 -96t114 -37 q106 0 147 14.5t41 57.5v160q-69 24 -151 24h-7q-100 0 -146 -29.5t-46 -93.5z" />
<glyph unicode="b" horiz-adv-x="1230" d="M135 240v1179h299v-420q55 33 126 49.5t126 16.5q227 0 348 -139.5t121 -403.5q-2 -553 -545 -553q-475 0 -475 271zM434 319q0 -96 172 -96q244 0 244 281q0 317 -238 317q-43 0 -92 -11t-86 -32v-459z" />
<glyph unicode="c" horiz-adv-x="1028" d="M78 504q0 276 147.5 418.5t392.5 142.5q86 0 174.5 -17.5t155.5 -48.5v-262q-84 37 -149.5 56.5t-130.5 19.5q-135 0 -211 -66.5t-76 -207.5q0 -158 70.5 -234t230.5 -76q121 0 268 82v-260q-74 -39 -152.5 -58.5t-176.5 -19.5q-152 0 -275 59.5t-195.5 179.5t-72.5 292z " />
<glyph unicode="d" horiz-adv-x="1247" d="M78 526q0 258 126 400.5t369 142.5q145 0 236 -53v446h303v-1192q0 -96 -67.5 -163.5t-178 -102.5t-235.5 -35q-264 0 -408.5 125t-144.5 432zM385 518q0 -143 59.5 -218t198.5 -75q76 0 121 20.5t45 57.5v477q-82 43 -160 43q-137 0 -200.5 -69.5t-63.5 -235.5z" />
<glyph unicode="e" horiz-adv-x="1150" d="M78 504q0 270 134 418.5t382 148.5q479 0 479 -618v-15h-684q39 -215 289 -215q76 0 148.5 21.5t154.5 56.5v-262q-168 -70 -377 -70q-158 0 -276.5 64.5t-184 185.5t-65.5 285zM387 633h383q-14 111 -58 158t-130 47q-164 0 -195 -205z" />
<glyph unicode="f" horiz-adv-x="806" d="M61 803v233h154v25q2 233 107.5 324.5t287.5 91.5q33 0 72 -6.5t63 -14.5v-268q-23 23 -45 34t-57 11q-57 0 -90 -31t-33 -104v-62h225v-233h-227v-803h-305v803h-152z" />
<glyph unicode="g" horiz-adv-x="1214" d="M78 485q0 324 148.5 452t430.5 128q201 0 319 -72.5t118 -206.5v-798q0 -215 -137.5 -330t-391.5 -115q-131 0 -229 18.5t-154 49.5v268q59 -29 166 -55.5t205 -26.5q133 0 187.5 53.5t54.5 149.5v59q-104 -90 -263 -90q-217 10 -335.5 138.5t-118.5 377.5zM381 504 q0 -142 62.5 -224.5t166.5 -82.5q102 0 185 47v475q0 104 -164 104q-250 0 -250 -319z" />
<glyph unicode="h" horiz-adv-x="1251" d="M135 0v1446h307v-457q141 76 293 76q180 0 280.5 -90t100.5 -295v-680h-305v616q0 197 -197 197q-47 0 -96 -14.5t-76 -34.5l-4 -764h-303z" />
<glyph unicode="i" horiz-adv-x="585" d="M135 1178v235h316v-235h-316zM141 0v1022h305l3 -1022h-308z" />
<glyph unicode="j" horiz-adv-x="622" d="M14 -147q10 -2 31 -3q131 0 131 142v1044h305l4 -1044q0 -209 -126 -298t-345 -89v248zM172 1192v235h315v-235h-315z" />
<glyph unicode="k" horiz-adv-x="1204" d="M135 0v1427h307l-2 -774l314 383h370l-428 -450l455 -586h-387l-324 428l-2 -428h-303z" />
<glyph unicode="l" horiz-adv-x="573" d="M135 0v1427h303v-1427h-303z" />
<glyph unicode="m" horiz-adv-x="1875" d="M135 0v948q80 43 244 80t293 37q207 0 305 -74q80 35 169 54.5t169 19.5q217 0 321.5 -85t104.5 -284v-696h-305v635q0 178 -201 178q-84 0 -141 -39q4 -49 4 -78v-696h-305v635q0 178 -201 178q-82 0 -152 -35v-778h-305z" />
<glyph unicode="n" horiz-adv-x="1247" d="M135 0v948q80 43 244 80t293 37q219 0 329.5 -86t110.5 -283v-696h-305v635q0 178 -201 178q-45 0 -92 -10t-74 -25v-778h-305z" />
<glyph unicode="o" horiz-adv-x="1208" d="M78 522q0 287 130 418t394 131t397.5 -134t133.5 -415q0 -270 -137.5 -411.5t-393.5 -141.5q-262 0 -393 139.5t-131 413.5zM379 522q0 -158 54 -233.5t169 -75.5q113 0 170 79t57 230q0 166 -56 236.5t-171 70.5q-119 0 -171 -70.5t-52 -236.5z" />
<glyph unicode="p" horiz-adv-x="1230" d="M135 -371v1188q0 125 138.5 188.5t355.5 65.5q250 0 387 -130t137 -433q0 -244 -123 -391.5t-336 -147.5q-156 0 -260 56v-396h-299zM434 258q37 -23 82 -33t88 -10q125 0 184.5 69.5t59.5 233.5q0 147 -52.5 222t-179.5 75q-182 0 -182 -70v-487z" />
<glyph unicode="q" horiz-adv-x="1230" d="M78 498q0 305 145.5 436t407.5 131q465 0 465 -289v-1175h-299v430q-94 -61 -246 -62q-227 0 -350 137.5t-123 391.5zM381 516q0 -156 66.5 -228.5t179.5 -72.5q98 0 170 43v459q0 45 -49.5 69.5t-120.5 24.5q-129 0 -187.5 -77t-58.5 -218z" />
<glyph unicode="r" horiz-adv-x="876" d="M135 0v928q31 27 107.5 59.5t172 56t183.5 23.5q170 0 236 -51v-223q-82 18 -236 18q-96 0 -158 -10v-801h-305z" />
<glyph unicode="s" horiz-adv-x="987" d="M100 709q0 121 61.5 198.5t155 113.5t193.5 36q123 0 199.5 -21.5t150.5 -66.5v-240q-104 57 -161.5 82t-133.5 25t-112.5 -24t-36.5 -67q0 -51 41 -74.5t131 -47.5q102 -27 161.5 -52.5t106.5 -88t47 -175.5q-4 -176 -133 -257t-328 -81q-98 0 -171.5 19.5t-164.5 56.5 v268q166 -125 349 -125q70 0 101.5 24t31.5 64q0 47 -51.5 70t-163.5 49q-119 25 -196 98.5t-77 215.5z" />
<glyph unicode="t" horiz-adv-x="845" d="M51 803v233h152v285h319v-285h228v-233h-228v-479q0 -53 22.5 -79t76.5 -26q33 0 67.5 11.5t61.5 31.5v-260q-78 -43 -191 -43q-178 0 -267 84t-89 242v518h-152z" />
<glyph unicode="u" horiz-adv-x="1230" d="M135 395v641h305v-616q0 -98 44 -146.5t141 -48.5q96 0 140 48.5t44 146.5v616h287v-641q0 -215 -124 -320.5t-349 -105.5q-228 0 -358 106.5t-130 319.5z" />
<glyph unicode="v" horiz-adv-x="1271" d="M51 1036h330l274 -700l244 700h322l-433 -1036h-305z" />
<glyph unicode="w" horiz-adv-x="1693" d="M51 1036h328l182 -659l172 659h225l179 -676l184 676h321l-344 -1036h-276l-178 582l-170 -582h-277z" />
<glyph unicode="x" horiz-adv-x="1216" d="M43 0l389 508l-379 528h361l221 -309l213 309h323l-391 -512l375 -524h-360l-220 307l-210 -307h-322z" />
<glyph unicode="y" horiz-adv-x="1214" d="M51 1036h348l219 -680l220 680h327l-407 -1052q-150 -385 -398 -385q-106 0 -184 36v248q58 -22 116 -22h5q61 0 103 34.5t67 114.5z" />
<glyph unicode="z" horiz-adv-x="1007" d="M92 0v242l502 565h-490v229h811v-237l-452 -555h452v-244h-823z" />
<glyph unicode="{" horiz-adv-x="802" d="M121 506v196q35 8 72.5 36t37.5 87v285q0 152 100.5 236t336.5 84h47v-271h-37q-70 -2 -93.5 -38t-23.5 -105v-201q0 -82 -49 -135t-123 -78q76 -23 124 -75t48 -138v-201q0 -70 24.5 -105.5t92.5 -35.5h37v-270h-47q-236 0 -336.5 84t-100.5 235v285q0 59 -33.5 83.5 t-76.5 41.5z" />
<glyph unicode="|" horiz-adv-x="976" d="M379 -203v1567h233v-1567h-233z" />
<glyph unicode="}" horiz-adv-x="790" d="M109 47h34q68 0 92.5 36t24.5 105v201q0 86 49 138.5t123 74.5q-74 25 -123 78t-49 135v201q0 70 -23.5 105.5t-93.5 37.5h-34v271h45q236 0 336 -84t100 -236v-285q0 -59 38 -86.5t72 -36.5v-196q-43 -16 -76.5 -41t-33.5 -84v-285q0 -152 -100.5 -235.5t-335.5 -83.5 h-45v270z" />
<glyph unicode="~" horiz-adv-x="1056" d="M201 461v168q63 78 147 78q39 0 80 -14.5t102 -43.5q57 -29 99.5 -43t81.5 -14q82 0 145 78v-168q-61 -76 -145 -76q-39 0 -81 14.5t-100 42.5q-68 29 -105.5 42.5t-76.5 13.5q-80 0 -147 -78z" />
<glyph unicode="&#xa1;" horiz-adv-x="839" d="M283 -344l36 989h220l36 -989h-292zM293 791v231h272v-231h-272z" />
<glyph unicode="&#xa2;" horiz-adv-x="1028" d="M78 678q0 238 109.5 376t299.5 173v174h234v-168q133 -16 227 -59v-263q-84 37 -149.5 56.5t-130.5 19.5q-135 0 -211 -66.5t-76 -207.5q0 -158 70.5 -234t230.5 -76q121 0 268 82v-260q-113 -57 -229 -71v-154h-234v160q-184 37 -296.5 169t-112.5 349z" />
<glyph unicode="&#xa3;" horiz-adv-x="1148" d="M102 -31v260q35 23 67 32t58.5 13.5t36.5 6.5v278h-162v229h162v205q0 102 44 190.5t141.5 143.5t248.5 55q166 0 336 -98v-274q-137 111 -270 110q-102 0 -157.5 -45t-55.5 -123v-164h317v-229h-317v-287q129 -45 227 -45q123 0 256 74v-254q-100 -76 -229 -76 q-86 0 -234 39q-82 18 -133 27.5t-102 9.5q-131 0 -234 -78z" />
<glyph unicode="&#xa4;" horiz-adv-x="1009" d="M82 401l98 103q-51 86 -51 190q0 102 51 189l-98 100l131 133l100 -98q90 51 191 51q104 0 190 -51l103 98l131 -133l-99 -102q49 -88 50 -187q-1 -100 -52 -190l101 -103l-131 -133l-105 103q-86 -51 -188 -52q-102 0 -189 52l-102 -103zM340 694q0 -78 46 -126t116 -48 q69 0 114.5 48t45.5 126t-45.5 126t-114.5 48q-70 0 -116 -48t-46 -126z" />
<glyph unicode="&#xa5;" horiz-adv-x="1415" d="M37 1366h354l324 -541l325 541h353l-418 -608h172v-178h-287v-166h287v-178h-287v-236h-291v236h-286v178h286v166h-286v178h172z" />
<glyph unicode="&#xa6;" horiz-adv-x="976" d="M379 -203v649h233v-649h-233zM379 717v647h233v-647h-233z" />
<glyph unicode="&#xa7;" horiz-adv-x="1206" d="M125 713q0 96 79 144t175 58q-43 10 -86 60.5t-43 111.5q0 150 122 223.5t314 73.5q174 0 342 -92v-217q-80 45 -150.5 65.5t-152.5 20.5q-74 0 -137.5 -20.5t-63.5 -73.5q0 -31 48.5 -58.5t156.5 -60.5q106 -33 182 -66.5t128.5 -93t52.5 -147.5q0 -82 -69 -124 t-151 -52q45 -27 69 -81t24 -114q0 -135 -118 -210.5t-323 -75.5q-211 -1 -391 114v238q78 -63 163 -97t191 -34q78 0 143.5 20.5t65.5 73.5q0 37 -61.5 64.5t-218.5 76.5q-137 45 -214 104.5t-77 168.5zM397 719q0 -18 29 -36.5t106 -43.5q100 -31 195 -68q43 4 66.5 19.5 t23.5 40.5q0 66 -184 114q-84 20 -131 39q-47 -2 -76 -18t-29 -47z" />
<glyph unicode="&#xa8;" horiz-adv-x="880" d="M121 1143v205h262v-205h-262zM496 1143v205h264v-205h-264z" />
<glyph unicode="&#xa9;" horiz-adv-x="1593" d="M98 682q0 190 94.5 351t255 255t349.5 94q190 0 351 -94t255 -255t94 -351q0 -188 -94 -349t-255 -255t-351 -94q-189 0 -349.5 94t-255 255t-94.5 349zM211 682q0 -158 79 -293t214 -214t293 -79q159 0 294.5 79t214 214t78.5 293q0 160 -78.5 295t-214 214t-294.5 79 q-158 0 -293 -79t-214 -214t-79 -295zM436 684q0 219 104.5 313.5t268.5 94.5q117 0 254 -52v-149q-121 53 -242 53q-102 0 -158.5 -59.5t-56.5 -200.5t56.5 -200.5t158.5 -59.5q121 0 242 53v-149q-133 -53 -254 -54q-164 0 -268.5 94.5t-104.5 315.5z" />
<glyph unicode="&#xaa;" horiz-adv-x="825" d="M139 973q0 176 213 176q51 0 87 -8t46 -17q0 127 -102 127q-45 0 -96 -10t-90 -24v126q43 16 96 27.5t102 11.5q133 0 202 -62.5t69 -180.5v-168q0 -109 -67 -150t-202 -41q-114 0 -186 46t-72 147zM317 979q0 -76 86 -76q86 1 86 62v71q-35 14 -77 15q-39 0 -67 -18.5 t-28 -53.5z" />
<glyph unicode="&#xab;" horiz-adv-x="1284" d="M68 522l346 389h297l-371 -389l371 -391h-297zM532 522l347 389h295l-371 -389l371 -391h-295z" />
<glyph unicode="&#xac;" horiz-adv-x="1292" d="M199 483v195h895v-375h-189v180h-706z" />
<glyph unicode="&#xad;" horiz-adv-x="1228" d="M162 522v211h624v-211h-624z" />
<glyph unicode="&#xae;" horiz-adv-x="1593" d="M100 682q0 190 94.5 351t255 255t349.5 94q190 0 351 -94t255 -255t94 -351q0 -188 -94 -349t-255 -255t-351 -94q-189 0 -349.5 94t-255 255t-94.5 349zM213 682q0 -158 79 -293t214 -214t293 -79q159 0 294.5 79t214 214t78.5 293q0 160 -78.5 295t-214 214t-294.5 79 q-158 0 -293 -79t-214 -214t-79 -295zM512 285v796h309q139 0 222 -64.5t83 -185.5q0 -100 -50 -158.5t-118 -78.5l201 -309h-190l-166 282h-121v-282h-170zM682 700h145q63 0 96 34t33 85q0 53 -32.5 87t-96.5 34h-145v-240z" />
<glyph unicode="&#xaf;" horiz-adv-x="813" d="M125 1130v195h565v-195h-565z" />
<glyph unicode="&#xb0;" horiz-adv-x="792" d="M168 1143q0 111 57.5 169t165.5 58q109 0 166 -58.5t57 -168.5q0 -111 -57 -168t-166 -57q-108 0 -165.5 57t-57.5 168zM279 1145q0 -66 26.5 -94.5t85.5 -28.5q60 0 86.5 28.5t26.5 94.5q0 63 -26.5 92t-86.5 29q-59 0 -85.5 -29t-26.5 -92z" />
<glyph unicode="&#xb1;" horiz-adv-x="1198" d="M233 29v188h740v-188h-740zM233 606v197h273v270h196v-270h271v-197h-271v-270h-196v270h-273z" />
<glyph unicode="&#xb2;" horiz-adv-x="688" d="M94 948v127q16 12 102.5 74.5t138.5 131t52 132.5q0 49 -32.5 77.5t-78.5 28.5q-53 0 -89.5 -17t-86.5 -50v174q111 68 219 67q152 0 220.5 -65.5t68.5 -159.5q0 -88 -64.5 -174t-166.5 -147h237v-199h-520z" />
<glyph unicode="&#xb3;" horiz-adv-x="677" d="M90 995v166q59 -35 96 -50.5t82 -15.5q53 0 86 23t33 63q0 39 -30.5 64t-92.5 25h-80v131h84q39 0 61.5 18t22.5 53q0 29 -29.5 45.5t-72.5 16.5q-61 0 -144 -39v149q94 47 191 47q113 0 195.5 -51t82.5 -149q0 -55 -36.5 -96t-71.5 -50q61 -20 101 -68t40 -122 q0 -109 -89 -162t-214 -53q-100 0 -215 55z" />
<glyph unicode="&#xb4;" horiz-adv-x="536" d="M127 1128l96 254h299l-227 -254h-168z" />
<glyph unicode="&#xb5;" horiz-adv-x="1302" d="M203 -430v1452h291v-660q0 -63 38.5 -105t163.5 -42q80 0 152 21v786h291v-922q-70 -35 -196 -74.5t-290 -39.5q-53 0 -99 14t-60 16v-446h-291z" />
<glyph unicode="&#xb6;" horiz-adv-x="1032" d="M80 893q0 229 136 351t394 122h310v-1366h-234v418h-76q-258 0 -394 122t-136 353z" />
<glyph unicode="&#xb7;" horiz-adv-x="710" d="M221 436v248h256v-248h-256z" />
<glyph unicode="&#xb8;" horiz-adv-x="565" d="M94 -272l185 262h196l-106 -262h-275z" />
<glyph unicode="&#xb9;" horiz-adv-x="501" d="M57 1382v207l148 92h174v-735h-213v500z" />
<glyph unicode="&#xba;" horiz-adv-x="864" d="M154 1090q0 150 72.5 222t199.5 72t199.5 -72.5t72.5 -221.5q0 -147 -73.5 -220t-198.5 -73t-198.5 72.5t-73.5 220.5zM315 1090q0 -170 111 -170t111 170q0 88 -28 130t-83 42t-83 -42t-28 -130z" />
<glyph unicode="&#xbb;" horiz-adv-x="1302" d="M117 131l368 391l-368 389h295l346 -389l-346 -391h-295zM580 131l368 391l-368 389h294l349 -389l-349 -391h-294z" />
<glyph unicode="&#xbc;" horiz-adv-x="1505" d="M57 1077v207l148 92h174v-735h-213v500zM129 -45l834 1448h219l-833 -1448h-220zM798 170v154l328 411h184v-401h92v-164h-92v-170h-200v170h-312zM976 334h134v168z" />
<glyph unicode="&#xbd;" d="M57 1077v207l148 92h174v-735h-213v500zM125 -45l834 1448h219l-833 -1448h-220zM887 0v127q16 12 102.5 74.5t138.5 131t52 132.5q0 49 -32.5 77.5t-78.5 28.5q-53 0 -89.5 -17t-86.5 -50v174q111 68 219 67q152 0 220.5 -65.5t68.5 -159.5q0 -88 -64.5 -174 t-166.5 -147h237v-199h-520z" />
<glyph unicode="&#xbe;" horiz-adv-x="1607" d="M90 707v165q59 -35 96 -50t82 -15q53 0 86 22.5t33 63.5q0 39 -30.5 63.5t-92.5 24.5h-80v131h84q39 0 61.5 18.5t22.5 53.5q0 29 -29.5 45t-72.5 16q-61 0 -144 -39v150q94 47 191 47q113 0 195.5 -51.5t82.5 -149.5q0 -55 -36.5 -96t-71.5 -49q61 -20 101 -68.5 t40 -122.5q0 -109 -89 -162t-214 -53q-100 1 -215 56zM245 -45l834 1448h219l-833 -1448h-220zM901 170v154l328 411h184v-401h92v-164h-92v-170h-200v170h-312zM1079 334h134v168z" />
<glyph unicode="&#xbf;" horiz-adv-x="1048" d="M160 33q0 100 39 160.5t114 128.5q76 70 113 127t37 153v43h242v-51q0 -102 -28 -174t-66 -116t-97 -97t-86 -89t-27 -87q0 -94 56.5 -131t154.5 -37q80 0 160 27.5t137 70.5v-231q-47 -33 -139 -61.5t-192 -28.5q-195 0 -306.5 106.5t-111.5 286.5zM449 791v231h270 v-231h-270z" />
<glyph unicode="&#xc0;" horiz-adv-x="1415" d="M27 0l516 1366h362l484 -1366h-340l-101 295h-510l-98 -295h-313zM436 1694h270l97 -228h-168zM520 539h346l-174 516z" />
<glyph unicode="&#xc1;" horiz-adv-x="1415" d="M27 0l516 1366h362l484 -1366h-340l-101 295h-510l-98 -295h-313zM520 539h346l-174 516zM631 1472l74 232h319l-241 -232h-152z" />
<glyph unicode="&#xc2;" horiz-adv-x="1415" d="M27 0l516 1366h362l484 -1366h-340l-101 295h-510l-98 -295h-313zM406 1454l180 248h248l178 -248h-203l-100 121l-101 -121h-202zM520 539h346l-174 516z" />
<glyph unicode="&#xc3;" horiz-adv-x="1415" d="M27 0l516 1366h362l484 -1366h-340l-101 295h-510l-98 -295h-313zM346 1475q-4 78 24.5 143.5t83 104.5t123.5 39q51 0 93.5 -19.5t95.5 -56.5q39 -29 66.5 -42t56.5 -13q76 0 67 120h150q4 -129 -62.5 -205.5t-167.5 -76.5q-70 0 -115.5 22.5t-99.5 61.5q-37 27 -55 37 t-41 10q-41 0 -61.5 -37t-16.5 -88h-141zM520 539h346l-174 516z" />
<glyph unicode="&#xc4;" horiz-adv-x="1415" d="M27 0l516 1366h362l484 -1366h-340l-101 295h-510l-98 -295h-313zM383 1440v204h262v-204h-262zM520 539h346l-174 516zM757 1440v204h265v-204h-265z" />
<glyph unicode="&#xc5;" horiz-adv-x="1415" d="M27 0l516 1366h100q-88 12 -134 60.5t-46 129.5q0 94 62.5 144.5t181.5 50.5t181 -50t62 -145q0 -82 -46 -130t-134 -60h135l484 -1366h-340l-101 295h-510l-98 -295h-313zM520 539h346l-174 516zM608 1556q0 -40 22.5 -57.5t76.5 -17.5q53 0 75.5 17.5t22.5 57.5 q0 41 -22.5 57.5t-75.5 16.5t-76 -16.5t-23 -57.5z" />
<glyph unicode="&#xc6;" horiz-adv-x="2105" d="M27 0l952 1366h995v-258h-588v-289h506v-258h-506v-303h588v-258h-917v301h-465l-195 -301h-370zM748 541h309v477z" />
<glyph unicode="&#xc7;" horiz-adv-x="1290" d="M78 682q0 715 672 715q207 0 434 -101v-288q-197 131 -389 131q-189 0 -282 -105.5t-93 -351.5t95 -348.5t294 -102.5q82 0 178 31t197 96v-288q-82 -43 -202 -70t-228 -27l-90 -223h-275l168 240q-479 94 -479 692z" />
<glyph unicode="&#xc8;" horiz-adv-x="1214" d="M145 0v1366h936v-256h-604v-297h524v-258h-524v-299h604v-256h-936zM350 1694h270l97 -228h-168z" />
<glyph unicode="&#xc9;" horiz-adv-x="1214" d="M145 0v1366h936v-256h-604v-297h524v-258h-524v-299h604v-256h-936zM545 1472l74 232h319l-241 -232h-152z" />
<glyph unicode="&#xca;" horiz-adv-x="1214" d="M145 0v1366h936v-256h-604v-297h524v-258h-524v-299h604v-256h-936zM320 1454l180 248h248l178 -248h-203l-100 121l-101 -121h-202z" />
<glyph unicode="&#xcb;" horiz-adv-x="1214" d="M145 0v1366h936v-256h-604v-297h524v-258h-524v-299h604v-256h-936zM297 1440v204h262v-204h-262zM671 1440v204h265v-204h-265z" />
<glyph unicode="&#xcc;" horiz-adv-x="622" d="M49 1694h270l97 -228h-168zM145 0v1366h332v-1366h-332z" />
<glyph unicode="&#xcd;" horiz-adv-x="622" d="M145 0v1366h332v-1366h-332zM244 1472l74 232h319l-241 -232h-152z" />
<glyph unicode="&#xce;" horiz-adv-x="622" d="M19 1454l180 248h248l178 -248h-203l-100 121l-101 -121h-202zM145 0v1366h332v-1366h-332z" />
<glyph unicode="&#xcf;" horiz-adv-x="622" d="M-4 1440v204h262v-204h-262zM145 0v1366h332v-1366h-332zM370 1440v204h265v-204h-265z" />
<glyph unicode="&#xd0;" horiz-adv-x="1456" d="M12 590v186h133v590h549q344 0 510 -171t166 -513q0 -340 -166 -511t-510 -171h-549v590h-133zM477 256h178q187 0 281 104.5t94 321.5q0 221 -94 324.5t-281 103.5h-178v-334h150v-186h-150v-334z" />
<glyph unicode="&#xd1;" horiz-adv-x="1482" d="M145 0v1366h283l604 -813v813h305v-1366h-250l-636 831v-831h-306zM381 1475q-4 78 24.5 143.5t83 104.5t123.5 39q51 0 93.5 -19.5t95.5 -56.5q39 -29 66.5 -42t56.5 -13q76 0 67 120h150q4 -129 -62.5 -205.5t-167.5 -76.5q-70 0 -115.5 22.5t-99.5 61.5q-37 27 -55 37 t-41 10q-41 0 -61.5 -37t-16.5 -88h-141z" />
<glyph unicode="&#xd2;" d="M88 682q0 348 173 529.5t493 181.5q313 0 490 -177.5t177 -531.5q0 -348 -173 -530.5t-494 -182.5q-314 0 -490 178.5t-176 532.5zM430 680q0 -233 81 -334.5t243 -101.5q161 0 243 102.5t82 337.5q0 236 -80.5 337t-244.5 101q-162 0 -243 -102t-81 -340zM487 1737h270 l97 -228h-168z" />
<glyph unicode="&#xd3;" d="M88 682q0 348 173 529.5t493 181.5q313 0 490 -177.5t177 -531.5q0 -348 -173 -530.5t-494 -182.5q-314 0 -490 178.5t-176 532.5zM430 680q0 -233 81 -334.5t243 -101.5q161 0 243 102.5t82 337.5q0 236 -80.5 337t-244.5 101q-162 0 -243 -102t-81 -340zM682 1515 l74 232h319l-241 -232h-152z" />
<glyph unicode="&#xd4;" d="M88 682q0 348 173 529.5t493 181.5q313 0 490 -177.5t177 -531.5q0 -348 -173 -530.5t-494 -182.5q-314 0 -490 178.5t-176 532.5zM430 680q0 -233 81 -334.5t243 -101.5q161 0 243 102.5t82 337.5q0 236 -80.5 337t-244.5 101q-162 0 -243 -102t-81 -340zM457 1497 l180 248h248l178 -248h-203l-100 121l-101 -121h-202z" />
<glyph unicode="&#xd5;" d="M88 682q0 348 173 529.5t493 181.5q313 0 490 -177.5t177 -531.5q0 -348 -173 -530.5t-494 -182.5q-314 0 -490 178.5t-176 532.5zM397 1518q-4 78 24.5 143.5t83 104.5t123.5 39q51 0 93.5 -19.5t95.5 -56.5q39 -29 66.5 -42t56.5 -13q76 0 67 120h150 q4 -129 -62.5 -205.5t-167.5 -76.5q-70 0 -115.5 22.5t-99.5 61.5q-37 27 -55 37t-41 10q-41 0 -61.5 -37t-16.5 -88h-141zM430 680q0 -233 81 -334.5t243 -101.5q161 0 243 102.5t82 337.5q0 236 -80.5 337t-244.5 101q-162 0 -243 -102t-81 -340z" />
<glyph unicode="&#xd6;" d="M88 682q0 348 173 529.5t493 181.5q313 0 490 -177.5t177 -531.5q0 -348 -173 -530.5t-494 -182.5q-314 0 -490 178.5t-176 532.5zM430 680q0 -233 81 -334.5t243 -101.5q161 0 243 102.5t82 337.5q0 236 -80.5 337t-244.5 101q-162 0 -243 -102t-81 -340zM435 1483v204 h262v-204h-262zM809 1483v204h265v-204h-265z" />
<glyph unicode="&#xd7;" horiz-adv-x="1060" d="M152 156l280 368l-280 369h196l184 -240l187 240h196l-282 -369l282 -368h-196l-187 239l-184 -239h-196z" />
<glyph unicode="&#xd8;" d="M49 0l174 199q-135 176 -135 483q0 348 173 529.5t493 181.5q254 0 417 -115l76 86h221l-178 -203q131 -178 131 -477q0 -348 -173 -530.5t-494 -182.5q-252 0 -414 113l-74 -84h-217zM430 680q0 -131 25 -217l516 588q-78 72 -217 71q-162 0 -243 -102t-81 -340z M541 311q76 -68 213 -67q162 0 243.5 102.5t81.5 337.5q1 119 -22 213z" />
<glyph unicode="&#xd9;" horiz-adv-x="1486" d="M145 510v856h347v-842q0 -158 63 -233.5t203 -75.5q129 0 198.5 78t69.5 231v842h315v-856q0 -276 -152.5 -414.5t-414.5 -138.5q-317 0 -473 135t-156 418zM471 1708h270l97 -228h-168z" />
<glyph unicode="&#xda;" horiz-adv-x="1486" d="M145 510v856h347v-842q0 -158 63 -233.5t203 -75.5q129 0 198.5 78t69.5 231v842h315v-856q0 -276 -152.5 -414.5t-414.5 -138.5q-317 0 -473 135t-156 418zM665 1486l74 232h319l-241 -232h-152z" />
<glyph unicode="&#xdb;" horiz-adv-x="1486" d="M145 510v856h347v-842q0 -158 63 -233.5t203 -75.5q129 0 198.5 78t69.5 231v842h315v-856q0 -276 -152.5 -414.5t-414.5 -138.5q-317 0 -473 135t-156 418zM441 1468l180 248h248l178 -248h-203l-100 121l-101 -121h-202z" />
<glyph unicode="&#xdc;" horiz-adv-x="1486" d="M145 510v856h347v-842q0 -158 63 -233.5t203 -75.5q129 0 198.5 78t69.5 231v842h315v-856q0 -276 -152.5 -414.5t-414.5 -138.5q-317 0 -473 135t-156 418zM418 1454v204h262v-204h-262zM792 1454v204h265v-204h-265z" />
<glyph unicode="&#xdd;" horiz-adv-x="1417" d="M43 1366h408l309 -518l280 518h330l-477 -780v-586h-332v592zM682 1472l74 232h319l-241 -232h-152z" />
<glyph unicode="&#xde;" horiz-adv-x="1286" d="M176 0v1366h291v-205h203q242 0 375 -120.5t133 -340.5q0 -223 -132.5 -343.5t-375.5 -120.5h-203v-236h-291zM467 481h174q137 0 191.5 63.5t54.5 155.5q0 90 -55.5 154t-190.5 64h-174v-437z" />
<glyph unicode="&#xdf;" horiz-adv-x="1300" d="M135 0v893q0 154 57.5 274.5t172 190t276.5 69.5q156 0 275.5 -43t185 -118.5t65.5 -169.5q0 -123 -78.5 -202t-164.5 -106q121 -37 210 -133t89 -270q0 -182 -111 -298t-317 -118q-109 -4 -234 33v252q96 -53 187 -53q80 0 123.5 50t43.5 146q0 109 -74.5 161t-181.5 54 v246q190 0 191 164q0 72 -52.5 113t-138.5 41q-104 0 -160.5 -72t-56.5 -203v-901h-307z" />
<glyph unicode="&#xe0;" horiz-adv-x="1171" d="M80 324q0 150 93 233.5t278 83.5q76 0 151.5 -19.5t130.5 -50.5v66q0 178 -229 178q-88 0 -181.5 -31.5t-148.5 -76.5v270q55 37 169 63.5t245 26.5q170 0 309 -79t139 -283l-2 -490q-2 -129 -129 -187.5t-370 -58.5q-455 0 -455 355zM276 1425h299l95 -254h-166z M383 317q0 -59 48 -96t114 -37q106 0 147 14.5t41 57.5v160q-72 25 -158 24q-100 0 -146 -29.5t-46 -93.5z" />
<glyph unicode="&#xe1;" horiz-adv-x="1171" d="M80 324q0 150 93 233.5t278 83.5q76 0 151.5 -19.5t130.5 -50.5v66q0 178 -229 178q-88 0 -181.5 -31.5t-148.5 -76.5v270q55 37 169 63.5t245 26.5q170 0 309 -79t139 -283l-2 -490q-2 -129 -129 -187.5t-370 -58.5q-455 0 -455 355zM383 317q0 -59 48 -96t114 -37 q106 0 147 14.5t41 57.5v160q-72 25 -158 24q-100 0 -146 -29.5t-46 -93.5zM485 1171l96 254h299l-227 -254h-168z" />
<glyph unicode="&#xe2;" horiz-adv-x="1171" d="M80 324q0 150 93 233.5t278 83.5q76 0 151.5 -19.5t130.5 -50.5v66q0 178 -229 178q-88 0 -181.5 -31.5t-148.5 -76.5v270q55 37 169 63.5t245 26.5q170 0 309 -79t139 -283l-2 -490q-2 -129 -129 -187.5t-370 -58.5q-455 0 -455 355zM293 1184l180 248h248l178 -248 h-202l-101 121l-100 -121h-203zM383 317q0 -59 48 -96t114 -37q106 0 147 14.5t41 57.5v160q-72 25 -158 24q-100 0 -146 -29.5t-46 -93.5z" />
<glyph unicode="&#xe3;" horiz-adv-x="1171" d="M80 324q0 150 93 233.5t278 83.5q76 0 151.5 -19.5t130.5 -50.5v66q0 178 -229 178q-88 0 -181.5 -31.5t-148.5 -76.5v270q55 37 169 63.5t245 26.5q170 0 309 -79t139 -283l-2 -490q-2 -129 -129 -187.5t-370 -58.5q-455 0 -455 355zM217 1159q-4 78 24.5 143.5 t83 104.5t123.5 39q51 0 93 -19.5t96 -56.5q39 -29 66.5 -42t56.5 -13q76 0 67 121h150q4 -129 -62.5 -206t-167.5 -77q-70 0 -115.5 22.5t-99.5 61.5q-37 27 -55 37t-41 10q-41 0 -61.5 -37t-16.5 -88h-141zM383 317q0 -59 48 -96t114 -37q106 0 147 14.5t41 57.5v160 q-72 25 -158 24q-100 0 -146 -29.5t-46 -93.5z" />
<glyph unicode="&#xe4;" horiz-adv-x="1171" d="M80 324q0 150 93 233.5t278 83.5q76 0 151.5 -19.5t130.5 -50.5v66q0 178 -229 178q-88 0 -181.5 -31.5t-148.5 -76.5v270q55 37 169 63.5t245 26.5q170 0 309 -79t139 -283l-2 -490q-2 -129 -129 -187.5t-370 -58.5q-455 0 -455 355zM277 1186v205h262v-205h-262z M383 317q0 -59 48 -96t114 -37q106 0 147 14.5t41 57.5v160q-72 25 -158 24q-100 0 -146 -29.5t-46 -93.5zM652 1186v205h264v-205h-264z" />
<glyph unicode="&#xe5;" horiz-adv-x="1171" d="M80 324q0 150 93 233.5t278 83.5q76 0 151.5 -19.5t130.5 -50.5v66q0 178 -229 178q-88 0 -181.5 -31.5t-148.5 -76.5v270q55 37 169 63.5t245 26.5q170 0 309 -79t139 -283l-2 -490q-2 -129 -129 -187.5t-370 -58.5q-455 0 -455 355zM338 1333q0 94 62.5 144.5 t181.5 50.5t181 -50.5t62 -144.5q0 -96 -62.5 -145t-180.5 -49q-119 0 -181.5 50t-62.5 144zM383 317q0 -59 48 -96t114 -37q106 0 147 14.5t41 57.5v160q-72 25 -158 24q-100 0 -146 -29.5t-46 -93.5zM483 1333q0 -41 22.5 -58.5t76.5 -17.5q53 0 75.5 17.5t22.5 58.5 t-22.5 57.5t-75.5 16.5t-76 -16.5t-23 -57.5z" />
<glyph unicode="&#xe6;" horiz-adv-x="1808" d="M80 311q0 150 100.5 240t286.5 90q70 0 141.5 -18.5t124.5 -49.5v60q0 178 -229 178q-88 0 -181.5 -31.5t-148.5 -77.5v275q55 37 169 63.5t245 26.5q88 0 178 -22.5t158 -77.5q127 98 327 98q248 0 365 -160t115 -467h-697q2 -117 73 -173t222 -56q80 0 162 27.5 t141 64.5v-262q-145 -84 -375 -84q-115 0 -210 32.5t-164 94.5q-182 -125 -381 -125q-190 0 -306 83t-116 271zM383 301q0 -57 49 -93t125 -36q59 0 119.5 11.5t99.5 35.5q-43 86 -43 191v6q-72 25 -158 24q-193 0 -192 -139zM1044 633h383q-14 106 -58 152t-130 46 q-164 1 -195 -198z" />
<glyph unicode="&#xe7;" horiz-adv-x="1028" d="M78 504q0 276 147.5 418.5t392.5 142.5q86 0 174.5 -17.5t155.5 -48.5v-262q-84 37 -149.5 56.5t-130.5 19.5q-135 0 -211 -66.5t-76 -207.5q0 -158 70.5 -234t230.5 -76q121 0 268 82v-260q-113 -59 -239 -74l-103 -249h-274l178 254q-193 31 -313.5 165t-120.5 357z " />
<glyph unicode="&#xe8;" horiz-adv-x="1150" d="M78 504q0 270 134 418.5t382 148.5q485 0 479 -633h-684q39 -215 289 -215q76 0 148.5 21.5t154.5 56.5v-262q-168 -70 -377 -70q-158 0 -276.5 64.5t-184 185.5t-65.5 285zM286 1411h299l95 -254h-166zM387 633h383q-14 111 -58 158t-130 47q-164 0 -195 -205z" />
<glyph unicode="&#xe9;" horiz-adv-x="1150" d="M78 504q0 270 134 418.5t382 148.5q485 0 479 -633h-684q39 -215 289 -215q76 0 148.5 21.5t154.5 56.5v-262q-168 -70 -377 -70q-158 0 -276.5 64.5t-184 185.5t-65.5 285zM387 633h383q-14 111 -58 158t-130 47q-164 0 -195 -205zM496 1157l96 254h299l-227 -254h-168z " />
<glyph unicode="&#xea;" horiz-adv-x="1150" d="M78 504q0 270 134 418.5t382 148.5q485 0 479 -633h-684q39 -215 289 -215q76 0 148.5 21.5t154.5 56.5v-262q-168 -70 -377 -70q-158 0 -276.5 64.5t-184 185.5t-65.5 285zM303 1169l180 248h248l178 -248h-202l-101 121l-100 -121h-203zM387 633h383q-14 111 -58 158 t-130 47q-164 0 -195 -205z" />
<glyph unicode="&#xeb;" horiz-adv-x="1150" d="M78 504q0 270 134 418.5t382 148.5q485 0 479 -633h-684q39 -215 289 -215q76 0 148.5 21.5t154.5 56.5v-262q-168 -70 -377 -70q-158 0 -276.5 64.5t-184 185.5t-65.5 285zM287 1172v205h262v-205h-262zM387 633h383q-14 111 -58 158t-130 47q-164 0 -195 -205z M662 1172v205h264v-205h-264z" />
<glyph unicode="&#xec;" horiz-adv-x="679" d="M82 1393h213l125 -240h-154zM199 0v1022h290v-1022h-290z" />
<glyph unicode="&#xed;" horiz-adv-x="679" d="M199 0v1022h290v-1022h-290zM268 1143l125 239h213l-184 -239h-154z" />
<glyph unicode="&#xee;" horiz-adv-x="679" d="M76 1143l221 250h94l221 -250h-180l-88 106l-88 -106h-180zM199 0v1022h290v-1022h-290z" />
<glyph unicode="&#xef;" horiz-adv-x="679" d="M66 1143v205h221v-205h-221zM199 0v1022h290v-1022h-290zM401 1143v205h220v-205h-220z" />
<glyph unicode="&#xf0;" horiz-adv-x="1191" d="M78 514q0 266 110.5 408.5t311.5 142.5q162 0 252 -86q-37 94 -105 180l-250 -47l-41 174l140 25q-39 33 -148 104v12h367q37 -23 82 -65l235 41l49 -160l-157 -31q84 -120 132 -274t48 -328q0 -330 -124 -492.5t-378 -162.5q-264 0 -394 138t-130 421zM379 514 q0 -166 53 -240.5t170 -74.5q111 0 161 99t50 343q0 74 -8 125q-41 45 -93.5 69.5t-109.5 24.5q-223 0 -223 -346z" />
<glyph unicode="&#xf1;" horiz-adv-x="1247" d="M135 0v948q80 43 244 80t293 37q219 0 329.5 -86t110.5 -283v-696h-305v635q0 178 -201 178q-45 0 -92 -10t-74 -25v-778h-305zM258 1145q-4 78 24.5 143.5t83 104.5t123.5 39q51 0 93 -19.5t96 -56.5q39 -29 66.5 -42t56.5 -13q76 0 67 121h150q4 -129 -62.5 -206 t-167.5 -77q-70 0 -115.5 22.5t-99.5 61.5q-37 27 -55 37t-41 10q-41 0 -61.5 -37t-16.5 -88h-141z" />
<glyph unicode="&#xf2;" horiz-adv-x="1208" d="M78 522q0 287 130 418t394 131t397.5 -134t133.5 -415q0 -270 -137.5 -411.5t-393.5 -141.5q-262 0 -393 139.5t-131 413.5zM301 1425h299l95 -254h-166zM379 522q0 -158 54 -233.5t169 -75.5q113 0 170 79t57 230q0 166 -56 236.5t-171 70.5q-119 0 -171 -70.5 t-52 -236.5z" />
<glyph unicode="&#xf3;" horiz-adv-x="1208" d="M78 522q0 287 130 418t394 131t397.5 -134t133.5 -415q0 -270 -137.5 -411.5t-393.5 -141.5q-262 0 -393 139.5t-131 413.5zM379 522q0 -158 54 -233.5t169 -75.5q113 0 170 79t57 230q0 166 -56 236.5t-171 70.5q-119 0 -171 -70.5t-52 -236.5zM510 1171l96 254h299 l-227 -254h-168z" />
<glyph unicode="&#xf4;" horiz-adv-x="1208" d="M78 522q0 287 130 418t394 131t397.5 -134t133.5 -415q0 -270 -137.5 -411.5t-393.5 -141.5q-262 0 -393 139.5t-131 413.5zM317 1184l180 248h248l178 -248h-202l-101 121l-100 -121h-203zM379 522q0 -158 54 -233.5t169 -75.5q113 0 170 79t57 230q0 166 -56 236.5 t-171 70.5q-119 0 -171 -70.5t-52 -236.5z" />
<glyph unicode="&#xf5;" horiz-adv-x="1208" d="M78 522q0 287 130 418t394 131t397.5 -134t133.5 -415q0 -270 -137.5 -411.5t-393.5 -141.5q-262 0 -393 139.5t-131 413.5zM242 1159q-4 78 24.5 143.5t83 104.5t123.5 39q51 0 93 -19.5t96 -56.5q39 -29 66.5 -42t56.5 -13q76 0 67 121h150q4 -129 -62.5 -206 t-167.5 -77q-70 0 -115.5 22.5t-99.5 61.5q-37 27 -55 37t-41 10q-41 0 -61.5 -37t-16.5 -88h-141zM379 522q0 -158 54 -233.5t169 -75.5q113 0 170 79t57 230q0 166 -56 236.5t-171 70.5q-119 0 -171 -70.5t-52 -236.5z" />
<glyph unicode="&#xf6;" horiz-adv-x="1208" d="M78 522q0 287 130 418t394 131t397.5 -134t133.5 -415q0 -270 -137.5 -411.5t-393.5 -141.5q-262 0 -393 139.5t-131 413.5zM301 1186v205h262v-205h-262zM379 522q0 -158 54 -233.5t169 -75.5q113 0 170 79t57 230q0 166 -56 236.5t-171 70.5q-119 0 -171 -70.5 t-52 -236.5zM676 1186v205h264v-205h-264z" />
<glyph unicode="&#xf7;" horiz-adv-x="1286" d="M201 432v199h889v-199h-889zM532 78v217h226v-217h-226zM532 768v217h226v-217h-226z" />
<glyph unicode="&#xf8;" horiz-adv-x="1230" d="M39 0l133 156q-94 133 -94 366q0 287 130 418t394 131q180 0 299 -61l10 12h279l-135 -158q78 -131 78 -342q0 -270 -137.5 -411.5t-393.5 -141.5q-160 0 -268 51l-19 -20h-276zM379 522q0 -67 8 -114l336 395q-47 27 -121 26q-119 0 -171 -70.5t-52 -236.5zM510 229 q35 -16 92 -16q113 0 170 79t57 230q0 29 -4 74z" />
<glyph unicode="&#xf9;" horiz-adv-x="1230" d="M135 395v641h305v-616q0 -98 44 -146.5t141 -48.5q96 0 140 48.5t44 146.5v616h287v-641q0 -215 -124 -320.5t-349 -105.5q-228 0 -358 106.5t-130 319.5zM325 1411h299l95 -254h-166z" />
<glyph unicode="&#xfa;" horiz-adv-x="1230" d="M135 395v641h305v-616q0 -98 44 -146.5t141 -48.5q96 0 140 48.5t44 146.5v616h287v-641q0 -215 -124 -320.5t-349 -105.5q-228 0 -358 106.5t-130 319.5zM535 1157l96 254h299l-227 -254h-168z" />
<glyph unicode="&#xfb;" horiz-adv-x="1230" d="M135 395v641h305v-616q0 -98 44 -146.5t141 -48.5q96 0 140 48.5t44 146.5v616h287v-641q0 -215 -124 -320.5t-349 -105.5q-228 0 -358 106.5t-130 319.5zM342 1169l180 248h248l178 -248h-202l-101 121l-100 -121h-203z" />
<glyph unicode="&#xfc;" horiz-adv-x="1230" d="M135 395v641h305v-616q0 -98 44 -146.5t141 -48.5q96 0 140 48.5t44 146.5v616h287v-641q0 -215 -124 -320.5t-349 -105.5q-228 0 -358 106.5t-130 319.5zM326 1172v205h262v-205h-262zM701 1172v205h264v-205h-264z" />
<glyph unicode="&#xfd;" horiz-adv-x="1214" d="M51 1036h348l219 -680l220 680h327l-407 -1052q-150 -385 -398 -385q-106 0 -184 36v248q61 -23 121 -22q61 0 103 34.5t67 114.5zM514 1128l96 254h299l-227 -254h-168z" />
<glyph unicode="&#xfe;" horiz-adv-x="1218" d="M135 -379v1806h303v-407q109 16 193 16q510 0 510 -557q0 -154 -55.5 -272.5t-159 -185t-244.5 -66.5q-143 0 -244 53v-387h-303zM438 244q72 -43 168 -43q115 0 173.5 67.5t58.5 220.5q0 143 -50.5 217t-169.5 74q-53 0 -105 -12t-75 -35v-489z" />
<glyph unicode="&#xff;" horiz-adv-x="1214" d="M51 1036h348l219 -680l220 680h327l-407 -1052q-150 -385 -398 -385q-106 0 -184 36v248q61 -23 121 -22q61 0 103 34.5t67 114.5zM305 1143v205h262v-205h-262zM680 1143v205h264v-205h-264z" />
<glyph unicode="&#x152;" horiz-adv-x="2152" d="M88 682q0 348 173 529.5t493 181.5q190 0 329 -64v37h936v-256h-604v-297h524v-258h-524v-299h604v-256h-936v37q-141 -66 -329 -66q-313 0 -489.5 178.5t-176.5 532.5zM430 680q0 -233 81 -334.5t243 -101.5q161 0 243 102.5t82 337.5q0 236 -80.5 337t-244.5 101 q-162 0 -243 -102t-81 -340z" />
<glyph unicode="&#x153;" horiz-adv-x="1906" d="M78 522q0 287 130 418t394 131q256 0 389 -125q131 125 359 125q485 0 479 -633h-684q39 -215 289 -215q76 0 148.5 21.5t154.5 56.5v-262q-168 -70 -377 -70q-113 0 -208 34t-165 99q-137 -133 -385 -133q-262 0 -393 139.5t-131 413.5zM379 522q0 -158 54 -233.5 t169 -75.5q113 0 170 79t57 230q0 166 -56 236.5t-171 70.5q-119 0 -171 -70.5t-52 -236.5zM1143 633h383q-14 111 -58.5 158t-130.5 47q-163 0 -194 -205z" />
<glyph unicode="&#x178;" horiz-adv-x="1417" d="M43 1366h408l309 -518l280 518h330l-477 -780v-586h-332v592zM435 1440v204h262v-204h-262zM809 1440v204h265v-204h-265z" />
<glyph unicode="&#x2c6;" horiz-adv-x="860" d="M137 1155l180 248h248l178 -248h-202l-101 121l-100 -121h-203z" />
<glyph unicode="&#x2dc;" horiz-adv-x="980" d="M123 1087q-4 78 24.5 143.5t83 104.5t123.5 39q51 0 93 -19.5t96 -56.5q39 -29 66.5 -42t56.5 -13q76 0 67 121h150q4 -129 -62.5 -206t-167.5 -77q-70 0 -115.5 22.5t-99.5 61.5q-37 27 -55 37t-41 10q-41 0 -61.5 -36.5t-16.5 -88.5h-141z" />
<glyph unicode="&#x2000;" horiz-adv-x="902" />
<glyph unicode="&#x2001;" horiz-adv-x="1805" />
<glyph unicode="&#x2002;" horiz-adv-x="902" />
<glyph unicode="&#x2003;" horiz-adv-x="1805" />
<glyph unicode="&#x2004;" horiz-adv-x="601" />
<glyph unicode="&#x2005;" horiz-adv-x="451" />
<glyph unicode="&#x2006;" horiz-adv-x="300" />
<glyph unicode="&#x2007;" horiz-adv-x="300" />
<glyph unicode="&#x2008;" horiz-adv-x="225" />
<glyph unicode="&#x2009;" horiz-adv-x="361" />
<glyph unicode="&#x200a;" horiz-adv-x="100" />
<glyph unicode="&#x2010;" horiz-adv-x="950" d="M162 522v211h624v-211h-624z" />
<glyph unicode="&#x2011;" horiz-adv-x="950" d="M162 522v211h624v-211h-624z" />
<glyph unicode="&#x2012;" horiz-adv-x="950" d="M162 522v211h624v-211h-624z" />
<glyph unicode="&#x2013;" horiz-adv-x="1146" d="M141 492v204h860v-204h-860z" />
<glyph unicode="&#x2014;" horiz-adv-x="1824" d="M162 492v208h1501v-208h-1501z" />
<glyph unicode="&#x2018;" horiz-adv-x="587" d="M96 1384h250l152 -401h-213z" />
<glyph unicode="&#x2019;" horiz-adv-x="587" d="M96 983l152 401h250l-189 -401h-213z" />
<glyph unicode="&#x201a;" horiz-adv-x="673" d="M147 -229l152 401h250l-189 -401h-213z" />
<glyph unicode="&#x201c;" horiz-adv-x="927" d="M98 1384h250l152 -401h-213zM430 1384h250l151 -401h-210z" />
<glyph unicode="&#x201d;" horiz-adv-x="923" d="M98 983l152 401h250l-191 -401h-211zM430 983l152 401h249l-188 -401h-213z" />
<glyph unicode="&#x201e;" horiz-adv-x="1007" d="M147 -229l152 401h250l-189 -401h-213zM481 -229l152 401h250l-191 -401h-211z" />
<glyph unicode="&#x2022;" horiz-adv-x="1015" d="M176 672q0 90 45 165.5t121 119.5t166 44t166 -44t120 -119.5t44 -165.5t-44 -167t-120 -121t-166 -44t-166 44t-121 121t-45 167z" />
<glyph unicode="&#x2026;" horiz-adv-x="1767" d="M219 0v248h256v-248h-256zM760 0v248h254v-248h-254zM1300 0v248h256v-248h-256z" />
<glyph unicode="&#x202f;" horiz-adv-x="361" />
<glyph unicode="&#x2039;" horiz-adv-x="786" d="M63 522l347 389h297l-371 -389l371 -391h-297z" />
<glyph unicode="&#x203a;" horiz-adv-x="823" d="M96 131l371 391l-371 389h297l346 -389l-346 -391h-297z" />
<glyph unicode="&#x205f;" horiz-adv-x="451" />
<glyph unicode="&#x20ac;" horiz-adv-x="1443" d="M100 426v170h156q-2 27 -2 88t2 90h-156v170h183q59 233 222 335.5t388 102.5q203 0 430 -90v-256q-199 92 -412 92q-119 0 -197.5 -44t-119.5 -140h475v-170h-520q-4 -57 -4 -90q0 -35 4 -88h520v-170h-475q41 -98 120 -142t197 -44q213 0 412 92v-256 q-227 -90 -430 -90q-227 0 -389 102t-221 338h-183z" />
<glyph unicode="&#x2122;" horiz-adv-x="1572" d="M100 1233v133h568v-133h-211v-549h-146v549h-211zM770 684v682h145l183 -266l182 266h145v-682h-145v463l-182 -262l-183 262v-463h-145z" />
<glyph unicode="&#x25fc;" horiz-adv-x="1034" d="M0 0v1034h1034v-1034h-1034z" />
</font>
</defs>
</svg>
